G04 #@! TF.GenerationSoftware,KiCad,Pcbnew,7.0.8*
G04 #@! TF.CreationDate,2023-12-07T12:05:54+09:00*
G04 #@! TF.ProjectId,rat_board,7261745f-626f-4617-9264-2e6b69636164,rev?*
G04 #@! TF.SameCoordinates,Original*
G04 #@! TF.FileFunction,Soldermask,Top*
G04 #@! TF.FilePolarity,Negative*
%FSLAX46Y46*%
G04 Gerber Fmt 4.6, Leading zero omitted, Abs format (unit mm)*
G04 Created by KiCad (PCBNEW 7.0.8) date 2023-12-07 12:05:54*
%MOMM*%
%LPD*%
G01*
G04 APERTURE LIST*
G04 Aperture macros list*
%AMRoundRect*
0 Rectangle with rounded corners*
0 $1 Rounding radius*
0 $2 $3 $4 $5 $6 $7 $8 $9 X,Y pos of 4 corners*
0 Add a 4 corners polygon primitive as box body*
4,1,4,$2,$3,$4,$5,$6,$7,$8,$9,$2,$3,0*
0 Add four circle primitives for the rounded corners*
1,1,$1+$1,$2,$3*
1,1,$1+$1,$4,$5*
1,1,$1+$1,$6,$7*
1,1,$1+$1,$8,$9*
0 Add four rect primitives between the rounded corners*
20,1,$1+$1,$2,$3,$4,$5,0*
20,1,$1+$1,$4,$5,$6,$7,0*
20,1,$1+$1,$6,$7,$8,$9,0*
20,1,$1+$1,$8,$9,$2,$3,0*%
G04 Aperture macros list end*
%ADD10C,1.700000*%
%ADD11C,1.600000*%
%ADD12O,1.600000X1.600000*%
%ADD13O,1.700000X1.700000*%
%ADD14RoundRect,0.250000X0.725000X-0.600000X0.725000X0.600000X-0.725000X0.600000X-0.725000X-0.600000X0*%
%ADD15O,1.950000X1.700000*%
%ADD16C,6.400000*%
%ADD17RoundRect,0.250000X0.750000X-0.600000X0.750000X0.600000X-0.750000X0.600000X-0.750000X-0.600000X0*%
%ADD18O,2.000000X1.700000*%
%ADD19RoundRect,0.425000X0.425000X-0.425000X0.425000X0.425000X-0.425000X0.425000X-0.425000X-0.425000X0*%
%ADD20RoundRect,0.425000X0.425000X0.425000X-0.425000X0.425000X-0.425000X-0.425000X0.425000X-0.425000X0*%
%ADD21R,2.500000X2.000000*%
%ADD22R,6.000000X6.000000*%
%ADD23R,1.800000X1.800000*%
%ADD24C,1.800000*%
%ADD25RoundRect,0.250000X-0.600000X-0.750000X0.600000X-0.750000X0.600000X0.750000X-0.600000X0.750000X0*%
%ADD26O,1.700000X2.000000*%
G04 APERTURE END LIST*
D10*
X149000000Y-87500000D03*
X159000000Y-87500000D03*
D11*
X162000000Y-111000000D03*
D12*
X162000000Y-118620000D03*
D13*
X139000000Y-85300000D03*
X139000000Y-87840000D03*
X139000000Y-90380000D03*
X139000000Y-92920000D03*
X139000000Y-95460000D03*
X139000000Y-98000000D03*
X139000000Y-100540000D03*
X139000000Y-103080000D03*
X139000000Y-105620000D03*
X139000000Y-108160000D03*
X139000000Y-110700000D03*
X139000000Y-113240000D03*
X139000000Y-115780000D03*
X139000000Y-118320000D03*
X139000000Y-120860000D03*
X139000000Y-123400000D03*
X139000000Y-125940000D03*
X139000000Y-128480000D03*
X139000000Y-131020000D03*
X113600000Y-131020000D03*
X113600000Y-128480000D03*
X113600000Y-125940000D03*
X113600000Y-123400000D03*
X113600000Y-120860000D03*
X113600000Y-118320000D03*
X113600000Y-115780000D03*
X113600000Y-113240000D03*
X113600000Y-110700000D03*
X113600000Y-108160000D03*
X113600000Y-105620000D03*
X113600000Y-103080000D03*
X113600000Y-100540000D03*
X113600000Y-98000000D03*
X113600000Y-95460000D03*
X113600000Y-92920000D03*
X113600000Y-90380000D03*
X113600000Y-87840000D03*
D10*
X113600000Y-85300000D03*
D14*
X159000000Y-131500000D03*
D15*
X159000000Y-129000000D03*
X159000000Y-126500000D03*
X159000000Y-124000000D03*
D16*
X108000000Y-79000000D03*
D11*
X151375000Y-121950000D03*
X146375000Y-121950000D03*
D16*
X108000000Y-141000000D03*
D17*
X169000000Y-118500000D03*
D18*
X169000000Y-116000000D03*
D11*
X119000000Y-132310000D03*
D12*
X119000000Y-124690000D03*
D17*
X169000000Y-95500000D03*
D18*
X169000000Y-93000000D03*
D19*
X135000000Y-142750000D03*
D10*
X135000000Y-136250000D03*
X139500000Y-142750000D03*
X139500000Y-136250000D03*
X155000000Y-115540000D03*
X155000000Y-113000000D03*
X155000000Y-110460000D03*
X155000000Y-107920000D03*
X155000000Y-105380000D03*
X155000000Y-102840000D03*
X148380000Y-102840000D03*
X148380000Y-105380000D03*
X148380000Y-107920000D03*
X148380000Y-110460000D03*
X148380000Y-113000000D03*
X148380000Y-115540000D03*
D20*
X149580000Y-141000000D03*
D10*
X147040000Y-141000000D03*
X144500000Y-141000000D03*
D14*
X169000000Y-131000000D03*
D15*
X169000000Y-128500000D03*
X169000000Y-126000000D03*
D11*
X126000000Y-132310000D03*
D12*
X126000000Y-124690000D03*
D21*
X152125000Y-130050000D03*
D22*
X145875000Y-127750000D03*
D21*
X152125000Y-125450000D03*
D23*
X125750000Y-142040000D03*
D24*
X125750000Y-139500000D03*
D11*
X132750000Y-124690000D03*
D12*
X132750000Y-132310000D03*
D16*
X170000000Y-79000000D03*
X170000000Y-141000000D03*
D17*
X169000000Y-107000000D03*
D18*
X169000000Y-104500000D03*
D25*
X157750000Y-140000000D03*
D26*
X160250000Y-140000000D03*
D23*
X117500000Y-142000000D03*
D24*
X117500000Y-139460000D03*
D11*
X146375000Y-133450000D03*
X151375000Y-133450000D03*
M02*
