G04 #@! TF.GenerationSoftware,KiCad,Pcbnew,7.0.8*
G04 #@! TF.CreationDate,2023-12-07T12:05:54+09:00*
G04 #@! TF.ProjectId,rat_board,7261745f-626f-4617-9264-2e6b69636164,rev?*
G04 #@! TF.SameCoordinates,Original*
G04 #@! TF.FileFunction,Legend,Top*
G04 #@! TF.FilePolarity,Positive*
%FSLAX46Y46*%
G04 Gerber Fmt 4.6, Leading zero omitted, Abs format (unit mm)*
G04 Created by KiCad (PCBNEW 7.0.8) date 2023-12-07 12:05:54*
%MOMM*%
%LPD*%
G01*
G04 APERTURE LIST*
%ADD10C,0.150000*%
%ADD11C,0.100000*%
%ADD12C,0.120000*%
G04 APERTURE END LIST*
D10*
X129869819Y-138187030D02*
X129869819Y-138663220D01*
X129869819Y-138663220D02*
X128869819Y-138663220D01*
X129346009Y-137853696D02*
X129346009Y-137520363D01*
X129869819Y-137377506D02*
X129869819Y-137853696D01*
X129869819Y-137853696D02*
X128869819Y-137853696D01*
X128869819Y-137853696D02*
X128869819Y-137377506D01*
X129869819Y-136948934D02*
X128869819Y-136948934D01*
X128869819Y-136948934D02*
X128869819Y-136710839D01*
X128869819Y-136710839D02*
X128917438Y-136567982D01*
X128917438Y-136567982D02*
X129012676Y-136472744D01*
X129012676Y-136472744D02*
X129107914Y-136425125D01*
X129107914Y-136425125D02*
X129298390Y-136377506D01*
X129298390Y-136377506D02*
X129441247Y-136377506D01*
X129441247Y-136377506D02*
X129631723Y-136425125D01*
X129631723Y-136425125D02*
X129726961Y-136472744D01*
X129726961Y-136472744D02*
X129822200Y-136567982D01*
X129822200Y-136567982D02*
X129869819Y-136710839D01*
X129869819Y-136710839D02*
X129869819Y-136948934D01*
X129965057Y-136187030D02*
X129965057Y-135425125D01*
X129346009Y-134853696D02*
X129393628Y-134710839D01*
X129393628Y-134710839D02*
X129441247Y-134663220D01*
X129441247Y-134663220D02*
X129536485Y-134615601D01*
X129536485Y-134615601D02*
X129679342Y-134615601D01*
X129679342Y-134615601D02*
X129774580Y-134663220D01*
X129774580Y-134663220D02*
X129822200Y-134710839D01*
X129822200Y-134710839D02*
X129869819Y-134806077D01*
X129869819Y-134806077D02*
X129869819Y-135187029D01*
X129869819Y-135187029D02*
X128869819Y-135187029D01*
X128869819Y-135187029D02*
X128869819Y-134853696D01*
X128869819Y-134853696D02*
X128917438Y-134758458D01*
X128917438Y-134758458D02*
X128965057Y-134710839D01*
X128965057Y-134710839D02*
X129060295Y-134663220D01*
X129060295Y-134663220D02*
X129155533Y-134663220D01*
X129155533Y-134663220D02*
X129250771Y-134710839D01*
X129250771Y-134710839D02*
X129298390Y-134758458D01*
X129298390Y-134758458D02*
X129346009Y-134853696D01*
X129346009Y-134853696D02*
X129346009Y-135187029D01*
X156733922Y-120309819D02*
X157305350Y-120309819D01*
X157019636Y-121309819D02*
X157019636Y-120309819D01*
X157781541Y-121309819D02*
X157686303Y-121262200D01*
X157686303Y-121262200D02*
X157638684Y-121214580D01*
X157638684Y-121214580D02*
X157591065Y-121119342D01*
X157591065Y-121119342D02*
X157591065Y-120833628D01*
X157591065Y-120833628D02*
X157638684Y-120738390D01*
X157638684Y-120738390D02*
X157686303Y-120690771D01*
X157686303Y-120690771D02*
X157781541Y-120643152D01*
X157781541Y-120643152D02*
X157924398Y-120643152D01*
X157924398Y-120643152D02*
X158019636Y-120690771D01*
X158019636Y-120690771D02*
X158067255Y-120738390D01*
X158067255Y-120738390D02*
X158114874Y-120833628D01*
X158114874Y-120833628D02*
X158114874Y-121119342D01*
X158114874Y-121119342D02*
X158067255Y-121214580D01*
X158067255Y-121214580D02*
X158019636Y-121262200D01*
X158019636Y-121262200D02*
X157924398Y-121309819D01*
X157924398Y-121309819D02*
X157781541Y-121309819D01*
X158876779Y-120786009D02*
X158543446Y-120786009D01*
X158543446Y-121309819D02*
X158543446Y-120309819D01*
X158543446Y-120309819D02*
X159019636Y-120309819D01*
X150789160Y-119465057D02*
X150836779Y-119417438D01*
X150836779Y-119417438D02*
X150932017Y-119369819D01*
X150932017Y-119369819D02*
X151170112Y-119369819D01*
X151170112Y-119369819D02*
X151265350Y-119417438D01*
X151265350Y-119417438D02*
X151312969Y-119465057D01*
X151312969Y-119465057D02*
X151360588Y-119560295D01*
X151360588Y-119560295D02*
X151360588Y-119655533D01*
X151360588Y-119655533D02*
X151312969Y-119798390D01*
X151312969Y-119798390D02*
X150741541Y-120369819D01*
X150741541Y-120369819D02*
X151360588Y-120369819D01*
X151789160Y-120274580D02*
X151836779Y-120322200D01*
X151836779Y-120322200D02*
X151789160Y-120369819D01*
X151789160Y-120369819D02*
X151741541Y-120322200D01*
X151741541Y-120322200D02*
X151789160Y-120274580D01*
X151789160Y-120274580D02*
X151789160Y-120369819D01*
X152217731Y-119465057D02*
X152265350Y-119417438D01*
X152265350Y-119417438D02*
X152360588Y-119369819D01*
X152360588Y-119369819D02*
X152598683Y-119369819D01*
X152598683Y-119369819D02*
X152693921Y-119417438D01*
X152693921Y-119417438D02*
X152741540Y-119465057D01*
X152741540Y-119465057D02*
X152789159Y-119560295D01*
X152789159Y-119560295D02*
X152789159Y-119655533D01*
X152789159Y-119655533D02*
X152741540Y-119798390D01*
X152741540Y-119798390D02*
X152170112Y-120369819D01*
X152170112Y-120369819D02*
X152789159Y-120369819D01*
X153646302Y-119703152D02*
X153646302Y-120369819D01*
X153217731Y-119703152D02*
X153217731Y-120226961D01*
X153217731Y-120226961D02*
X153265350Y-120322200D01*
X153265350Y-120322200D02*
X153360588Y-120369819D01*
X153360588Y-120369819D02*
X153503445Y-120369819D01*
X153503445Y-120369819D02*
X153598683Y-120322200D01*
X153598683Y-120322200D02*
X153646302Y-120274580D01*
X106336961Y-129282268D02*
X106432200Y-129377506D01*
X106432200Y-129377506D02*
X106527438Y-129663220D01*
X106527438Y-129663220D02*
X106527438Y-129853696D01*
X106527438Y-129853696D02*
X106432200Y-130139411D01*
X106432200Y-130139411D02*
X106241723Y-130329887D01*
X106241723Y-130329887D02*
X106051247Y-130425125D01*
X106051247Y-130425125D02*
X105670295Y-130520363D01*
X105670295Y-130520363D02*
X105384580Y-130520363D01*
X105384580Y-130520363D02*
X105003628Y-130425125D01*
X105003628Y-130425125D02*
X104813152Y-130329887D01*
X104813152Y-130329887D02*
X104622676Y-130139411D01*
X104622676Y-130139411D02*
X104527438Y-129853696D01*
X104527438Y-129853696D02*
X104527438Y-129663220D01*
X104527438Y-129663220D02*
X104622676Y-129377506D01*
X104622676Y-129377506D02*
X104717914Y-129282268D01*
X106527438Y-127567982D02*
X105479819Y-127567982D01*
X105479819Y-127567982D02*
X105289342Y-127663220D01*
X105289342Y-127663220D02*
X105194104Y-127853696D01*
X105194104Y-127853696D02*
X105194104Y-128234649D01*
X105194104Y-128234649D02*
X105289342Y-128425125D01*
X106432200Y-127567982D02*
X106527438Y-127758458D01*
X106527438Y-127758458D02*
X106527438Y-128234649D01*
X106527438Y-128234649D02*
X106432200Y-128425125D01*
X106432200Y-128425125D02*
X106241723Y-128520363D01*
X106241723Y-128520363D02*
X106051247Y-128520363D01*
X106051247Y-128520363D02*
X105860771Y-128425125D01*
X105860771Y-128425125D02*
X105765533Y-128234649D01*
X105765533Y-128234649D02*
X105765533Y-127758458D01*
X105765533Y-127758458D02*
X105670295Y-127567982D01*
X105194104Y-126901315D02*
X105194104Y-126139411D01*
X104527438Y-126615601D02*
X106241723Y-126615601D01*
X106241723Y-126615601D02*
X106432200Y-126520363D01*
X106432200Y-126520363D02*
X106527438Y-126329887D01*
X106527438Y-126329887D02*
X106527438Y-126139411D01*
X105765533Y-125472744D02*
X105765533Y-123948935D01*
X104622676Y-121948935D02*
X104527438Y-122139411D01*
X104527438Y-122139411D02*
X104527438Y-122425125D01*
X104527438Y-122425125D02*
X104622676Y-122710840D01*
X104622676Y-122710840D02*
X104813152Y-122901316D01*
X104813152Y-122901316D02*
X105003628Y-122996554D01*
X105003628Y-122996554D02*
X105384580Y-123091792D01*
X105384580Y-123091792D02*
X105670295Y-123091792D01*
X105670295Y-123091792D02*
X106051247Y-122996554D01*
X106051247Y-122996554D02*
X106241723Y-122901316D01*
X106241723Y-122901316D02*
X106432200Y-122710840D01*
X106432200Y-122710840D02*
X106527438Y-122425125D01*
X106527438Y-122425125D02*
X106527438Y-122234649D01*
X106527438Y-122234649D02*
X106432200Y-121948935D01*
X106432200Y-121948935D02*
X106336961Y-121853697D01*
X106336961Y-121853697D02*
X105670295Y-121853697D01*
X105670295Y-121853697D02*
X105670295Y-122234649D01*
X106527438Y-120996554D02*
X104527438Y-120996554D01*
X104527438Y-120996554D02*
X104527438Y-120234649D01*
X104527438Y-120234649D02*
X104622676Y-120044173D01*
X104622676Y-120044173D02*
X104717914Y-119948935D01*
X104717914Y-119948935D02*
X104908390Y-119853697D01*
X104908390Y-119853697D02*
X105194104Y-119853697D01*
X105194104Y-119853697D02*
X105384580Y-119948935D01*
X105384580Y-119948935D02*
X105479819Y-120044173D01*
X105479819Y-120044173D02*
X105575057Y-120234649D01*
X105575057Y-120234649D02*
X105575057Y-120996554D01*
X104527438Y-119282268D02*
X104527438Y-118139411D01*
X106527438Y-118710840D02*
X104527438Y-118710840D01*
X109747438Y-130425125D02*
X108414104Y-130425125D01*
X108604580Y-130425125D02*
X108509342Y-130329887D01*
X108509342Y-130329887D02*
X108414104Y-130139411D01*
X108414104Y-130139411D02*
X108414104Y-129853696D01*
X108414104Y-129853696D02*
X108509342Y-129663220D01*
X108509342Y-129663220D02*
X108699819Y-129567982D01*
X108699819Y-129567982D02*
X109747438Y-129567982D01*
X108699819Y-129567982D02*
X108509342Y-129472744D01*
X108509342Y-129472744D02*
X108414104Y-129282268D01*
X108414104Y-129282268D02*
X108414104Y-128996554D01*
X108414104Y-128996554D02*
X108509342Y-128806077D01*
X108509342Y-128806077D02*
X108699819Y-128710839D01*
X108699819Y-128710839D02*
X109747438Y-128710839D01*
X109747438Y-126901315D02*
X108699819Y-126901315D01*
X108699819Y-126901315D02*
X108509342Y-126996553D01*
X108509342Y-126996553D02*
X108414104Y-127187029D01*
X108414104Y-127187029D02*
X108414104Y-127567982D01*
X108414104Y-127567982D02*
X108509342Y-127758458D01*
X109652200Y-126901315D02*
X109747438Y-127091791D01*
X109747438Y-127091791D02*
X109747438Y-127567982D01*
X109747438Y-127567982D02*
X109652200Y-127758458D01*
X109652200Y-127758458D02*
X109461723Y-127853696D01*
X109461723Y-127853696D02*
X109271247Y-127853696D01*
X109271247Y-127853696D02*
X109080771Y-127758458D01*
X109080771Y-127758458D02*
X108985533Y-127567982D01*
X108985533Y-127567982D02*
X108985533Y-127091791D01*
X108985533Y-127091791D02*
X108890295Y-126901315D01*
X109747438Y-125091791D02*
X107747438Y-125091791D01*
X109652200Y-125091791D02*
X109747438Y-125282267D01*
X109747438Y-125282267D02*
X109747438Y-125663220D01*
X109747438Y-125663220D02*
X109652200Y-125853696D01*
X109652200Y-125853696D02*
X109556961Y-125948934D01*
X109556961Y-125948934D02*
X109366485Y-126044172D01*
X109366485Y-126044172D02*
X108795057Y-126044172D01*
X108795057Y-126044172D02*
X108604580Y-125948934D01*
X108604580Y-125948934D02*
X108509342Y-125853696D01*
X108509342Y-125853696D02*
X108414104Y-125663220D01*
X108414104Y-125663220D02*
X108414104Y-125282267D01*
X108414104Y-125282267D02*
X108509342Y-125091791D01*
X109652200Y-123377505D02*
X109747438Y-123567981D01*
X109747438Y-123567981D02*
X109747438Y-123948934D01*
X109747438Y-123948934D02*
X109652200Y-124139410D01*
X109652200Y-124139410D02*
X109461723Y-124234648D01*
X109461723Y-124234648D02*
X108699819Y-124234648D01*
X108699819Y-124234648D02*
X108509342Y-124139410D01*
X108509342Y-124139410D02*
X108414104Y-123948934D01*
X108414104Y-123948934D02*
X108414104Y-123567981D01*
X108414104Y-123567981D02*
X108509342Y-123377505D01*
X108509342Y-123377505D02*
X108699819Y-123282267D01*
X108699819Y-123282267D02*
X108890295Y-123282267D01*
X108890295Y-123282267D02*
X109080771Y-124234648D01*
X109747438Y-120901314D02*
X107747438Y-120901314D01*
X108509342Y-120901314D02*
X108414104Y-120710838D01*
X108414104Y-120710838D02*
X108414104Y-120329885D01*
X108414104Y-120329885D02*
X108509342Y-120139409D01*
X108509342Y-120139409D02*
X108604580Y-120044171D01*
X108604580Y-120044171D02*
X108795057Y-119948933D01*
X108795057Y-119948933D02*
X109366485Y-119948933D01*
X109366485Y-119948933D02*
X109556961Y-120044171D01*
X109556961Y-120044171D02*
X109652200Y-120139409D01*
X109652200Y-120139409D02*
X109747438Y-120329885D01*
X109747438Y-120329885D02*
X109747438Y-120710838D01*
X109747438Y-120710838D02*
X109652200Y-120901314D01*
X108414104Y-119282266D02*
X109747438Y-118806076D01*
X108414104Y-118329885D02*
X109747438Y-118806076D01*
X109747438Y-118806076D02*
X110223628Y-118996552D01*
X110223628Y-118996552D02*
X110318866Y-119091790D01*
X110318866Y-119091790D02*
X110414104Y-119282266D01*
X109747438Y-116044170D02*
X107747438Y-116044170D01*
X107747438Y-116044170D02*
X109176009Y-115377503D01*
X109176009Y-115377503D02*
X107747438Y-114710837D01*
X107747438Y-114710837D02*
X109747438Y-114710837D01*
X109747438Y-113472742D02*
X109652200Y-113663218D01*
X109652200Y-113663218D02*
X109556961Y-113758456D01*
X109556961Y-113758456D02*
X109366485Y-113853694D01*
X109366485Y-113853694D02*
X108795057Y-113853694D01*
X108795057Y-113853694D02*
X108604580Y-113758456D01*
X108604580Y-113758456D02*
X108509342Y-113663218D01*
X108509342Y-113663218D02*
X108414104Y-113472742D01*
X108414104Y-113472742D02*
X108414104Y-113187027D01*
X108414104Y-113187027D02*
X108509342Y-112996551D01*
X108509342Y-112996551D02*
X108604580Y-112901313D01*
X108604580Y-112901313D02*
X108795057Y-112806075D01*
X108795057Y-112806075D02*
X109366485Y-112806075D01*
X109366485Y-112806075D02*
X109556961Y-112901313D01*
X109556961Y-112901313D02*
X109652200Y-112996551D01*
X109652200Y-112996551D02*
X109747438Y-113187027D01*
X109747438Y-113187027D02*
X109747438Y-113472742D01*
X109747438Y-111948932D02*
X108414104Y-111948932D01*
X108795057Y-111948932D02*
X108604580Y-111853694D01*
X108604580Y-111853694D02*
X108509342Y-111758456D01*
X108509342Y-111758456D02*
X108414104Y-111567980D01*
X108414104Y-111567980D02*
X108414104Y-111377503D01*
X109747438Y-110710837D02*
X108414104Y-110710837D01*
X107747438Y-110710837D02*
X107842676Y-110806075D01*
X107842676Y-110806075D02*
X107937914Y-110710837D01*
X107937914Y-110710837D02*
X107842676Y-110615599D01*
X107842676Y-110615599D02*
X107747438Y-110710837D01*
X107747438Y-110710837D02*
X107937914Y-110710837D01*
X167448207Y-122869819D02*
X167114874Y-122393628D01*
X166876779Y-122869819D02*
X166876779Y-121869819D01*
X166876779Y-121869819D02*
X167257731Y-121869819D01*
X167257731Y-121869819D02*
X167352969Y-121917438D01*
X167352969Y-121917438D02*
X167400588Y-121965057D01*
X167400588Y-121965057D02*
X167448207Y-122060295D01*
X167448207Y-122060295D02*
X167448207Y-122203152D01*
X167448207Y-122203152D02*
X167400588Y-122298390D01*
X167400588Y-122298390D02*
X167352969Y-122346009D01*
X167352969Y-122346009D02*
X167257731Y-122393628D01*
X167257731Y-122393628D02*
X166876779Y-122393628D01*
X168400588Y-121917438D02*
X168305350Y-121869819D01*
X168305350Y-121869819D02*
X168162493Y-121869819D01*
X168162493Y-121869819D02*
X168019636Y-121917438D01*
X168019636Y-121917438D02*
X167924398Y-122012676D01*
X167924398Y-122012676D02*
X167876779Y-122107914D01*
X167876779Y-122107914D02*
X167829160Y-122298390D01*
X167829160Y-122298390D02*
X167829160Y-122441247D01*
X167829160Y-122441247D02*
X167876779Y-122631723D01*
X167876779Y-122631723D02*
X167924398Y-122726961D01*
X167924398Y-122726961D02*
X168019636Y-122822200D01*
X168019636Y-122822200D02*
X168162493Y-122869819D01*
X168162493Y-122869819D02*
X168257731Y-122869819D01*
X168257731Y-122869819D02*
X168400588Y-122822200D01*
X168400588Y-122822200D02*
X168448207Y-122774580D01*
X168448207Y-122774580D02*
X168448207Y-122441247D01*
X168448207Y-122441247D02*
X168257731Y-122441247D01*
X169210112Y-122346009D02*
X169352969Y-122393628D01*
X169352969Y-122393628D02*
X169400588Y-122441247D01*
X169400588Y-122441247D02*
X169448207Y-122536485D01*
X169448207Y-122536485D02*
X169448207Y-122679342D01*
X169448207Y-122679342D02*
X169400588Y-122774580D01*
X169400588Y-122774580D02*
X169352969Y-122822200D01*
X169352969Y-122822200D02*
X169257731Y-122869819D01*
X169257731Y-122869819D02*
X168876779Y-122869819D01*
X168876779Y-122869819D02*
X168876779Y-121869819D01*
X168876779Y-121869819D02*
X169210112Y-121869819D01*
X169210112Y-121869819D02*
X169305350Y-121917438D01*
X169305350Y-121917438D02*
X169352969Y-121965057D01*
X169352969Y-121965057D02*
X169400588Y-122060295D01*
X169400588Y-122060295D02*
X169400588Y-122155533D01*
X169400588Y-122155533D02*
X169352969Y-122250771D01*
X169352969Y-122250771D02*
X169305350Y-122298390D01*
X169305350Y-122298390D02*
X169210112Y-122346009D01*
X169210112Y-122346009D02*
X168876779Y-122346009D01*
X171114874Y-122869819D02*
X170638684Y-122869819D01*
X170638684Y-122869819D02*
X170638684Y-121869819D01*
X171448208Y-122346009D02*
X171781541Y-122346009D01*
X171924398Y-122869819D02*
X171448208Y-122869819D01*
X171448208Y-122869819D02*
X171448208Y-121869819D01*
X171448208Y-121869819D02*
X171924398Y-121869819D01*
X172352970Y-122869819D02*
X172352970Y-121869819D01*
X172352970Y-121869819D02*
X172591065Y-121869819D01*
X172591065Y-121869819D02*
X172733922Y-121917438D01*
X172733922Y-121917438D02*
X172829160Y-122012676D01*
X172829160Y-122012676D02*
X172876779Y-122107914D01*
X172876779Y-122107914D02*
X172924398Y-122298390D01*
X172924398Y-122298390D02*
X172924398Y-122441247D01*
X172924398Y-122441247D02*
X172876779Y-122631723D01*
X172876779Y-122631723D02*
X172829160Y-122726961D01*
X172829160Y-122726961D02*
X172733922Y-122822200D01*
X172733922Y-122822200D02*
X172591065Y-122869819D01*
X172591065Y-122869819D02*
X172352970Y-122869819D01*
X167336779Y-101369819D02*
X167336779Y-100703152D01*
X167336779Y-100798390D02*
X167384398Y-100750771D01*
X167384398Y-100750771D02*
X167479636Y-100703152D01*
X167479636Y-100703152D02*
X167622493Y-100703152D01*
X167622493Y-100703152D02*
X167717731Y-100750771D01*
X167717731Y-100750771D02*
X167765350Y-100846009D01*
X167765350Y-100846009D02*
X167765350Y-101369819D01*
X167765350Y-100846009D02*
X167812969Y-100750771D01*
X167812969Y-100750771D02*
X167908207Y-100703152D01*
X167908207Y-100703152D02*
X168051064Y-100703152D01*
X168051064Y-100703152D02*
X168146303Y-100750771D01*
X168146303Y-100750771D02*
X168193922Y-100846009D01*
X168193922Y-100846009D02*
X168193922Y-101369819D01*
X168812969Y-101369819D02*
X168717731Y-101322200D01*
X168717731Y-101322200D02*
X168670112Y-101274580D01*
X168670112Y-101274580D02*
X168622493Y-101179342D01*
X168622493Y-101179342D02*
X168622493Y-100893628D01*
X168622493Y-100893628D02*
X168670112Y-100798390D01*
X168670112Y-100798390D02*
X168717731Y-100750771D01*
X168717731Y-100750771D02*
X168812969Y-100703152D01*
X168812969Y-100703152D02*
X168955826Y-100703152D01*
X168955826Y-100703152D02*
X169051064Y-100750771D01*
X169051064Y-100750771D02*
X169098683Y-100798390D01*
X169098683Y-100798390D02*
X169146302Y-100893628D01*
X169146302Y-100893628D02*
X169146302Y-101179342D01*
X169146302Y-101179342D02*
X169098683Y-101274580D01*
X169098683Y-101274580D02*
X169051064Y-101322200D01*
X169051064Y-101322200D02*
X168955826Y-101369819D01*
X168955826Y-101369819D02*
X168812969Y-101369819D01*
X169432017Y-100703152D02*
X169812969Y-100703152D01*
X169574874Y-100369819D02*
X169574874Y-101226961D01*
X169574874Y-101226961D02*
X169622493Y-101322200D01*
X169622493Y-101322200D02*
X169717731Y-101369819D01*
X169717731Y-101369819D02*
X169812969Y-101369819D01*
X170289160Y-101369819D02*
X170193922Y-101322200D01*
X170193922Y-101322200D02*
X170146303Y-101274580D01*
X170146303Y-101274580D02*
X170098684Y-101179342D01*
X170098684Y-101179342D02*
X170098684Y-100893628D01*
X170098684Y-100893628D02*
X170146303Y-100798390D01*
X170146303Y-100798390D02*
X170193922Y-100750771D01*
X170193922Y-100750771D02*
X170289160Y-100703152D01*
X170289160Y-100703152D02*
X170432017Y-100703152D01*
X170432017Y-100703152D02*
X170527255Y-100750771D01*
X170527255Y-100750771D02*
X170574874Y-100798390D01*
X170574874Y-100798390D02*
X170622493Y-100893628D01*
X170622493Y-100893628D02*
X170622493Y-101179342D01*
X170622493Y-101179342D02*
X170574874Y-101274580D01*
X170574874Y-101274580D02*
X170527255Y-101322200D01*
X170527255Y-101322200D02*
X170432017Y-101369819D01*
X170432017Y-101369819D02*
X170289160Y-101369819D01*
X171051065Y-101369819D02*
X171051065Y-100703152D01*
X171051065Y-100893628D02*
X171098684Y-100798390D01*
X171098684Y-100798390D02*
X171146303Y-100750771D01*
X171146303Y-100750771D02*
X171241541Y-100703152D01*
X171241541Y-100703152D02*
X171336779Y-100703152D01*
X171622494Y-101084104D02*
X172098684Y-101084104D01*
X171527256Y-101369819D02*
X171860589Y-100369819D01*
X171860589Y-100369819D02*
X172193922Y-101369819D01*
X160499819Y-110679411D02*
X160499819Y-111250839D01*
X160499819Y-110965125D02*
X159499819Y-110965125D01*
X159499819Y-110965125D02*
X159642676Y-111060363D01*
X159642676Y-111060363D02*
X159737914Y-111155601D01*
X159737914Y-111155601D02*
X159785533Y-111250839D01*
X159499819Y-110060363D02*
X159499819Y-109965125D01*
X159499819Y-109965125D02*
X159547438Y-109869887D01*
X159547438Y-109869887D02*
X159595057Y-109822268D01*
X159595057Y-109822268D02*
X159690295Y-109774649D01*
X159690295Y-109774649D02*
X159880771Y-109727030D01*
X159880771Y-109727030D02*
X160118866Y-109727030D01*
X160118866Y-109727030D02*
X160309342Y-109774649D01*
X160309342Y-109774649D02*
X160404580Y-109822268D01*
X160404580Y-109822268D02*
X160452200Y-109869887D01*
X160452200Y-109869887D02*
X160499819Y-109965125D01*
X160499819Y-109965125D02*
X160499819Y-110060363D01*
X160499819Y-110060363D02*
X160452200Y-110155601D01*
X160452200Y-110155601D02*
X160404580Y-110203220D01*
X160404580Y-110203220D02*
X160309342Y-110250839D01*
X160309342Y-110250839D02*
X160118866Y-110298458D01*
X160118866Y-110298458D02*
X159880771Y-110298458D01*
X159880771Y-110298458D02*
X159690295Y-110250839D01*
X159690295Y-110250839D02*
X159595057Y-110203220D01*
X159595057Y-110203220D02*
X159547438Y-110155601D01*
X159547438Y-110155601D02*
X159499819Y-110060363D01*
X160499819Y-109298458D02*
X159499819Y-109298458D01*
X160118866Y-109203220D02*
X160499819Y-108917506D01*
X159833152Y-108917506D02*
X160214104Y-109298458D01*
X121369819Y-138187030D02*
X121369819Y-138663220D01*
X121369819Y-138663220D02*
X120369819Y-138663220D01*
X120846009Y-137853696D02*
X120846009Y-137520363D01*
X121369819Y-137377506D02*
X121369819Y-137853696D01*
X121369819Y-137853696D02*
X120369819Y-137853696D01*
X120369819Y-137853696D02*
X120369819Y-137377506D01*
X121369819Y-136948934D02*
X120369819Y-136948934D01*
X120369819Y-136948934D02*
X120369819Y-136710839D01*
X120369819Y-136710839D02*
X120417438Y-136567982D01*
X120417438Y-136567982D02*
X120512676Y-136472744D01*
X120512676Y-136472744D02*
X120607914Y-136425125D01*
X120607914Y-136425125D02*
X120798390Y-136377506D01*
X120798390Y-136377506D02*
X120941247Y-136377506D01*
X120941247Y-136377506D02*
X121131723Y-136425125D01*
X121131723Y-136425125D02*
X121226961Y-136472744D01*
X121226961Y-136472744D02*
X121322200Y-136567982D01*
X121322200Y-136567982D02*
X121369819Y-136710839D01*
X121369819Y-136710839D02*
X121369819Y-136948934D01*
X121465057Y-136187030D02*
X121465057Y-135425125D01*
X121084104Y-135234648D02*
X121084104Y-134758458D01*
X121369819Y-135329886D02*
X120369819Y-134996553D01*
X120369819Y-134996553D02*
X121369819Y-134663220D01*
X167336779Y-89869819D02*
X167336779Y-89203152D01*
X167336779Y-89298390D02*
X167384398Y-89250771D01*
X167384398Y-89250771D02*
X167479636Y-89203152D01*
X167479636Y-89203152D02*
X167622493Y-89203152D01*
X167622493Y-89203152D02*
X167717731Y-89250771D01*
X167717731Y-89250771D02*
X167765350Y-89346009D01*
X167765350Y-89346009D02*
X167765350Y-89869819D01*
X167765350Y-89346009D02*
X167812969Y-89250771D01*
X167812969Y-89250771D02*
X167908207Y-89203152D01*
X167908207Y-89203152D02*
X168051064Y-89203152D01*
X168051064Y-89203152D02*
X168146303Y-89250771D01*
X168146303Y-89250771D02*
X168193922Y-89346009D01*
X168193922Y-89346009D02*
X168193922Y-89869819D01*
X168812969Y-89869819D02*
X168717731Y-89822200D01*
X168717731Y-89822200D02*
X168670112Y-89774580D01*
X168670112Y-89774580D02*
X168622493Y-89679342D01*
X168622493Y-89679342D02*
X168622493Y-89393628D01*
X168622493Y-89393628D02*
X168670112Y-89298390D01*
X168670112Y-89298390D02*
X168717731Y-89250771D01*
X168717731Y-89250771D02*
X168812969Y-89203152D01*
X168812969Y-89203152D02*
X168955826Y-89203152D01*
X168955826Y-89203152D02*
X169051064Y-89250771D01*
X169051064Y-89250771D02*
X169098683Y-89298390D01*
X169098683Y-89298390D02*
X169146302Y-89393628D01*
X169146302Y-89393628D02*
X169146302Y-89679342D01*
X169146302Y-89679342D02*
X169098683Y-89774580D01*
X169098683Y-89774580D02*
X169051064Y-89822200D01*
X169051064Y-89822200D02*
X168955826Y-89869819D01*
X168955826Y-89869819D02*
X168812969Y-89869819D01*
X169432017Y-89203152D02*
X169812969Y-89203152D01*
X169574874Y-88869819D02*
X169574874Y-89726961D01*
X169574874Y-89726961D02*
X169622493Y-89822200D01*
X169622493Y-89822200D02*
X169717731Y-89869819D01*
X169717731Y-89869819D02*
X169812969Y-89869819D01*
X170289160Y-89869819D02*
X170193922Y-89822200D01*
X170193922Y-89822200D02*
X170146303Y-89774580D01*
X170146303Y-89774580D02*
X170098684Y-89679342D01*
X170098684Y-89679342D02*
X170098684Y-89393628D01*
X170098684Y-89393628D02*
X170146303Y-89298390D01*
X170146303Y-89298390D02*
X170193922Y-89250771D01*
X170193922Y-89250771D02*
X170289160Y-89203152D01*
X170289160Y-89203152D02*
X170432017Y-89203152D01*
X170432017Y-89203152D02*
X170527255Y-89250771D01*
X170527255Y-89250771D02*
X170574874Y-89298390D01*
X170574874Y-89298390D02*
X170622493Y-89393628D01*
X170622493Y-89393628D02*
X170622493Y-89679342D01*
X170622493Y-89679342D02*
X170574874Y-89774580D01*
X170574874Y-89774580D02*
X170527255Y-89822200D01*
X170527255Y-89822200D02*
X170432017Y-89869819D01*
X170432017Y-89869819D02*
X170289160Y-89869819D01*
X171051065Y-89869819D02*
X171051065Y-89203152D01*
X171051065Y-89393628D02*
X171098684Y-89298390D01*
X171098684Y-89298390D02*
X171146303Y-89250771D01*
X171146303Y-89250771D02*
X171241541Y-89203152D01*
X171241541Y-89203152D02*
X171336779Y-89203152D01*
X172003446Y-89346009D02*
X172146303Y-89393628D01*
X172146303Y-89393628D02*
X172193922Y-89441247D01*
X172193922Y-89441247D02*
X172241541Y-89536485D01*
X172241541Y-89536485D02*
X172241541Y-89679342D01*
X172241541Y-89679342D02*
X172193922Y-89774580D01*
X172193922Y-89774580D02*
X172146303Y-89822200D01*
X172146303Y-89822200D02*
X172051065Y-89869819D01*
X172051065Y-89869819D02*
X171670113Y-89869819D01*
X171670113Y-89869819D02*
X171670113Y-88869819D01*
X171670113Y-88869819D02*
X172003446Y-88869819D01*
X172003446Y-88869819D02*
X172098684Y-88917438D01*
X172098684Y-88917438D02*
X172146303Y-88965057D01*
X172146303Y-88965057D02*
X172193922Y-89060295D01*
X172193922Y-89060295D02*
X172193922Y-89155533D01*
X172193922Y-89155533D02*
X172146303Y-89250771D01*
X172146303Y-89250771D02*
X172098684Y-89298390D01*
X172098684Y-89298390D02*
X172003446Y-89346009D01*
X172003446Y-89346009D02*
X171670113Y-89346009D01*
X116833152Y-124464649D02*
X117499819Y-124464649D01*
X116452200Y-124702744D02*
X117166485Y-124940839D01*
X117166485Y-124940839D02*
X117166485Y-124321792D01*
X116499819Y-124036077D02*
X116499819Y-123369411D01*
X116499819Y-123369411D02*
X117499819Y-123797982D01*
X116499819Y-122797982D02*
X116499819Y-122702744D01*
X116499819Y-122702744D02*
X116547438Y-122607506D01*
X116547438Y-122607506D02*
X116595057Y-122559887D01*
X116595057Y-122559887D02*
X116690295Y-122512268D01*
X116690295Y-122512268D02*
X116880771Y-122464649D01*
X116880771Y-122464649D02*
X117118866Y-122464649D01*
X117118866Y-122464649D02*
X117309342Y-122512268D01*
X117309342Y-122512268D02*
X117404580Y-122559887D01*
X117404580Y-122559887D02*
X117452200Y-122607506D01*
X117452200Y-122607506D02*
X117499819Y-122702744D01*
X117499819Y-122702744D02*
X117499819Y-122797982D01*
X117499819Y-122797982D02*
X117452200Y-122893220D01*
X117452200Y-122893220D02*
X117404580Y-122940839D01*
X117404580Y-122940839D02*
X117309342Y-122988458D01*
X117309342Y-122988458D02*
X117118866Y-123036077D01*
X117118866Y-123036077D02*
X116880771Y-123036077D01*
X116880771Y-123036077D02*
X116690295Y-122988458D01*
X116690295Y-122988458D02*
X116595057Y-122940839D01*
X116595057Y-122940839D02*
X116547438Y-122893220D01*
X116547438Y-122893220D02*
X116499819Y-122797982D01*
X123833152Y-124464649D02*
X124499819Y-124464649D01*
X123452200Y-124702744D02*
X124166485Y-124940839D01*
X124166485Y-124940839D02*
X124166485Y-124321792D01*
X123499819Y-124036077D02*
X123499819Y-123369411D01*
X123499819Y-123369411D02*
X124499819Y-123797982D01*
X123499819Y-122797982D02*
X123499819Y-122702744D01*
X123499819Y-122702744D02*
X123547438Y-122607506D01*
X123547438Y-122607506D02*
X123595057Y-122559887D01*
X123595057Y-122559887D02*
X123690295Y-122512268D01*
X123690295Y-122512268D02*
X123880771Y-122464649D01*
X123880771Y-122464649D02*
X124118866Y-122464649D01*
X124118866Y-122464649D02*
X124309342Y-122512268D01*
X124309342Y-122512268D02*
X124404580Y-122559887D01*
X124404580Y-122559887D02*
X124452200Y-122607506D01*
X124452200Y-122607506D02*
X124499819Y-122702744D01*
X124499819Y-122702744D02*
X124499819Y-122797982D01*
X124499819Y-122797982D02*
X124452200Y-122893220D01*
X124452200Y-122893220D02*
X124404580Y-122940839D01*
X124404580Y-122940839D02*
X124309342Y-122988458D01*
X124309342Y-122988458D02*
X124118866Y-123036077D01*
X124118866Y-123036077D02*
X123880771Y-123036077D01*
X123880771Y-123036077D02*
X123690295Y-122988458D01*
X123690295Y-122988458D02*
X123595057Y-122940839D01*
X123595057Y-122940839D02*
X123547438Y-122893220D01*
X123547438Y-122893220D02*
X123499819Y-122797982D01*
X151027255Y-135369819D02*
X151122493Y-135369819D01*
X151122493Y-135369819D02*
X151217731Y-135417438D01*
X151217731Y-135417438D02*
X151265350Y-135465057D01*
X151265350Y-135465057D02*
X151312969Y-135560295D01*
X151312969Y-135560295D02*
X151360588Y-135750771D01*
X151360588Y-135750771D02*
X151360588Y-135988866D01*
X151360588Y-135988866D02*
X151312969Y-136179342D01*
X151312969Y-136179342D02*
X151265350Y-136274580D01*
X151265350Y-136274580D02*
X151217731Y-136322200D01*
X151217731Y-136322200D02*
X151122493Y-136369819D01*
X151122493Y-136369819D02*
X151027255Y-136369819D01*
X151027255Y-136369819D02*
X150932017Y-136322200D01*
X150932017Y-136322200D02*
X150884398Y-136274580D01*
X150884398Y-136274580D02*
X150836779Y-136179342D01*
X150836779Y-136179342D02*
X150789160Y-135988866D01*
X150789160Y-135988866D02*
X150789160Y-135750771D01*
X150789160Y-135750771D02*
X150836779Y-135560295D01*
X150836779Y-135560295D02*
X150884398Y-135465057D01*
X150884398Y-135465057D02*
X150932017Y-135417438D01*
X150932017Y-135417438D02*
X151027255Y-135369819D01*
X151789160Y-136274580D02*
X151836779Y-136322200D01*
X151836779Y-136322200D02*
X151789160Y-136369819D01*
X151789160Y-136369819D02*
X151741541Y-136322200D01*
X151741541Y-136322200D02*
X151789160Y-136274580D01*
X151789160Y-136274580D02*
X151789160Y-136369819D01*
X152170112Y-135369819D02*
X152789159Y-135369819D01*
X152789159Y-135369819D02*
X152455826Y-135750771D01*
X152455826Y-135750771D02*
X152598683Y-135750771D01*
X152598683Y-135750771D02*
X152693921Y-135798390D01*
X152693921Y-135798390D02*
X152741540Y-135846009D01*
X152741540Y-135846009D02*
X152789159Y-135941247D01*
X152789159Y-135941247D02*
X152789159Y-136179342D01*
X152789159Y-136179342D02*
X152741540Y-136274580D01*
X152741540Y-136274580D02*
X152693921Y-136322200D01*
X152693921Y-136322200D02*
X152598683Y-136369819D01*
X152598683Y-136369819D02*
X152312969Y-136369819D01*
X152312969Y-136369819D02*
X152217731Y-136322200D01*
X152217731Y-136322200D02*
X152170112Y-136274580D01*
X153122493Y-135369819D02*
X153741540Y-135369819D01*
X153741540Y-135369819D02*
X153408207Y-135750771D01*
X153408207Y-135750771D02*
X153551064Y-135750771D01*
X153551064Y-135750771D02*
X153646302Y-135798390D01*
X153646302Y-135798390D02*
X153693921Y-135846009D01*
X153693921Y-135846009D02*
X153741540Y-135941247D01*
X153741540Y-135941247D02*
X153741540Y-136179342D01*
X153741540Y-136179342D02*
X153693921Y-136274580D01*
X153693921Y-136274580D02*
X153646302Y-136322200D01*
X153646302Y-136322200D02*
X153551064Y-136369819D01*
X153551064Y-136369819D02*
X153265350Y-136369819D01*
X153265350Y-136369819D02*
X153170112Y-136322200D01*
X153170112Y-136322200D02*
X153122493Y-136274580D01*
X154598683Y-135703152D02*
X154598683Y-136369819D01*
X154170112Y-135703152D02*
X154170112Y-136226961D01*
X154170112Y-136226961D02*
X154217731Y-136322200D01*
X154217731Y-136322200D02*
X154312969Y-136369819D01*
X154312969Y-136369819D02*
X154455826Y-136369819D01*
X154455826Y-136369819D02*
X154551064Y-136322200D01*
X154551064Y-136322200D02*
X154598683Y-136274580D01*
X166979636Y-112869819D02*
X166884398Y-112822200D01*
X166884398Y-112822200D02*
X166836779Y-112726961D01*
X166836779Y-112726961D02*
X166836779Y-111869819D01*
X167360589Y-112869819D02*
X167360589Y-112203152D01*
X167360589Y-111869819D02*
X167312970Y-111917438D01*
X167312970Y-111917438D02*
X167360589Y-111965057D01*
X167360589Y-111965057D02*
X167408208Y-111917438D01*
X167408208Y-111917438D02*
X167360589Y-111869819D01*
X167360589Y-111869819D02*
X167360589Y-111965057D01*
X167836779Y-112869819D02*
X167836779Y-112203152D01*
X167836779Y-112298390D02*
X167884398Y-112250771D01*
X167884398Y-112250771D02*
X167979636Y-112203152D01*
X167979636Y-112203152D02*
X168122493Y-112203152D01*
X168122493Y-112203152D02*
X168217731Y-112250771D01*
X168217731Y-112250771D02*
X168265350Y-112346009D01*
X168265350Y-112346009D02*
X168265350Y-112869819D01*
X168265350Y-112346009D02*
X168312969Y-112250771D01*
X168312969Y-112250771D02*
X168408207Y-112203152D01*
X168408207Y-112203152D02*
X168551064Y-112203152D01*
X168551064Y-112203152D02*
X168646303Y-112250771D01*
X168646303Y-112250771D02*
X168693922Y-112346009D01*
X168693922Y-112346009D02*
X168693922Y-112869819D01*
X169170112Y-112869819D02*
X169170112Y-112203152D01*
X169170112Y-111869819D02*
X169122493Y-111917438D01*
X169122493Y-111917438D02*
X169170112Y-111965057D01*
X169170112Y-111965057D02*
X169217731Y-111917438D01*
X169217731Y-111917438D02*
X169170112Y-111869819D01*
X169170112Y-111869819D02*
X169170112Y-111965057D01*
X169503445Y-112203152D02*
X169884397Y-112203152D01*
X169646302Y-111869819D02*
X169646302Y-112726961D01*
X169646302Y-112726961D02*
X169693921Y-112822200D01*
X169693921Y-112822200D02*
X169789159Y-112869819D01*
X169789159Y-112869819D02*
X169884397Y-112869819D01*
X170932017Y-112822200D02*
X171074874Y-112869819D01*
X171074874Y-112869819D02*
X171312969Y-112869819D01*
X171312969Y-112869819D02*
X171408207Y-112822200D01*
X171408207Y-112822200D02*
X171455826Y-112774580D01*
X171455826Y-112774580D02*
X171503445Y-112679342D01*
X171503445Y-112679342D02*
X171503445Y-112584104D01*
X171503445Y-112584104D02*
X171455826Y-112488866D01*
X171455826Y-112488866D02*
X171408207Y-112441247D01*
X171408207Y-112441247D02*
X171312969Y-112393628D01*
X171312969Y-112393628D02*
X171122493Y-112346009D01*
X171122493Y-112346009D02*
X171027255Y-112298390D01*
X171027255Y-112298390D02*
X170979636Y-112250771D01*
X170979636Y-112250771D02*
X170932017Y-112155533D01*
X170932017Y-112155533D02*
X170932017Y-112060295D01*
X170932017Y-112060295D02*
X170979636Y-111965057D01*
X170979636Y-111965057D02*
X171027255Y-111917438D01*
X171027255Y-111917438D02*
X171122493Y-111869819D01*
X171122493Y-111869819D02*
X171360588Y-111869819D01*
X171360588Y-111869819D02*
X171503445Y-111917438D01*
X171836779Y-111869819D02*
X172074874Y-112869819D01*
X172074874Y-112869819D02*
X172265350Y-112155533D01*
X172265350Y-112155533D02*
X172455826Y-112869819D01*
X172455826Y-112869819D02*
X172693922Y-111869819D01*
X163703152Y-142663220D02*
X164703152Y-142663220D01*
X163750771Y-142663220D02*
X163703152Y-142567982D01*
X163703152Y-142567982D02*
X163703152Y-142377506D01*
X163703152Y-142377506D02*
X163750771Y-142282268D01*
X163750771Y-142282268D02*
X163798390Y-142234649D01*
X163798390Y-142234649D02*
X163893628Y-142187030D01*
X163893628Y-142187030D02*
X164179342Y-142187030D01*
X164179342Y-142187030D02*
X164274580Y-142234649D01*
X164274580Y-142234649D02*
X164322200Y-142282268D01*
X164322200Y-142282268D02*
X164369819Y-142377506D01*
X164369819Y-142377506D02*
X164369819Y-142567982D01*
X164369819Y-142567982D02*
X164322200Y-142663220D01*
X164369819Y-141615601D02*
X164322200Y-141710839D01*
X164322200Y-141710839D02*
X164274580Y-141758458D01*
X164274580Y-141758458D02*
X164179342Y-141806077D01*
X164179342Y-141806077D02*
X163893628Y-141806077D01*
X163893628Y-141806077D02*
X163798390Y-141758458D01*
X163798390Y-141758458D02*
X163750771Y-141710839D01*
X163750771Y-141710839D02*
X163703152Y-141615601D01*
X163703152Y-141615601D02*
X163703152Y-141472744D01*
X163703152Y-141472744D02*
X163750771Y-141377506D01*
X163750771Y-141377506D02*
X163798390Y-141329887D01*
X163798390Y-141329887D02*
X163893628Y-141282268D01*
X163893628Y-141282268D02*
X164179342Y-141282268D01*
X164179342Y-141282268D02*
X164274580Y-141329887D01*
X164274580Y-141329887D02*
X164322200Y-141377506D01*
X164322200Y-141377506D02*
X164369819Y-141472744D01*
X164369819Y-141472744D02*
X164369819Y-141615601D01*
X163703152Y-140948934D02*
X164369819Y-140758458D01*
X164369819Y-140758458D02*
X163893628Y-140567982D01*
X163893628Y-140567982D02*
X164369819Y-140377506D01*
X164369819Y-140377506D02*
X163703152Y-140187030D01*
X164322200Y-139425125D02*
X164369819Y-139520363D01*
X164369819Y-139520363D02*
X164369819Y-139710839D01*
X164369819Y-139710839D02*
X164322200Y-139806077D01*
X164322200Y-139806077D02*
X164226961Y-139853696D01*
X164226961Y-139853696D02*
X163846009Y-139853696D01*
X163846009Y-139853696D02*
X163750771Y-139806077D01*
X163750771Y-139806077D02*
X163703152Y-139710839D01*
X163703152Y-139710839D02*
X163703152Y-139520363D01*
X163703152Y-139520363D02*
X163750771Y-139425125D01*
X163750771Y-139425125D02*
X163846009Y-139377506D01*
X163846009Y-139377506D02*
X163941247Y-139377506D01*
X163941247Y-139377506D02*
X164036485Y-139853696D01*
X164369819Y-138948934D02*
X163703152Y-138948934D01*
X163893628Y-138948934D02*
X163798390Y-138901315D01*
X163798390Y-138901315D02*
X163750771Y-138853696D01*
X163750771Y-138853696D02*
X163703152Y-138758458D01*
X163703152Y-138758458D02*
X163703152Y-138663220D01*
X131249819Y-124369411D02*
X131249819Y-124940839D01*
X131249819Y-124655125D02*
X130249819Y-124655125D01*
X130249819Y-124655125D02*
X130392676Y-124750363D01*
X130392676Y-124750363D02*
X130487914Y-124845601D01*
X130487914Y-124845601D02*
X130535533Y-124940839D01*
X130249819Y-123750363D02*
X130249819Y-123655125D01*
X130249819Y-123655125D02*
X130297438Y-123559887D01*
X130297438Y-123559887D02*
X130345057Y-123512268D01*
X130345057Y-123512268D02*
X130440295Y-123464649D01*
X130440295Y-123464649D02*
X130630771Y-123417030D01*
X130630771Y-123417030D02*
X130868866Y-123417030D01*
X130868866Y-123417030D02*
X131059342Y-123464649D01*
X131059342Y-123464649D02*
X131154580Y-123512268D01*
X131154580Y-123512268D02*
X131202200Y-123559887D01*
X131202200Y-123559887D02*
X131249819Y-123655125D01*
X131249819Y-123655125D02*
X131249819Y-123750363D01*
X131249819Y-123750363D02*
X131202200Y-123845601D01*
X131202200Y-123845601D02*
X131154580Y-123893220D01*
X131154580Y-123893220D02*
X131059342Y-123940839D01*
X131059342Y-123940839D02*
X130868866Y-123988458D01*
X130868866Y-123988458D02*
X130630771Y-123988458D01*
X130630771Y-123988458D02*
X130440295Y-123940839D01*
X130440295Y-123940839D02*
X130345057Y-123893220D01*
X130345057Y-123893220D02*
X130297438Y-123845601D01*
X130297438Y-123845601D02*
X130249819Y-123750363D01*
X131249819Y-122988458D02*
X130249819Y-122988458D01*
X130868866Y-122893220D02*
X131249819Y-122607506D01*
X130583152Y-122607506D02*
X130964104Y-122988458D01*
D11*
X152119047Y-87933609D02*
X152261904Y-87981228D01*
X152261904Y-87981228D02*
X152309523Y-88028847D01*
X152309523Y-88028847D02*
X152357142Y-88124085D01*
X152357142Y-88124085D02*
X152357142Y-88266942D01*
X152357142Y-88266942D02*
X152309523Y-88362180D01*
X152309523Y-88362180D02*
X152261904Y-88409800D01*
X152261904Y-88409800D02*
X152166666Y-88457419D01*
X152166666Y-88457419D02*
X151785714Y-88457419D01*
X151785714Y-88457419D02*
X151785714Y-87457419D01*
X151785714Y-87457419D02*
X152119047Y-87457419D01*
X152119047Y-87457419D02*
X152214285Y-87505038D01*
X152214285Y-87505038D02*
X152261904Y-87552657D01*
X152261904Y-87552657D02*
X152309523Y-87647895D01*
X152309523Y-87647895D02*
X152309523Y-87743133D01*
X152309523Y-87743133D02*
X152261904Y-87838371D01*
X152261904Y-87838371D02*
X152214285Y-87885990D01*
X152214285Y-87885990D02*
X152119047Y-87933609D01*
X152119047Y-87933609D02*
X151785714Y-87933609D01*
X152690476Y-87457419D02*
X153357142Y-87457419D01*
X153357142Y-87457419D02*
X152690476Y-88457419D01*
X152690476Y-88457419D02*
X153357142Y-88457419D01*
X154261904Y-88457419D02*
X153690476Y-88457419D01*
X153976190Y-88457419D02*
X153976190Y-87457419D01*
X153976190Y-87457419D02*
X153880952Y-87600276D01*
X153880952Y-87600276D02*
X153785714Y-87695514D01*
X153785714Y-87695514D02*
X153690476Y-87743133D01*
D10*
X159954819Y-114666666D02*
X159478628Y-114999999D01*
X159954819Y-115238094D02*
X158954819Y-115238094D01*
X158954819Y-115238094D02*
X158954819Y-114857142D01*
X158954819Y-114857142D02*
X159002438Y-114761904D01*
X159002438Y-114761904D02*
X159050057Y-114714285D01*
X159050057Y-114714285D02*
X159145295Y-114666666D01*
X159145295Y-114666666D02*
X159288152Y-114666666D01*
X159288152Y-114666666D02*
X159383390Y-114714285D01*
X159383390Y-114714285D02*
X159431009Y-114761904D01*
X159431009Y-114761904D02*
X159478628Y-114857142D01*
X159478628Y-114857142D02*
X159478628Y-115238094D01*
X159954819Y-113714285D02*
X159954819Y-114285713D01*
X159954819Y-113999999D02*
X158954819Y-113999999D01*
X158954819Y-113999999D02*
X159097676Y-114095237D01*
X159097676Y-114095237D02*
X159192914Y-114190475D01*
X159192914Y-114190475D02*
X159240533Y-114285713D01*
D11*
X122998095Y-104517419D02*
X122998095Y-105326942D01*
X122998095Y-105326942D02*
X123045714Y-105422180D01*
X123045714Y-105422180D02*
X123093333Y-105469800D01*
X123093333Y-105469800D02*
X123188571Y-105517419D01*
X123188571Y-105517419D02*
X123379047Y-105517419D01*
X123379047Y-105517419D02*
X123474285Y-105469800D01*
X123474285Y-105469800D02*
X123521904Y-105422180D01*
X123521904Y-105422180D02*
X123569523Y-105326942D01*
X123569523Y-105326942D02*
X123569523Y-104517419D01*
X124569523Y-105517419D02*
X123998095Y-105517419D01*
X124283809Y-105517419D02*
X124283809Y-104517419D01*
X124283809Y-104517419D02*
X124188571Y-104660276D01*
X124188571Y-104660276D02*
X124093333Y-104755514D01*
X124093333Y-104755514D02*
X123998095Y-104803133D01*
D10*
X154904819Y-128083333D02*
X155619104Y-128083333D01*
X155619104Y-128083333D02*
X155761961Y-128130952D01*
X155761961Y-128130952D02*
X155857200Y-128226190D01*
X155857200Y-128226190D02*
X155904819Y-128369047D01*
X155904819Y-128369047D02*
X155904819Y-128464285D01*
X155000057Y-127654761D02*
X154952438Y-127607142D01*
X154952438Y-127607142D02*
X154904819Y-127511904D01*
X154904819Y-127511904D02*
X154904819Y-127273809D01*
X154904819Y-127273809D02*
X154952438Y-127178571D01*
X154952438Y-127178571D02*
X155000057Y-127130952D01*
X155000057Y-127130952D02*
X155095295Y-127083333D01*
X155095295Y-127083333D02*
X155190533Y-127083333D01*
X155190533Y-127083333D02*
X155333390Y-127130952D01*
X155333390Y-127130952D02*
X155904819Y-127702380D01*
X155904819Y-127702380D02*
X155904819Y-127083333D01*
X148708333Y-119859580D02*
X148660714Y-119907200D01*
X148660714Y-119907200D02*
X148517857Y-119954819D01*
X148517857Y-119954819D02*
X148422619Y-119954819D01*
X148422619Y-119954819D02*
X148279762Y-119907200D01*
X148279762Y-119907200D02*
X148184524Y-119811961D01*
X148184524Y-119811961D02*
X148136905Y-119716723D01*
X148136905Y-119716723D02*
X148089286Y-119526247D01*
X148089286Y-119526247D02*
X148089286Y-119383390D01*
X148089286Y-119383390D02*
X148136905Y-119192914D01*
X148136905Y-119192914D02*
X148184524Y-119097676D01*
X148184524Y-119097676D02*
X148279762Y-119002438D01*
X148279762Y-119002438D02*
X148422619Y-118954819D01*
X148422619Y-118954819D02*
X148517857Y-118954819D01*
X148517857Y-118954819D02*
X148660714Y-119002438D01*
X148660714Y-119002438D02*
X148708333Y-119050057D01*
X149660714Y-119954819D02*
X149089286Y-119954819D01*
X149375000Y-119954819D02*
X149375000Y-118954819D01*
X149375000Y-118954819D02*
X149279762Y-119097676D01*
X149279762Y-119097676D02*
X149184524Y-119192914D01*
X149184524Y-119192914D02*
X149089286Y-119240533D01*
X164904819Y-117583333D02*
X165619104Y-117583333D01*
X165619104Y-117583333D02*
X165761961Y-117630952D01*
X165761961Y-117630952D02*
X165857200Y-117726190D01*
X165857200Y-117726190D02*
X165904819Y-117869047D01*
X165904819Y-117869047D02*
X165904819Y-117964285D01*
X165904819Y-116583333D02*
X165904819Y-117154761D01*
X165904819Y-116869047D02*
X164904819Y-116869047D01*
X164904819Y-116869047D02*
X165047676Y-116964285D01*
X165047676Y-116964285D02*
X165142914Y-117059523D01*
X165142914Y-117059523D02*
X165190533Y-117154761D01*
X117084819Y-128666666D02*
X116608628Y-128999999D01*
X117084819Y-129238094D02*
X116084819Y-129238094D01*
X116084819Y-129238094D02*
X116084819Y-128857142D01*
X116084819Y-128857142D02*
X116132438Y-128761904D01*
X116132438Y-128761904D02*
X116180057Y-128714285D01*
X116180057Y-128714285D02*
X116275295Y-128666666D01*
X116275295Y-128666666D02*
X116418152Y-128666666D01*
X116418152Y-128666666D02*
X116513390Y-128714285D01*
X116513390Y-128714285D02*
X116561009Y-128761904D01*
X116561009Y-128761904D02*
X116608628Y-128857142D01*
X116608628Y-128857142D02*
X116608628Y-129238094D01*
X116418152Y-127809523D02*
X117084819Y-127809523D01*
X116037200Y-128047618D02*
X116751485Y-128285713D01*
X116751485Y-128285713D02*
X116751485Y-127666666D01*
X164904819Y-94583333D02*
X165619104Y-94583333D01*
X165619104Y-94583333D02*
X165761961Y-94630952D01*
X165761961Y-94630952D02*
X165857200Y-94726190D01*
X165857200Y-94726190D02*
X165904819Y-94869047D01*
X165904819Y-94869047D02*
X165904819Y-94964285D01*
X164904819Y-94202380D02*
X164904819Y-93583333D01*
X164904819Y-93583333D02*
X165285771Y-93916666D01*
X165285771Y-93916666D02*
X165285771Y-93773809D01*
X165285771Y-93773809D02*
X165333390Y-93678571D01*
X165333390Y-93678571D02*
X165381009Y-93630952D01*
X165381009Y-93630952D02*
X165476247Y-93583333D01*
X165476247Y-93583333D02*
X165714342Y-93583333D01*
X165714342Y-93583333D02*
X165809580Y-93630952D01*
X165809580Y-93630952D02*
X165857200Y-93678571D01*
X165857200Y-93678571D02*
X165904819Y-93773809D01*
X165904819Y-93773809D02*
X165904819Y-94059523D01*
X165904819Y-94059523D02*
X165857200Y-94154761D01*
X165857200Y-94154761D02*
X165809580Y-94202380D01*
D11*
X133409800Y-140833332D02*
X133457419Y-140690475D01*
X133457419Y-140690475D02*
X133457419Y-140452380D01*
X133457419Y-140452380D02*
X133409800Y-140357142D01*
X133409800Y-140357142D02*
X133362180Y-140309523D01*
X133362180Y-140309523D02*
X133266942Y-140261904D01*
X133266942Y-140261904D02*
X133171704Y-140261904D01*
X133171704Y-140261904D02*
X133076466Y-140309523D01*
X133076466Y-140309523D02*
X133028847Y-140357142D01*
X133028847Y-140357142D02*
X132981228Y-140452380D01*
X132981228Y-140452380D02*
X132933609Y-140642856D01*
X132933609Y-140642856D02*
X132885990Y-140738094D01*
X132885990Y-140738094D02*
X132838371Y-140785713D01*
X132838371Y-140785713D02*
X132743133Y-140833332D01*
X132743133Y-140833332D02*
X132647895Y-140833332D01*
X132647895Y-140833332D02*
X132552657Y-140785713D01*
X132552657Y-140785713D02*
X132505038Y-140738094D01*
X132505038Y-140738094D02*
X132457419Y-140642856D01*
X132457419Y-140642856D02*
X132457419Y-140404761D01*
X132457419Y-140404761D02*
X132505038Y-140261904D01*
X132457419Y-139928570D02*
X133457419Y-139690475D01*
X133457419Y-139690475D02*
X132743133Y-139499999D01*
X132743133Y-139499999D02*
X133457419Y-139309523D01*
X133457419Y-139309523D02*
X132457419Y-139071428D01*
X132552657Y-138738094D02*
X132505038Y-138690475D01*
X132505038Y-138690475D02*
X132457419Y-138595237D01*
X132457419Y-138595237D02*
X132457419Y-138357142D01*
X132457419Y-138357142D02*
X132505038Y-138261904D01*
X132505038Y-138261904D02*
X132552657Y-138214285D01*
X132552657Y-138214285D02*
X132647895Y-138166666D01*
X132647895Y-138166666D02*
X132743133Y-138166666D01*
X132743133Y-138166666D02*
X132885990Y-138214285D01*
X132885990Y-138214285D02*
X133457419Y-138785713D01*
X133457419Y-138785713D02*
X133457419Y-138166666D01*
X150928095Y-99957419D02*
X150928095Y-100766942D01*
X150928095Y-100766942D02*
X150975714Y-100862180D01*
X150975714Y-100862180D02*
X151023333Y-100909800D01*
X151023333Y-100909800D02*
X151118571Y-100957419D01*
X151118571Y-100957419D02*
X151309047Y-100957419D01*
X151309047Y-100957419D02*
X151404285Y-100909800D01*
X151404285Y-100909800D02*
X151451904Y-100862180D01*
X151451904Y-100862180D02*
X151499523Y-100766942D01*
X151499523Y-100766942D02*
X151499523Y-99957419D01*
X151928095Y-100052657D02*
X151975714Y-100005038D01*
X151975714Y-100005038D02*
X152070952Y-99957419D01*
X152070952Y-99957419D02*
X152309047Y-99957419D01*
X152309047Y-99957419D02*
X152404285Y-100005038D01*
X152404285Y-100005038D02*
X152451904Y-100052657D01*
X152451904Y-100052657D02*
X152499523Y-100147895D01*
X152499523Y-100147895D02*
X152499523Y-100243133D01*
X152499523Y-100243133D02*
X152451904Y-100385990D01*
X152451904Y-100385990D02*
X151880476Y-100957419D01*
X151880476Y-100957419D02*
X152499523Y-100957419D01*
X142666667Y-137909800D02*
X142809524Y-137957419D01*
X142809524Y-137957419D02*
X143047619Y-137957419D01*
X143047619Y-137957419D02*
X143142857Y-137909800D01*
X143142857Y-137909800D02*
X143190476Y-137862180D01*
X143190476Y-137862180D02*
X143238095Y-137766942D01*
X143238095Y-137766942D02*
X143238095Y-137671704D01*
X143238095Y-137671704D02*
X143190476Y-137576466D01*
X143190476Y-137576466D02*
X143142857Y-137528847D01*
X143142857Y-137528847D02*
X143047619Y-137481228D01*
X143047619Y-137481228D02*
X142857143Y-137433609D01*
X142857143Y-137433609D02*
X142761905Y-137385990D01*
X142761905Y-137385990D02*
X142714286Y-137338371D01*
X142714286Y-137338371D02*
X142666667Y-137243133D01*
X142666667Y-137243133D02*
X142666667Y-137147895D01*
X142666667Y-137147895D02*
X142714286Y-137052657D01*
X142714286Y-137052657D02*
X142761905Y-137005038D01*
X142761905Y-137005038D02*
X142857143Y-136957419D01*
X142857143Y-136957419D02*
X143095238Y-136957419D01*
X143095238Y-136957419D02*
X143238095Y-137005038D01*
X143571429Y-136957419D02*
X143809524Y-137957419D01*
X143809524Y-137957419D02*
X144000000Y-137243133D01*
X144000000Y-137243133D02*
X144190476Y-137957419D01*
X144190476Y-137957419D02*
X144428572Y-136957419D01*
X145333333Y-137957419D02*
X144761905Y-137957419D01*
X145047619Y-137957419D02*
X145047619Y-136957419D01*
X145047619Y-136957419D02*
X144952381Y-137100276D01*
X144952381Y-137100276D02*
X144857143Y-137195514D01*
X144857143Y-137195514D02*
X144761905Y-137243133D01*
D10*
X164904819Y-128833333D02*
X165619104Y-128833333D01*
X165619104Y-128833333D02*
X165761961Y-128880952D01*
X165761961Y-128880952D02*
X165857200Y-128976190D01*
X165857200Y-128976190D02*
X165904819Y-129119047D01*
X165904819Y-129119047D02*
X165904819Y-129214285D01*
X164904819Y-127928571D02*
X164904819Y-128119047D01*
X164904819Y-128119047D02*
X164952438Y-128214285D01*
X164952438Y-128214285D02*
X165000057Y-128261904D01*
X165000057Y-128261904D02*
X165142914Y-128357142D01*
X165142914Y-128357142D02*
X165333390Y-128404761D01*
X165333390Y-128404761D02*
X165714342Y-128404761D01*
X165714342Y-128404761D02*
X165809580Y-128357142D01*
X165809580Y-128357142D02*
X165857200Y-128309523D01*
X165857200Y-128309523D02*
X165904819Y-128214285D01*
X165904819Y-128214285D02*
X165904819Y-128023809D01*
X165904819Y-128023809D02*
X165857200Y-127928571D01*
X165857200Y-127928571D02*
X165809580Y-127880952D01*
X165809580Y-127880952D02*
X165714342Y-127833333D01*
X165714342Y-127833333D02*
X165476247Y-127833333D01*
X165476247Y-127833333D02*
X165381009Y-127880952D01*
X165381009Y-127880952D02*
X165333390Y-127928571D01*
X165333390Y-127928571D02*
X165285771Y-128023809D01*
X165285771Y-128023809D02*
X165285771Y-128214285D01*
X165285771Y-128214285D02*
X165333390Y-128309523D01*
X165333390Y-128309523D02*
X165381009Y-128357142D01*
X165381009Y-128357142D02*
X165476247Y-128404761D01*
X124084819Y-128666666D02*
X123608628Y-128999999D01*
X124084819Y-129238094D02*
X123084819Y-129238094D01*
X123084819Y-129238094D02*
X123084819Y-128857142D01*
X123084819Y-128857142D02*
X123132438Y-128761904D01*
X123132438Y-128761904D02*
X123180057Y-128714285D01*
X123180057Y-128714285D02*
X123275295Y-128666666D01*
X123275295Y-128666666D02*
X123418152Y-128666666D01*
X123418152Y-128666666D02*
X123513390Y-128714285D01*
X123513390Y-128714285D02*
X123561009Y-128761904D01*
X123561009Y-128761904D02*
X123608628Y-128857142D01*
X123608628Y-128857142D02*
X123608628Y-129238094D01*
X123084819Y-128333332D02*
X123084819Y-127714285D01*
X123084819Y-127714285D02*
X123465771Y-128047618D01*
X123465771Y-128047618D02*
X123465771Y-127904761D01*
X123465771Y-127904761D02*
X123513390Y-127809523D01*
X123513390Y-127809523D02*
X123561009Y-127761904D01*
X123561009Y-127761904D02*
X123656247Y-127714285D01*
X123656247Y-127714285D02*
X123894342Y-127714285D01*
X123894342Y-127714285D02*
X123989580Y-127761904D01*
X123989580Y-127761904D02*
X124037200Y-127809523D01*
X124037200Y-127809523D02*
X124084819Y-127904761D01*
X124084819Y-127904761D02*
X124084819Y-128190475D01*
X124084819Y-128190475D02*
X124037200Y-128285713D01*
X124037200Y-128285713D02*
X123989580Y-128333332D01*
D11*
X142957419Y-123761904D02*
X143766942Y-123761904D01*
X143766942Y-123761904D02*
X143862180Y-123714285D01*
X143862180Y-123714285D02*
X143909800Y-123666666D01*
X143909800Y-123666666D02*
X143957419Y-123571428D01*
X143957419Y-123571428D02*
X143957419Y-123380952D01*
X143957419Y-123380952D02*
X143909800Y-123285714D01*
X143909800Y-123285714D02*
X143862180Y-123238095D01*
X143862180Y-123238095D02*
X143766942Y-123190476D01*
X143766942Y-123190476D02*
X142957419Y-123190476D01*
X142957419Y-122809523D02*
X142957419Y-122190476D01*
X142957419Y-122190476D02*
X143338371Y-122523809D01*
X143338371Y-122523809D02*
X143338371Y-122380952D01*
X143338371Y-122380952D02*
X143385990Y-122285714D01*
X143385990Y-122285714D02*
X143433609Y-122238095D01*
X143433609Y-122238095D02*
X143528847Y-122190476D01*
X143528847Y-122190476D02*
X143766942Y-122190476D01*
X143766942Y-122190476D02*
X143862180Y-122238095D01*
X143862180Y-122238095D02*
X143909800Y-122285714D01*
X143909800Y-122285714D02*
X143957419Y-122380952D01*
X143957419Y-122380952D02*
X143957419Y-122666666D01*
X143957419Y-122666666D02*
X143909800Y-122761904D01*
X143909800Y-122761904D02*
X143862180Y-122809523D01*
D10*
X122244819Y-141508094D02*
X121244819Y-141508094D01*
X121244819Y-141508094D02*
X121244819Y-141269999D01*
X121244819Y-141269999D02*
X121292438Y-141127142D01*
X121292438Y-141127142D02*
X121387676Y-141031904D01*
X121387676Y-141031904D02*
X121482914Y-140984285D01*
X121482914Y-140984285D02*
X121673390Y-140936666D01*
X121673390Y-140936666D02*
X121816247Y-140936666D01*
X121816247Y-140936666D02*
X122006723Y-140984285D01*
X122006723Y-140984285D02*
X122101961Y-141031904D01*
X122101961Y-141031904D02*
X122197200Y-141127142D01*
X122197200Y-141127142D02*
X122244819Y-141269999D01*
X122244819Y-141269999D02*
X122244819Y-141508094D01*
X122244819Y-139984285D02*
X122244819Y-140555713D01*
X122244819Y-140269999D02*
X121244819Y-140269999D01*
X121244819Y-140269999D02*
X121387676Y-140365237D01*
X121387676Y-140365237D02*
X121482914Y-140460475D01*
X121482914Y-140460475D02*
X121530533Y-140555713D01*
X130954819Y-128666666D02*
X130478628Y-128999999D01*
X130954819Y-129238094D02*
X129954819Y-129238094D01*
X129954819Y-129238094D02*
X129954819Y-128857142D01*
X129954819Y-128857142D02*
X130002438Y-128761904D01*
X130002438Y-128761904D02*
X130050057Y-128714285D01*
X130050057Y-128714285D02*
X130145295Y-128666666D01*
X130145295Y-128666666D02*
X130288152Y-128666666D01*
X130288152Y-128666666D02*
X130383390Y-128714285D01*
X130383390Y-128714285D02*
X130431009Y-128761904D01*
X130431009Y-128761904D02*
X130478628Y-128857142D01*
X130478628Y-128857142D02*
X130478628Y-129238094D01*
X130050057Y-128285713D02*
X130002438Y-128238094D01*
X130002438Y-128238094D02*
X129954819Y-128142856D01*
X129954819Y-128142856D02*
X129954819Y-127904761D01*
X129954819Y-127904761D02*
X130002438Y-127809523D01*
X130002438Y-127809523D02*
X130050057Y-127761904D01*
X130050057Y-127761904D02*
X130145295Y-127714285D01*
X130145295Y-127714285D02*
X130240533Y-127714285D01*
X130240533Y-127714285D02*
X130383390Y-127761904D01*
X130383390Y-127761904D02*
X130954819Y-128333332D01*
X130954819Y-128333332D02*
X130954819Y-127714285D01*
X164904819Y-106083333D02*
X165619104Y-106083333D01*
X165619104Y-106083333D02*
X165761961Y-106130952D01*
X165761961Y-106130952D02*
X165857200Y-106226190D01*
X165857200Y-106226190D02*
X165904819Y-106369047D01*
X165904819Y-106369047D02*
X165904819Y-106464285D01*
X164904819Y-105130952D02*
X164904819Y-105607142D01*
X164904819Y-105607142D02*
X165381009Y-105654761D01*
X165381009Y-105654761D02*
X165333390Y-105607142D01*
X165333390Y-105607142D02*
X165285771Y-105511904D01*
X165285771Y-105511904D02*
X165285771Y-105273809D01*
X165285771Y-105273809D02*
X165333390Y-105178571D01*
X165333390Y-105178571D02*
X165381009Y-105130952D01*
X165381009Y-105130952D02*
X165476247Y-105083333D01*
X165476247Y-105083333D02*
X165714342Y-105083333D01*
X165714342Y-105083333D02*
X165809580Y-105130952D01*
X165809580Y-105130952D02*
X165857200Y-105178571D01*
X165857200Y-105178571D02*
X165904819Y-105273809D01*
X165904819Y-105273809D02*
X165904819Y-105511904D01*
X165904819Y-105511904D02*
X165857200Y-105607142D01*
X165857200Y-105607142D02*
X165809580Y-105654761D01*
X158666666Y-135904819D02*
X158666666Y-136619104D01*
X158666666Y-136619104D02*
X158619047Y-136761961D01*
X158619047Y-136761961D02*
X158523809Y-136857200D01*
X158523809Y-136857200D02*
X158380952Y-136904819D01*
X158380952Y-136904819D02*
X158285714Y-136904819D01*
X159047619Y-135904819D02*
X159714285Y-135904819D01*
X159714285Y-135904819D02*
X159285714Y-136904819D01*
X113994819Y-141468094D02*
X112994819Y-141468094D01*
X112994819Y-141468094D02*
X112994819Y-141229999D01*
X112994819Y-141229999D02*
X113042438Y-141087142D01*
X113042438Y-141087142D02*
X113137676Y-140991904D01*
X113137676Y-140991904D02*
X113232914Y-140944285D01*
X113232914Y-140944285D02*
X113423390Y-140896666D01*
X113423390Y-140896666D02*
X113566247Y-140896666D01*
X113566247Y-140896666D02*
X113756723Y-140944285D01*
X113756723Y-140944285D02*
X113851961Y-140991904D01*
X113851961Y-140991904D02*
X113947200Y-141087142D01*
X113947200Y-141087142D02*
X113994819Y-141229999D01*
X113994819Y-141229999D02*
X113994819Y-141468094D01*
X113090057Y-140515713D02*
X113042438Y-140468094D01*
X113042438Y-140468094D02*
X112994819Y-140372856D01*
X112994819Y-140372856D02*
X112994819Y-140134761D01*
X112994819Y-140134761D02*
X113042438Y-140039523D01*
X113042438Y-140039523D02*
X113090057Y-139991904D01*
X113090057Y-139991904D02*
X113185295Y-139944285D01*
X113185295Y-139944285D02*
X113280533Y-139944285D01*
X113280533Y-139944285D02*
X113423390Y-139991904D01*
X113423390Y-139991904D02*
X113994819Y-140563332D01*
X113994819Y-140563332D02*
X113994819Y-139944285D01*
X148833333Y-136359580D02*
X148785714Y-136407200D01*
X148785714Y-136407200D02*
X148642857Y-136454819D01*
X148642857Y-136454819D02*
X148547619Y-136454819D01*
X148547619Y-136454819D02*
X148404762Y-136407200D01*
X148404762Y-136407200D02*
X148309524Y-136311961D01*
X148309524Y-136311961D02*
X148261905Y-136216723D01*
X148261905Y-136216723D02*
X148214286Y-136026247D01*
X148214286Y-136026247D02*
X148214286Y-135883390D01*
X148214286Y-135883390D02*
X148261905Y-135692914D01*
X148261905Y-135692914D02*
X148309524Y-135597676D01*
X148309524Y-135597676D02*
X148404762Y-135502438D01*
X148404762Y-135502438D02*
X148547619Y-135454819D01*
X148547619Y-135454819D02*
X148642857Y-135454819D01*
X148642857Y-135454819D02*
X148785714Y-135502438D01*
X148785714Y-135502438D02*
X148833333Y-135550057D01*
X149214286Y-135550057D02*
X149261905Y-135502438D01*
X149261905Y-135502438D02*
X149357143Y-135454819D01*
X149357143Y-135454819D02*
X149595238Y-135454819D01*
X149595238Y-135454819D02*
X149690476Y-135502438D01*
X149690476Y-135502438D02*
X149738095Y-135550057D01*
X149738095Y-135550057D02*
X149785714Y-135645295D01*
X149785714Y-135645295D02*
X149785714Y-135740533D01*
X149785714Y-135740533D02*
X149738095Y-135883390D01*
X149738095Y-135883390D02*
X149166667Y-136454819D01*
X149166667Y-136454819D02*
X149785714Y-136454819D01*
D11*
X165000000Y-87500000D02*
G75*
G03*
X165000000Y-87500000I-11000000J0D01*
G01*
D12*
X163370000Y-111540000D02*
X163370000Y-118080000D01*
X163040000Y-111540000D02*
X163370000Y-111540000D01*
X160960000Y-111540000D02*
X160630000Y-111540000D01*
X160630000Y-111540000D02*
X160630000Y-118080000D01*
X163370000Y-118080000D02*
X163040000Y-118080000D01*
X160630000Y-118080000D02*
X160960000Y-118080000D01*
D11*
X116140000Y-75114600D02*
X136460000Y-75114600D01*
X136460000Y-75114600D02*
X136460000Y-82760000D01*
X136460000Y-82760000D02*
X116140000Y-82760000D01*
X116140000Y-82760000D02*
X116140000Y-75114600D01*
X112350000Y-82820000D02*
X140250000Y-82820000D01*
X140250000Y-82820000D02*
X140250000Y-133560000D01*
X140250000Y-133560000D02*
X112350000Y-133560000D01*
X112350000Y-133560000D02*
X112350000Y-82820000D01*
X114108000Y-82887000D02*
X112330000Y-84665000D01*
D12*
X156250000Y-134350000D02*
X157500000Y-134350000D01*
X156540000Y-134060000D02*
X162510000Y-134060000D01*
X162510000Y-134060000D02*
X162510000Y-121440000D01*
X156550000Y-134050000D02*
X157300000Y-134050000D01*
X157300000Y-134050000D02*
X157300000Y-132250000D01*
X158800000Y-134050000D02*
X158800000Y-133300000D01*
X158800000Y-133300000D02*
X161750000Y-133300000D01*
X161750000Y-133300000D02*
X161750000Y-127750000D01*
X156250000Y-133100000D02*
X156250000Y-134350000D01*
X156550000Y-132250000D02*
X156550000Y-134050000D01*
X157300000Y-132250000D02*
X156550000Y-132250000D01*
X156550000Y-130750000D02*
X157300000Y-130750000D01*
X157300000Y-130750000D02*
X157300000Y-124750000D01*
X156550000Y-124750000D02*
X156550000Y-130750000D01*
X157300000Y-124750000D02*
X156550000Y-124750000D01*
X156550000Y-123250000D02*
X157300000Y-123250000D01*
X157300000Y-123250000D02*
X157300000Y-121450000D01*
X158800000Y-122200000D02*
X161750000Y-122200000D01*
X161750000Y-122200000D02*
X161750000Y-127750000D01*
X156550000Y-121450000D02*
X156550000Y-123250000D01*
X157300000Y-121450000D02*
X156550000Y-121450000D01*
X158800000Y-121450000D02*
X158800000Y-122200000D01*
X156540000Y-121440000D02*
X156540000Y-134060000D01*
X162510000Y-121440000D02*
X156540000Y-121440000D01*
X152495000Y-123320000D02*
X152495000Y-120580000D01*
X152495000Y-123320000D02*
X145255000Y-123320000D01*
X152495000Y-120580000D02*
X145255000Y-120580000D01*
X145255000Y-123320000D02*
X145255000Y-120580000D01*
X166250000Y-121350000D02*
X167500000Y-121350000D01*
X166540000Y-121060000D02*
X172510000Y-121060000D01*
X172510000Y-121060000D02*
X172510000Y-113440000D01*
X166550000Y-121050000D02*
X167300000Y-121050000D01*
X167300000Y-121050000D02*
X167300000Y-119250000D01*
X168800000Y-121050000D02*
X168800000Y-120300000D01*
X168800000Y-120300000D02*
X171750000Y-120300000D01*
X171750000Y-120300000D02*
X171750000Y-117250000D01*
X166250000Y-120100000D02*
X166250000Y-121350000D01*
X166550000Y-119250000D02*
X166550000Y-121050000D01*
X167300000Y-119250000D02*
X166550000Y-119250000D01*
X166550000Y-117750000D02*
X167300000Y-117750000D01*
X167300000Y-117750000D02*
X167300000Y-116750000D01*
X166550000Y-116750000D02*
X166550000Y-117750000D01*
X167300000Y-116750000D02*
X166550000Y-116750000D01*
X166550000Y-115250000D02*
X167300000Y-115250000D01*
X167300000Y-115250000D02*
X167300000Y-113450000D01*
X168800000Y-114200000D02*
X171750000Y-114200000D01*
X171750000Y-114200000D02*
X171750000Y-117250000D01*
X166550000Y-113450000D02*
X166550000Y-115250000D01*
X167300000Y-113450000D02*
X166550000Y-113450000D01*
X168800000Y-113450000D02*
X168800000Y-114200000D01*
X166540000Y-113440000D02*
X166540000Y-121060000D01*
X172510000Y-113440000D02*
X166540000Y-113440000D01*
X117630000Y-131770000D02*
X117630000Y-125230000D01*
X117960000Y-131770000D02*
X117630000Y-131770000D01*
X120040000Y-131770000D02*
X120370000Y-131770000D01*
X120370000Y-131770000D02*
X120370000Y-125230000D01*
X117630000Y-125230000D02*
X117960000Y-125230000D01*
X120370000Y-125230000D02*
X120040000Y-125230000D01*
X166250000Y-98350000D02*
X167500000Y-98350000D01*
X166540000Y-98060000D02*
X172510000Y-98060000D01*
X172510000Y-98060000D02*
X172510000Y-90440000D01*
X166550000Y-98050000D02*
X167300000Y-98050000D01*
X167300000Y-98050000D02*
X167300000Y-96250000D01*
X168800000Y-98050000D02*
X168800000Y-97300000D01*
X168800000Y-97300000D02*
X171750000Y-97300000D01*
X171750000Y-97300000D02*
X171750000Y-94250000D01*
X166250000Y-97100000D02*
X166250000Y-98350000D01*
X166550000Y-96250000D02*
X166550000Y-98050000D01*
X167300000Y-96250000D02*
X166550000Y-96250000D01*
X166550000Y-94750000D02*
X167300000Y-94750000D01*
X167300000Y-94750000D02*
X167300000Y-93750000D01*
X166550000Y-93750000D02*
X166550000Y-94750000D01*
X167300000Y-93750000D02*
X166550000Y-93750000D01*
X166550000Y-92250000D02*
X167300000Y-92250000D01*
X167300000Y-92250000D02*
X167300000Y-90450000D01*
X168800000Y-91200000D02*
X171750000Y-91200000D01*
X171750000Y-91200000D02*
X171750000Y-94250000D01*
X166550000Y-90450000D02*
X166550000Y-92250000D01*
X167300000Y-90450000D02*
X166550000Y-90450000D01*
X168800000Y-90450000D02*
X168800000Y-91200000D01*
X166540000Y-90440000D02*
X166540000Y-98060000D01*
X172510000Y-90440000D02*
X166540000Y-90440000D01*
D11*
X155373000Y-116683000D02*
X156643000Y-115413000D01*
X156690000Y-101690000D02*
X146690000Y-101690000D01*
X146690000Y-101690000D02*
X146690000Y-116690000D01*
X146690000Y-116690000D02*
X156690000Y-116690000D01*
X156690000Y-116690000D02*
X156690000Y-101690000D01*
X152120000Y-143540000D02*
X141960000Y-143540000D01*
X141960000Y-143540000D02*
X141960000Y-138460000D01*
X141960000Y-138460000D02*
X152120000Y-138460000D01*
X152120000Y-138460000D02*
X152120000Y-143540000D01*
D12*
X166250000Y-133850000D02*
X167500000Y-133850000D01*
X166540000Y-133560000D02*
X172510000Y-133560000D01*
X172510000Y-133560000D02*
X172510000Y-123440000D01*
X166550000Y-133550000D02*
X167300000Y-133550000D01*
X167300000Y-133550000D02*
X167300000Y-131750000D01*
X168800000Y-133550000D02*
X168800000Y-132800000D01*
X168800000Y-132800000D02*
X171750000Y-132800000D01*
X171750000Y-132800000D02*
X171750000Y-128500000D01*
X166250000Y-132600000D02*
X166250000Y-133850000D01*
X166550000Y-131750000D02*
X166550000Y-133550000D01*
X167300000Y-131750000D02*
X166550000Y-131750000D01*
X166550000Y-130250000D02*
X167300000Y-130250000D01*
X167300000Y-130250000D02*
X167300000Y-126750000D01*
X166550000Y-126750000D02*
X166550000Y-130250000D01*
X167300000Y-126750000D02*
X166550000Y-126750000D01*
X166550000Y-125250000D02*
X167300000Y-125250000D01*
X167300000Y-125250000D02*
X167300000Y-123450000D01*
X168800000Y-124200000D02*
X171750000Y-124200000D01*
X171750000Y-124200000D02*
X171750000Y-128500000D01*
X166550000Y-123450000D02*
X166550000Y-125250000D01*
X167300000Y-123450000D02*
X166550000Y-123450000D01*
X168800000Y-123450000D02*
X168800000Y-124200000D01*
X166540000Y-123440000D02*
X166540000Y-133560000D01*
X172510000Y-123440000D02*
X166540000Y-123440000D01*
X124630000Y-131770000D02*
X124630000Y-125230000D01*
X124960000Y-131770000D02*
X124630000Y-131770000D01*
X127040000Y-131770000D02*
X127370000Y-131770000D01*
X127370000Y-131770000D02*
X127370000Y-125230000D01*
X124630000Y-125230000D02*
X124960000Y-125230000D01*
X127370000Y-125230000D02*
X127040000Y-125230000D01*
X124205000Y-143330000D02*
X127295000Y-143330000D01*
X125750462Y-137780001D02*
G75*
G03*
X124205170Y-143329999I-462J-2989999D01*
G01*
X127294830Y-143330000D02*
G75*
G03*
X125749538Y-137780000I-1544830J2560000D01*
G01*
X128250000Y-140770000D02*
G75*
G03*
X128250000Y-140770000I-2500000J0D01*
G01*
X134120000Y-125230000D02*
X134120000Y-131770000D01*
X133790000Y-125230000D02*
X134120000Y-125230000D01*
X131710000Y-125230000D02*
X131380000Y-125230000D01*
X131380000Y-125230000D02*
X131380000Y-131770000D01*
X134120000Y-131770000D02*
X133790000Y-131770000D01*
X131380000Y-131770000D02*
X131710000Y-131770000D01*
X166250000Y-109850000D02*
X167500000Y-109850000D01*
X166540000Y-109560000D02*
X172510000Y-109560000D01*
X172510000Y-109560000D02*
X172510000Y-101940000D01*
X166550000Y-109550000D02*
X167300000Y-109550000D01*
X167300000Y-109550000D02*
X167300000Y-107750000D01*
X168800000Y-109550000D02*
X168800000Y-108800000D01*
X168800000Y-108800000D02*
X171750000Y-108800000D01*
X171750000Y-108800000D02*
X171750000Y-105750000D01*
X166250000Y-108600000D02*
X166250000Y-109850000D01*
X166550000Y-107750000D02*
X166550000Y-109550000D01*
X167300000Y-107750000D02*
X166550000Y-107750000D01*
X166550000Y-106250000D02*
X167300000Y-106250000D01*
X167300000Y-106250000D02*
X167300000Y-105250000D01*
X166550000Y-105250000D02*
X166550000Y-106250000D01*
X167300000Y-105250000D02*
X166550000Y-105250000D01*
X166550000Y-103750000D02*
X167300000Y-103750000D01*
X167300000Y-103750000D02*
X167300000Y-101950000D01*
X168800000Y-102700000D02*
X171750000Y-102700000D01*
X171750000Y-102700000D02*
X171750000Y-105750000D01*
X166550000Y-101950000D02*
X166550000Y-103750000D01*
X167300000Y-101950000D02*
X166550000Y-101950000D01*
X168800000Y-101950000D02*
X168800000Y-102700000D01*
X166540000Y-101940000D02*
X166540000Y-109560000D01*
X172510000Y-101940000D02*
X166540000Y-101940000D01*
X154900000Y-137250000D02*
X154900000Y-138500000D01*
X155190000Y-137540000D02*
X155190000Y-143510000D01*
X155190000Y-143510000D02*
X162810000Y-143510000D01*
X155200000Y-137550000D02*
X155200000Y-138300000D01*
X155200000Y-138300000D02*
X157000000Y-138300000D01*
X155200000Y-139800000D02*
X155950000Y-139800000D01*
X155950000Y-139800000D02*
X155950000Y-142750000D01*
X155950000Y-142750000D02*
X159000000Y-142750000D01*
X156150000Y-137250000D02*
X154900000Y-137250000D01*
X157000000Y-137550000D02*
X155200000Y-137550000D01*
X157000000Y-138300000D02*
X157000000Y-137550000D01*
X158500000Y-137550000D02*
X158500000Y-138300000D01*
X158500000Y-138300000D02*
X159500000Y-138300000D01*
X159500000Y-137550000D02*
X158500000Y-137550000D01*
X159500000Y-138300000D02*
X159500000Y-137550000D01*
X161000000Y-137550000D02*
X161000000Y-138300000D01*
X161000000Y-138300000D02*
X162800000Y-138300000D01*
X162050000Y-139800000D02*
X162050000Y-142750000D01*
X162050000Y-142750000D02*
X159000000Y-142750000D01*
X162800000Y-137550000D02*
X161000000Y-137550000D01*
X162800000Y-138300000D02*
X162800000Y-137550000D01*
X162800000Y-139800000D02*
X162050000Y-139800000D01*
X162810000Y-137540000D02*
X155190000Y-137540000D01*
X162810000Y-143510000D02*
X162810000Y-137540000D01*
X115955000Y-143290000D02*
X119045000Y-143290000D01*
X117500462Y-137740001D02*
G75*
G03*
X115955170Y-143289999I-462J-2989999D01*
G01*
X119044830Y-143290000D02*
G75*
G03*
X117499538Y-137740000I-1544830J2560000D01*
G01*
X120000000Y-140730000D02*
G75*
G03*
X120000000Y-140730000I-2500000J0D01*
G01*
X145255000Y-132080000D02*
X145255000Y-134820000D01*
X145255000Y-132080000D02*
X152495000Y-132080000D01*
X145255000Y-134820000D02*
X152495000Y-134820000D01*
X152495000Y-132080000D02*
X152495000Y-134820000D01*
M02*
