G04 #@! TF.GenerationSoftware,KiCad,Pcbnew,7.0.8*
G04 #@! TF.CreationDate,2023-12-07T12:05:53+09:00*
G04 #@! TF.ProjectId,rat_board,7261745f-626f-4617-9264-2e6b69636164,rev?*
G04 #@! TF.SameCoordinates,Original*
G04 #@! TF.FileFunction,Copper,L2,Bot*
G04 #@! TF.FilePolarity,Positive*
%FSLAX46Y46*%
G04 Gerber Fmt 4.6, Leading zero omitted, Abs format (unit mm)*
G04 Created by KiCad (PCBNEW 7.0.8) date 2023-12-07 12:05:53*
%MOMM*%
%LPD*%
G01*
G04 APERTURE LIST*
G04 Aperture macros list*
%AMRoundRect*
0 Rectangle with rounded corners*
0 $1 Rounding radius*
0 $2 $3 $4 $5 $6 $7 $8 $9 X,Y pos of 4 corners*
0 Add a 4 corners polygon primitive as box body*
4,1,4,$2,$3,$4,$5,$6,$7,$8,$9,$2,$3,0*
0 Add four circle primitives for the rounded corners*
1,1,$1+$1,$2,$3*
1,1,$1+$1,$4,$5*
1,1,$1+$1,$6,$7*
1,1,$1+$1,$8,$9*
0 Add four rect primitives between the rounded corners*
20,1,$1+$1,$2,$3,$4,$5,0*
20,1,$1+$1,$4,$5,$6,$7,0*
20,1,$1+$1,$6,$7,$8,$9,0*
20,1,$1+$1,$8,$9,$2,$3,0*%
G04 Aperture macros list end*
G04 #@! TA.AperFunction,ComponentPad*
%ADD10C,1.700000*%
G04 #@! TD*
G04 #@! TA.AperFunction,ComponentPad*
%ADD11C,1.600000*%
G04 #@! TD*
G04 #@! TA.AperFunction,ComponentPad*
%ADD12O,1.600000X1.600000*%
G04 #@! TD*
G04 #@! TA.AperFunction,ComponentPad*
%ADD13O,1.700000X1.700000*%
G04 #@! TD*
G04 #@! TA.AperFunction,ComponentPad*
%ADD14RoundRect,0.250000X0.725000X-0.600000X0.725000X0.600000X-0.725000X0.600000X-0.725000X-0.600000X0*%
G04 #@! TD*
G04 #@! TA.AperFunction,ComponentPad*
%ADD15O,1.950000X1.700000*%
G04 #@! TD*
G04 #@! TA.AperFunction,ComponentPad*
%ADD16C,6.400000*%
G04 #@! TD*
G04 #@! TA.AperFunction,ComponentPad*
%ADD17RoundRect,0.250000X0.750000X-0.600000X0.750000X0.600000X-0.750000X0.600000X-0.750000X-0.600000X0*%
G04 #@! TD*
G04 #@! TA.AperFunction,ComponentPad*
%ADD18O,2.000000X1.700000*%
G04 #@! TD*
G04 #@! TA.AperFunction,ComponentPad*
%ADD19RoundRect,0.425000X0.425000X-0.425000X0.425000X0.425000X-0.425000X0.425000X-0.425000X-0.425000X0*%
G04 #@! TD*
G04 #@! TA.AperFunction,ComponentPad*
%ADD20RoundRect,0.425000X0.425000X0.425000X-0.425000X0.425000X-0.425000X-0.425000X0.425000X-0.425000X0*%
G04 #@! TD*
G04 #@! TA.AperFunction,ComponentPad*
%ADD21R,1.800000X1.800000*%
G04 #@! TD*
G04 #@! TA.AperFunction,ComponentPad*
%ADD22C,1.800000*%
G04 #@! TD*
G04 #@! TA.AperFunction,ComponentPad*
%ADD23RoundRect,0.250000X-0.600000X-0.750000X0.600000X-0.750000X0.600000X0.750000X-0.600000X0.750000X0*%
G04 #@! TD*
G04 #@! TA.AperFunction,ComponentPad*
%ADD24O,1.700000X2.000000*%
G04 #@! TD*
G04 #@! TA.AperFunction,ViaPad*
%ADD25C,0.800000*%
G04 #@! TD*
G04 #@! TA.AperFunction,Conductor*
%ADD26C,0.250000*%
G04 #@! TD*
G04 #@! TA.AperFunction,Conductor*
%ADD27C,0.400000*%
G04 #@! TD*
G04 APERTURE END LIST*
D10*
X149000000Y-87500000D03*
X159000000Y-87500000D03*
D11*
X162000000Y-111000000D03*
D12*
X162000000Y-118620000D03*
D13*
X139000000Y-85300000D03*
X139000000Y-87840000D03*
X139000000Y-90380000D03*
X139000000Y-92920000D03*
X139000000Y-95460000D03*
X139000000Y-98000000D03*
X139000000Y-100540000D03*
X139000000Y-103080000D03*
X139000000Y-105620000D03*
X139000000Y-108160000D03*
X139000000Y-110700000D03*
X139000000Y-113240000D03*
X139000000Y-115780000D03*
X139000000Y-118320000D03*
X139000000Y-120860000D03*
X139000000Y-123400000D03*
X139000000Y-125940000D03*
X139000000Y-128480000D03*
X139000000Y-131020000D03*
X113600000Y-131020000D03*
X113600000Y-128480000D03*
X113600000Y-125940000D03*
X113600000Y-123400000D03*
X113600000Y-120860000D03*
X113600000Y-118320000D03*
X113600000Y-115780000D03*
X113600000Y-113240000D03*
X113600000Y-110700000D03*
X113600000Y-108160000D03*
X113600000Y-105620000D03*
X113600000Y-103080000D03*
X113600000Y-100540000D03*
X113600000Y-98000000D03*
X113600000Y-95460000D03*
X113600000Y-92920000D03*
X113600000Y-90380000D03*
X113600000Y-87840000D03*
D10*
X113600000Y-85300000D03*
D14*
X159000000Y-131500000D03*
D15*
X159000000Y-129000000D03*
X159000000Y-126500000D03*
X159000000Y-124000000D03*
D16*
X108000000Y-79000000D03*
D11*
X151375000Y-121950000D03*
X146375000Y-121950000D03*
D16*
X108000000Y-141000000D03*
D17*
X169000000Y-118500000D03*
D18*
X169000000Y-116000000D03*
D11*
X119000000Y-132310000D03*
D12*
X119000000Y-124690000D03*
D17*
X169000000Y-95500000D03*
D18*
X169000000Y-93000000D03*
D19*
X135000000Y-142750000D03*
D10*
X135000000Y-136250000D03*
X139500000Y-142750000D03*
X139500000Y-136250000D03*
X155000000Y-115540000D03*
X155000000Y-113000000D03*
X155000000Y-110460000D03*
X155000000Y-107920000D03*
X155000000Y-105380000D03*
X155000000Y-102840000D03*
X148380000Y-102840000D03*
X148380000Y-105380000D03*
X148380000Y-107920000D03*
X148380000Y-110460000D03*
X148380000Y-113000000D03*
X148380000Y-115540000D03*
D20*
X149580000Y-141000000D03*
D10*
X147040000Y-141000000D03*
X144500000Y-141000000D03*
D14*
X169000000Y-131000000D03*
D15*
X169000000Y-128500000D03*
X169000000Y-126000000D03*
D11*
X126000000Y-132310000D03*
D12*
X126000000Y-124690000D03*
D21*
X125750000Y-142040000D03*
D22*
X125750000Y-139500000D03*
D11*
X132750000Y-124690000D03*
D12*
X132750000Y-132310000D03*
D16*
X170000000Y-79000000D03*
X170000000Y-141000000D03*
D17*
X169000000Y-107000000D03*
D18*
X169000000Y-104500000D03*
D23*
X157750000Y-140000000D03*
D24*
X160250000Y-140000000D03*
D21*
X117500000Y-142000000D03*
D22*
X117500000Y-139460000D03*
D11*
X146375000Y-133450000D03*
X151375000Y-133450000D03*
D25*
X130000000Y-132000000D03*
X164000000Y-144000000D03*
X136000000Y-133000000D03*
X153000000Y-114000000D03*
X162000000Y-103000000D03*
X134000000Y-76000000D03*
X105000000Y-135000000D03*
X155000000Y-133000000D03*
X124000000Y-109000000D03*
X122000000Y-88000000D03*
X167000000Y-129000000D03*
X153000000Y-136000000D03*
X114000000Y-76000000D03*
X136000000Y-127000000D03*
X141000000Y-89500000D03*
X144000000Y-144000000D03*
X144000000Y-76000000D03*
X116000000Y-130000000D03*
X166500000Y-92000000D03*
X135000000Y-88000000D03*
X173000000Y-136000000D03*
X154000000Y-76000000D03*
X173000000Y-112000000D03*
X105000000Y-105000000D03*
X142000000Y-128000000D03*
X130000000Y-99000000D03*
X116000000Y-91000000D03*
X142500000Y-97000000D03*
X164000000Y-76000000D03*
X116000000Y-109000000D03*
X173000000Y-85000000D03*
X105000000Y-115000000D03*
X173000000Y-100000000D03*
X105000000Y-125000000D03*
X157000000Y-114000000D03*
X105000000Y-95000000D03*
X116000000Y-120000000D03*
X124000000Y-76000000D03*
X154000000Y-93000000D03*
X154000000Y-144000000D03*
X130000000Y-106000000D03*
X105000000Y-85000000D03*
X130000000Y-123000000D03*
D26*
X169000000Y-118500000D02*
X162120000Y-118500000D01*
X156880000Y-118620000D02*
X162000000Y-118620000D01*
X162120000Y-118500000D02*
X162000000Y-118620000D01*
X152100000Y-123400000D02*
X156880000Y-118620000D01*
X139000000Y-123400000D02*
X152100000Y-123400000D01*
D27*
X162000000Y-111000000D02*
X166500000Y-111000000D01*
X172000000Y-116500000D02*
X172000000Y-130250000D01*
X172000000Y-130250000D02*
X170000000Y-132250000D01*
X153000000Y-117000000D02*
X150000000Y-114000000D01*
X145500000Y-131500000D02*
X144250000Y-132750000D01*
X170000000Y-132250000D02*
X159750000Y-132250000D01*
X156000000Y-117000000D02*
X153000000Y-117000000D01*
X150000000Y-104460000D02*
X148380000Y-102840000D01*
X138750000Y-132750000D02*
X132750000Y-126750000D01*
X144250000Y-132750000D02*
X138750000Y-132750000D01*
X166500000Y-111000000D02*
X172000000Y-116500000D01*
X150000000Y-114000000D02*
X150000000Y-104460000D01*
X162000000Y-111000000D02*
X156000000Y-117000000D01*
X159000000Y-131500000D02*
X145500000Y-131500000D01*
X132750000Y-126750000D02*
X132750000Y-124690000D01*
X159750000Y-132250000D02*
X159000000Y-131500000D01*
X139000000Y-100540000D02*
X137540000Y-100540000D01*
X137540000Y-100540000D02*
X137000000Y-100000000D01*
X140040000Y-100540000D02*
X140500000Y-101000000D01*
X139000000Y-100540000D02*
X140040000Y-100540000D01*
D26*
X132750000Y-134000000D02*
X132750000Y-132310000D01*
X135000000Y-136250000D02*
X132750000Y-134000000D01*
G04 #@! TA.AperFunction,Conductor*
G36*
X170673003Y-116038030D02*
G01*
X170727374Y-116076609D01*
X171341214Y-116690449D01*
X171388333Y-116765437D01*
X171399500Y-116831163D01*
X171399500Y-129918837D01*
X171379793Y-130005180D01*
X171341214Y-130059551D01*
X170715214Y-130685551D01*
X170640226Y-130732670D01*
X170552219Y-130742586D01*
X170468626Y-130713335D01*
X170406002Y-130650711D01*
X170376751Y-130567118D01*
X170375500Y-130544837D01*
X170375500Y-130334308D01*
X170375500Y-130334306D01*
X170372598Y-130297431D01*
X170326744Y-130139602D01*
X170315441Y-130120489D01*
X170243082Y-129998136D01*
X170126863Y-129881917D01*
X169985399Y-129798256D01*
X169979810Y-129795838D01*
X169908395Y-129743461D01*
X169866777Y-129665286D01*
X169863200Y-129576794D01*
X169898372Y-129495515D01*
X169941873Y-129452209D01*
X169951078Y-129445522D01*
X170106632Y-129282825D01*
X170230635Y-129094968D01*
X170319103Y-128887988D01*
X170369191Y-128668537D01*
X170379290Y-128443670D01*
X170349075Y-128220613D01*
X170279517Y-128006536D01*
X170279515Y-128006532D01*
X170279514Y-128006529D01*
X170202203Y-127862863D01*
X170172852Y-127808319D01*
X170079882Y-127691739D01*
X170032510Y-127632336D01*
X169862997Y-127484235D01*
X169862992Y-127484232D01*
X169761314Y-127423483D01*
X169697300Y-127362280D01*
X169666181Y-127279364D01*
X169674120Y-127191157D01*
X169719543Y-127115130D01*
X169761324Y-127081813D01*
X169768719Y-127077394D01*
X169950748Y-126945142D01*
X170106233Y-126782518D01*
X170106245Y-126782503D01*
X170230193Y-126594728D01*
X170230194Y-126594727D01*
X170318623Y-126387836D01*
X170361495Y-126200000D01*
X169436102Y-126200000D01*
X169436519Y-126199351D01*
X169475000Y-126068295D01*
X169475000Y-125931705D01*
X169436519Y-125800649D01*
X169436102Y-125800000D01*
X170359323Y-125800000D01*
X170348584Y-125720726D01*
X170348581Y-125720713D01*
X170279057Y-125506736D01*
X170172430Y-125308592D01*
X170032148Y-125132683D01*
X169862700Y-124984642D01*
X169669548Y-124869238D01*
X169458888Y-124790176D01*
X169237503Y-124750000D01*
X169200000Y-124750000D01*
X169200000Y-125569147D01*
X169135199Y-125539554D01*
X169033975Y-125525000D01*
X168966025Y-125525000D01*
X168864801Y-125539554D01*
X168800000Y-125569147D01*
X168800000Y-124751698D01*
X168799999Y-124751698D01*
X168650908Y-124765116D01*
X168650902Y-124765117D01*
X168434004Y-124824977D01*
X168231283Y-124922602D01*
X168049251Y-125054857D01*
X167893766Y-125217481D01*
X167893754Y-125217496D01*
X167769806Y-125405271D01*
X167769805Y-125405272D01*
X167681376Y-125612163D01*
X167638504Y-125799999D01*
X167638505Y-125800000D01*
X168563898Y-125800000D01*
X168563481Y-125800649D01*
X168525000Y-125931705D01*
X168525000Y-126068295D01*
X168563481Y-126199351D01*
X168563898Y-126200000D01*
X167640676Y-126200000D01*
X167651415Y-126279273D01*
X167651418Y-126279286D01*
X167720942Y-126493263D01*
X167827569Y-126691407D01*
X167967851Y-126867316D01*
X168137299Y-127015357D01*
X168238685Y-127075933D01*
X168302697Y-127137136D01*
X168333816Y-127220052D01*
X168325877Y-127308259D01*
X168280453Y-127384286D01*
X168238687Y-127417594D01*
X168231025Y-127422171D01*
X168048920Y-127554479D01*
X167893373Y-127717168D01*
X167893365Y-127717178D01*
X167769366Y-127905028D01*
X167680896Y-128112014D01*
X167630808Y-128331465D01*
X167624138Y-128480000D01*
X167620710Y-128556330D01*
X167650925Y-128779387D01*
X167650926Y-128779391D01*
X167650927Y-128779394D01*
X167720485Y-128993470D01*
X167827147Y-129191679D01*
X167827149Y-129191682D01*
X167967489Y-129367663D01*
X167967491Y-129367664D01*
X167967492Y-129367666D01*
X168008742Y-129403705D01*
X168075375Y-129461921D01*
X168127431Y-129533571D01*
X168143245Y-129620711D01*
X168119683Y-129706082D01*
X168061414Y-129772777D01*
X168023476Y-129794416D01*
X168014600Y-129798256D01*
X167873136Y-129881917D01*
X167756917Y-129998136D01*
X167673256Y-130139600D01*
X167627402Y-130297430D01*
X167624500Y-130334308D01*
X167624500Y-131450500D01*
X167604793Y-131536843D01*
X167549574Y-131606084D01*
X167469782Y-131644511D01*
X167425500Y-131649500D01*
X160574500Y-131649500D01*
X160488157Y-131629793D01*
X160418916Y-131574574D01*
X160380489Y-131494782D01*
X160375500Y-131450500D01*
X160375500Y-130834308D01*
X160375500Y-130834306D01*
X160372598Y-130797431D01*
X160326744Y-130639602D01*
X160298951Y-130592606D01*
X160243082Y-130498136D01*
X160126863Y-130381917D01*
X159985399Y-130298256D01*
X159979274Y-130295606D01*
X159907860Y-130243228D01*
X159866243Y-130165051D01*
X159862668Y-130076560D01*
X159897841Y-129995281D01*
X159941345Y-129951974D01*
X159950749Y-129945141D01*
X160106233Y-129782518D01*
X160106245Y-129782503D01*
X160230193Y-129594728D01*
X160230194Y-129594727D01*
X160318623Y-129387836D01*
X160361495Y-129200000D01*
X159436102Y-129200000D01*
X159436519Y-129199351D01*
X159475000Y-129068295D01*
X159475000Y-128931705D01*
X159436519Y-128800649D01*
X159436102Y-128800000D01*
X160359323Y-128800000D01*
X160348584Y-128720726D01*
X160348581Y-128720713D01*
X160279057Y-128506736D01*
X160172430Y-128308592D01*
X160032148Y-128132683D01*
X159862700Y-127984642D01*
X159761314Y-127924066D01*
X159697301Y-127862863D01*
X159666183Y-127779946D01*
X159674122Y-127691739D01*
X159719547Y-127615713D01*
X159761325Y-127582398D01*
X159768969Y-127577830D01*
X159768973Y-127577829D01*
X159951078Y-127445522D01*
X160106632Y-127282825D01*
X160230635Y-127094968D01*
X160319103Y-126887988D01*
X160369191Y-126668537D01*
X160379290Y-126443670D01*
X160349075Y-126220613D01*
X160279517Y-126006536D01*
X160279515Y-126006532D01*
X160279514Y-126006529D01*
X160195075Y-125849617D01*
X160172852Y-125808319D01*
X160074855Y-125685435D01*
X160032510Y-125632336D01*
X160009420Y-125612163D01*
X159991258Y-125596295D01*
X159862997Y-125484235D01*
X159862989Y-125484230D01*
X159761803Y-125423774D01*
X159697790Y-125362571D01*
X159666671Y-125279655D01*
X159674610Y-125191448D01*
X159720034Y-125115421D01*
X159761817Y-125082103D01*
X159768962Y-125077834D01*
X159768973Y-125077829D01*
X159951078Y-124945522D01*
X160106632Y-124782825D01*
X160230635Y-124594968D01*
X160319103Y-124387988D01*
X160369191Y-124168537D01*
X160379290Y-123943670D01*
X160349075Y-123720613D01*
X160279517Y-123506536D01*
X160279515Y-123506532D01*
X160279514Y-123506529D01*
X160216835Y-123390053D01*
X160172852Y-123308319D01*
X160072134Y-123182023D01*
X160032510Y-123132336D01*
X159862997Y-122984235D01*
X159862992Y-122984232D01*
X159669761Y-122868783D01*
X159669759Y-122868782D01*
X159459026Y-122789693D01*
X159237547Y-122749500D01*
X158818845Y-122749500D01*
X158763855Y-122754449D01*
X158650819Y-122764622D01*
X158650814Y-122764622D01*
X158650812Y-122764623D01*
X158650809Y-122764623D01*
X158650802Y-122764625D01*
X158433831Y-122824506D01*
X158231024Y-122922172D01*
X158048920Y-123054479D01*
X157893373Y-123217168D01*
X157893365Y-123217178D01*
X157769366Y-123405028D01*
X157680896Y-123612014D01*
X157630808Y-123831465D01*
X157621998Y-124027642D01*
X157620710Y-124056330D01*
X157650925Y-124279387D01*
X157719241Y-124489643D01*
X157720485Y-124493470D01*
X157827147Y-124691679D01*
X157827149Y-124691682D01*
X157967489Y-124867663D01*
X157967491Y-124867664D01*
X157967492Y-124867666D01*
X158017704Y-124911535D01*
X158137002Y-125015764D01*
X158137010Y-125015769D01*
X158238196Y-125076225D01*
X158302209Y-125137427D01*
X158333328Y-125220343D01*
X158325389Y-125308550D01*
X158279965Y-125384577D01*
X158238195Y-125417888D01*
X158231027Y-125422170D01*
X158048920Y-125554479D01*
X157893373Y-125717168D01*
X157893365Y-125717178D01*
X157769366Y-125905028D01*
X157680896Y-126112014D01*
X157630808Y-126331465D01*
X157623933Y-126484563D01*
X157620710Y-126556330D01*
X157650925Y-126779387D01*
X157650926Y-126779391D01*
X157650927Y-126779394D01*
X157720485Y-126993470D01*
X157775106Y-127094971D01*
X157827148Y-127191681D01*
X157849773Y-127220052D01*
X157967489Y-127367663D01*
X157967491Y-127367664D01*
X157967492Y-127367666D01*
X158024523Y-127417493D01*
X158137002Y-127515764D01*
X158137006Y-127515767D01*
X158238685Y-127576516D01*
X158302698Y-127637718D01*
X158333818Y-127720634D01*
X158325880Y-127808841D01*
X158280456Y-127884869D01*
X158238688Y-127918178D01*
X158231288Y-127922599D01*
X158049251Y-128054857D01*
X157893766Y-128217481D01*
X157893754Y-128217496D01*
X157769806Y-128405271D01*
X157769805Y-128405272D01*
X157681376Y-128612163D01*
X157638504Y-128799999D01*
X157638505Y-128800000D01*
X158563898Y-128800000D01*
X158563481Y-128800649D01*
X158525000Y-128931705D01*
X158525000Y-129068295D01*
X158563481Y-129199351D01*
X158563898Y-129200000D01*
X157640676Y-129200000D01*
X157651415Y-129279273D01*
X157651418Y-129279286D01*
X157720942Y-129493263D01*
X157827569Y-129691407D01*
X157967851Y-129867316D01*
X158075883Y-129961700D01*
X158127940Y-130033349D01*
X158143754Y-130120489D01*
X158120193Y-130205861D01*
X158061924Y-130272556D01*
X158023983Y-130294197D01*
X158014599Y-130298257D01*
X157873136Y-130381917D01*
X157756917Y-130498136D01*
X157673256Y-130639600D01*
X157639433Y-130756020D01*
X157596419Y-130833436D01*
X157524075Y-130884523D01*
X157448335Y-130899500D01*
X145545893Y-130899500D01*
X145532893Y-130898648D01*
X145500000Y-130894318D01*
X145460638Y-130899500D01*
X145343244Y-130914954D01*
X145343235Y-130914957D01*
X145197159Y-130975463D01*
X145197152Y-130975467D01*
X145071719Y-131071715D01*
X145051515Y-131098044D01*
X145042926Y-131107837D01*
X144544681Y-131606084D01*
X144059551Y-132091214D01*
X143984563Y-132138333D01*
X143918837Y-132149500D01*
X140117642Y-132149500D01*
X140031299Y-132129793D01*
X139962058Y-132074574D01*
X139923631Y-131994782D01*
X139923631Y-131906218D01*
X139957959Y-131834935D01*
X139956615Y-131833994D01*
X140087100Y-131647642D01*
X140087102Y-131647638D01*
X140179575Y-131449330D01*
X140236207Y-131237977D01*
X140255277Y-131020000D01*
X140236207Y-130802023D01*
X140179575Y-130590670D01*
X140168592Y-130567118D01*
X140087103Y-130392364D01*
X140079789Y-130381919D01*
X139989101Y-130252402D01*
X139961601Y-130213127D01*
X139961599Y-130213125D01*
X139961598Y-130213123D01*
X139806877Y-130058402D01*
X139806876Y-130058401D01*
X139806875Y-130058400D01*
X139627642Y-129932899D01*
X139627638Y-129932897D01*
X139622190Y-129930357D01*
X139552264Y-129876008D01*
X139512844Y-129796702D01*
X139511737Y-129708145D01*
X139549164Y-129627879D01*
X139617710Y-129571800D01*
X139622190Y-129569643D01*
X139623069Y-129569232D01*
X139627639Y-129567102D01*
X139806877Y-129441598D01*
X139961598Y-129286877D01*
X140087102Y-129107639D01*
X140179575Y-128909330D01*
X140236207Y-128697977D01*
X140255277Y-128480000D01*
X140236207Y-128262023D01*
X140179575Y-128050670D01*
X140148785Y-127984642D01*
X140087103Y-127852364D01*
X140056263Y-127808320D01*
X139974633Y-127691739D01*
X139961601Y-127673127D01*
X139961599Y-127673125D01*
X139961598Y-127673123D01*
X139806877Y-127518402D01*
X139806876Y-127518401D01*
X139806875Y-127518400D01*
X139627642Y-127392899D01*
X139627638Y-127392897D01*
X139622190Y-127390357D01*
X139552264Y-127336008D01*
X139512844Y-127256702D01*
X139511737Y-127168145D01*
X139549164Y-127087879D01*
X139617710Y-127031800D01*
X139622190Y-127029643D01*
X139623069Y-127029232D01*
X139627639Y-127027102D01*
X139806877Y-126901598D01*
X139961598Y-126746877D01*
X140087102Y-126567639D01*
X140179575Y-126369330D01*
X140236207Y-126157977D01*
X140255277Y-125940000D01*
X140236207Y-125722023D01*
X140179575Y-125510670D01*
X140130426Y-125405271D01*
X140087103Y-125312364D01*
X140084432Y-125308550D01*
X139961598Y-125133123D01*
X139806877Y-124978402D01*
X139806876Y-124978401D01*
X139806875Y-124978400D01*
X139627642Y-124852899D01*
X139627638Y-124852897D01*
X139622190Y-124850357D01*
X139552264Y-124796008D01*
X139512844Y-124716702D01*
X139511737Y-124628145D01*
X139549164Y-124547879D01*
X139617710Y-124491800D01*
X139622190Y-124489643D01*
X139623069Y-124489232D01*
X139627639Y-124487102D01*
X139806877Y-124361598D01*
X139961598Y-124206877D01*
X140087102Y-124027639D01*
X140087107Y-124027627D01*
X140088616Y-124025015D01*
X140089937Y-124023590D01*
X140092086Y-124020522D01*
X140092509Y-124020818D01*
X140148849Y-123960088D01*
X140231287Y-123927725D01*
X140260964Y-123925500D01*
X152091016Y-123925500D01*
X152154243Y-123927660D01*
X152154243Y-123927659D01*
X152154245Y-123927660D01*
X152193278Y-123918147D01*
X152203293Y-123916244D01*
X152215047Y-123914628D01*
X152243111Y-123910771D01*
X152252491Y-123906696D01*
X152284660Y-123895877D01*
X152294594Y-123893457D01*
X152329615Y-123873764D01*
X152338742Y-123869232D01*
X152352769Y-123863139D01*
X152375609Y-123853219D01*
X152383537Y-123846769D01*
X152411603Y-123827667D01*
X152412964Y-123826901D01*
X152420512Y-123822658D01*
X152448942Y-123794226D01*
X152456483Y-123787421D01*
X152487665Y-123762054D01*
X152493561Y-123753701D01*
X152515422Y-123727746D01*
X157039384Y-119203786D01*
X157114373Y-119156667D01*
X157180098Y-119145500D01*
X160797357Y-119145500D01*
X160883700Y-119165207D01*
X160952941Y-119220426D01*
X160969886Y-119247002D01*
X160970101Y-119246870D01*
X160974945Y-119254694D01*
X161093586Y-119411800D01*
X161109019Y-119432236D01*
X161273438Y-119582124D01*
X161462599Y-119699247D01*
X161670060Y-119779618D01*
X161888757Y-119820500D01*
X161888759Y-119820500D01*
X162111241Y-119820500D01*
X162111243Y-119820500D01*
X162329940Y-119779618D01*
X162537401Y-119699247D01*
X162726562Y-119582124D01*
X162890981Y-119432236D01*
X163025058Y-119254689D01*
X163084259Y-119135797D01*
X163140386Y-119067291D01*
X163220679Y-119029922D01*
X163262396Y-119025500D01*
X167404512Y-119025500D01*
X167490855Y-119045207D01*
X167560096Y-119100426D01*
X167598523Y-119180218D01*
X167600412Y-119192591D01*
X167600574Y-119192562D01*
X167602401Y-119202567D01*
X167648256Y-119360399D01*
X167731917Y-119501863D01*
X167848136Y-119618082D01*
X167989600Y-119701743D01*
X167989602Y-119701744D01*
X168147431Y-119747598D01*
X168184306Y-119750500D01*
X168184308Y-119750500D01*
X169815692Y-119750500D01*
X169815694Y-119750500D01*
X169852569Y-119747598D01*
X170010398Y-119701744D01*
X170151865Y-119618081D01*
X170268081Y-119501865D01*
X170351744Y-119360398D01*
X170397598Y-119202569D01*
X170400500Y-119165694D01*
X170400500Y-117834306D01*
X170397598Y-117797431D01*
X170351744Y-117639602D01*
X170319478Y-117585043D01*
X170268082Y-117498136D01*
X170151863Y-117381917D01*
X170010399Y-117298256D01*
X170004274Y-117295606D01*
X169932860Y-117243228D01*
X169891243Y-117165051D01*
X169887668Y-117076560D01*
X169922841Y-116995281D01*
X169966345Y-116951974D01*
X169975749Y-116945141D01*
X170131233Y-116782518D01*
X170131245Y-116782503D01*
X170255193Y-116594728D01*
X170255194Y-116594727D01*
X170343624Y-116387834D01*
X170392649Y-116173042D01*
X170431075Y-116093249D01*
X170500317Y-116038030D01*
X170586660Y-116018323D01*
X170673003Y-116038030D01*
G37*
G04 #@! TD.AperFunction*
G04 #@! TA.AperFunction,Conductor*
G36*
X107999612Y-75018764D02*
G01*
X108003570Y-75015934D01*
X108080411Y-75000500D01*
X169919589Y-75000500D01*
X169999612Y-75018764D01*
X170003570Y-75015934D01*
X170080411Y-75000500D01*
X173800500Y-75000500D01*
X173886843Y-75020207D01*
X173956084Y-75075426D01*
X173994511Y-75155218D01*
X173999500Y-75199500D01*
X173999500Y-78919588D01*
X173981235Y-78999611D01*
X173984066Y-79003570D01*
X173999500Y-79080411D01*
X173999500Y-140919588D01*
X173981235Y-140999611D01*
X173984066Y-141003570D01*
X173999500Y-141080411D01*
X173999500Y-144800500D01*
X173979793Y-144886843D01*
X173924574Y-144956084D01*
X173844782Y-144994511D01*
X173800500Y-144999500D01*
X170080411Y-144999500D01*
X170000387Y-144981235D01*
X169996430Y-144984066D01*
X169919589Y-144999500D01*
X108080411Y-144999500D01*
X108000387Y-144981235D01*
X107996430Y-144984066D01*
X107919589Y-144999500D01*
X104199500Y-144999500D01*
X104113157Y-144979793D01*
X104043916Y-144924574D01*
X104005489Y-144844782D01*
X104000500Y-144800500D01*
X104000500Y-141080411D01*
X104018764Y-141000387D01*
X104015934Y-140996429D01*
X104015920Y-140996357D01*
X104379379Y-140996357D01*
X104398227Y-141069996D01*
X104414308Y-141376855D01*
X104414309Y-141376869D01*
X104473345Y-141749605D01*
X104473349Y-141749622D01*
X104571019Y-142114136D01*
X104571023Y-142114147D01*
X104706260Y-142466452D01*
X104706270Y-142466473D01*
X104739671Y-142532027D01*
X104877597Y-142802721D01*
X105083137Y-143119225D01*
X105320635Y-143412511D01*
X105587489Y-143679365D01*
X105880775Y-143916863D01*
X106197279Y-144122403D01*
X106533535Y-144293734D01*
X106533542Y-144293736D01*
X106533547Y-144293739D01*
X106885852Y-144428976D01*
X106885863Y-144428980D01*
X107086475Y-144482733D01*
X107250387Y-144526653D01*
X107623129Y-144585690D01*
X107623132Y-144585690D01*
X107623144Y-144585691D01*
X107930004Y-144601773D01*
X107996358Y-144620620D01*
X108069996Y-144601773D01*
X108376855Y-144585691D01*
X108376863Y-144585690D01*
X108376871Y-144585690D01*
X108749613Y-144526653D01*
X109114143Y-144428978D01*
X109466465Y-144293734D01*
X109802721Y-144122403D01*
X110119225Y-143916863D01*
X110412511Y-143679365D01*
X110679365Y-143412511D01*
X110916863Y-143119225D01*
X111122403Y-142802721D01*
X111293734Y-142466465D01*
X111428978Y-142114143D01*
X111526653Y-141749613D01*
X111585690Y-141376871D01*
X111587007Y-141351743D01*
X111605441Y-141000005D01*
X111605441Y-140999994D01*
X111585691Y-140623144D01*
X111585690Y-140623130D01*
X111566195Y-140500047D01*
X111526653Y-140250387D01*
X111469851Y-140038398D01*
X111428980Y-139885863D01*
X111428976Y-139885852D01*
X111293739Y-139533547D01*
X111293736Y-139533542D01*
X111293734Y-139533535D01*
X111256266Y-139460000D01*
X116194532Y-139460000D01*
X116214365Y-139686692D01*
X116214367Y-139686704D01*
X116273258Y-139906490D01*
X116273261Y-139906496D01*
X116369432Y-140112734D01*
X116499953Y-140299139D01*
X116499954Y-140299140D01*
X116499955Y-140299141D01*
X116579211Y-140378397D01*
X116626330Y-140453385D01*
X116636246Y-140541392D01*
X116606995Y-140624985D01*
X116544371Y-140687609D01*
X116489203Y-140708316D01*
X116489749Y-140709994D01*
X116474852Y-140714834D01*
X116361954Y-140772358D01*
X116272358Y-140861954D01*
X116214835Y-140974849D01*
X116214834Y-140974851D01*
X116200000Y-141068519D01*
X116200000Y-141800000D01*
X117095855Y-141800000D01*
X117076375Y-141833740D01*
X117046190Y-141965992D01*
X117056327Y-142101265D01*
X117095078Y-142200000D01*
X116200001Y-142200000D01*
X116200001Y-142931476D01*
X116214835Y-143025149D01*
X116272358Y-143138045D01*
X116361954Y-143227641D01*
X116474849Y-143285164D01*
X116474851Y-143285165D01*
X116568518Y-143299999D01*
X117299999Y-143299999D01*
X117300000Y-143299998D01*
X117300000Y-142408279D01*
X117302547Y-142410016D01*
X117432173Y-142450000D01*
X117533724Y-142450000D01*
X117634138Y-142434865D01*
X117700000Y-142403147D01*
X117700000Y-143299999D01*
X118431477Y-143299999D01*
X118525149Y-143285164D01*
X118638045Y-143227641D01*
X118727641Y-143138045D01*
X118785164Y-143025150D01*
X118785165Y-143025148D01*
X118800000Y-142931480D01*
X118800000Y-142200000D01*
X117904145Y-142200000D01*
X117923625Y-142166260D01*
X117953810Y-142034008D01*
X117943673Y-141898735D01*
X117904922Y-141800000D01*
X118799999Y-141800000D01*
X118799999Y-141068523D01*
X118785164Y-140974850D01*
X118727641Y-140861954D01*
X118638045Y-140772358D01*
X118525150Y-140714835D01*
X118510255Y-140709996D01*
X118510945Y-140707870D01*
X118448171Y-140682688D01*
X118388421Y-140617317D01*
X118362952Y-140532495D01*
X118376807Y-140445022D01*
X118420786Y-140378399D01*
X118500047Y-140299139D01*
X118630568Y-140112734D01*
X118726739Y-139906496D01*
X118732270Y-139885857D01*
X118785632Y-139686704D01*
X118785632Y-139686701D01*
X118785635Y-139686692D01*
X118801968Y-139500000D01*
X124444532Y-139500000D01*
X124464365Y-139726692D01*
X124464367Y-139726704D01*
X124523258Y-139946490D01*
X124523261Y-139946496D01*
X124619432Y-140152734D01*
X124749953Y-140339139D01*
X124749954Y-140339140D01*
X124749955Y-140339141D01*
X124829211Y-140418397D01*
X124876330Y-140493385D01*
X124886246Y-140581392D01*
X124856995Y-140664985D01*
X124794371Y-140727609D01*
X124739203Y-140748316D01*
X124739749Y-140749994D01*
X124724852Y-140754834D01*
X124611954Y-140812358D01*
X124522358Y-140901954D01*
X124464835Y-141014849D01*
X124464834Y-141014851D01*
X124450000Y-141108519D01*
X124450000Y-141840000D01*
X125345855Y-141840000D01*
X125326375Y-141873740D01*
X125296190Y-142005992D01*
X125306327Y-142141265D01*
X125345078Y-142240000D01*
X124450001Y-142240000D01*
X124450001Y-142971476D01*
X124464835Y-143065149D01*
X124522358Y-143178045D01*
X124611954Y-143267641D01*
X124724849Y-143325164D01*
X124724851Y-143325165D01*
X124818518Y-143339999D01*
X125549999Y-143339999D01*
X125550000Y-143339998D01*
X125550000Y-142448279D01*
X125552547Y-142450016D01*
X125682173Y-142490000D01*
X125783724Y-142490000D01*
X125884138Y-142474865D01*
X125950000Y-142443147D01*
X125950000Y-143339999D01*
X126681477Y-143339999D01*
X126775149Y-143325164D01*
X126888045Y-143267641D01*
X126908941Y-143246745D01*
X133750000Y-143246745D01*
X133752731Y-143287029D01*
X133752732Y-143287033D01*
X133796040Y-143461175D01*
X133875768Y-143621934D01*
X133875774Y-143621944D01*
X133988195Y-143761802D01*
X133988197Y-143761804D01*
X134128055Y-143874225D01*
X134128065Y-143874231D01*
X134288824Y-143953959D01*
X134462966Y-143997267D01*
X134462970Y-143997268D01*
X134503255Y-144000000D01*
X134800000Y-144000000D01*
X134800000Y-143208335D01*
X134857685Y-143234680D01*
X134964237Y-143250000D01*
X135035763Y-143250000D01*
X135142315Y-143234680D01*
X135200000Y-143208335D01*
X135200000Y-144000000D01*
X135496745Y-144000000D01*
X135537029Y-143997268D01*
X135537033Y-143997267D01*
X135711175Y-143953959D01*
X135871934Y-143874231D01*
X135871944Y-143874225D01*
X136011802Y-143761804D01*
X136011804Y-143761802D01*
X136124225Y-143621944D01*
X136124231Y-143621934D01*
X136203959Y-143461175D01*
X136247267Y-143287033D01*
X136247268Y-143287029D01*
X136250000Y-143246745D01*
X136250000Y-142950000D01*
X135462383Y-142950000D01*
X135500000Y-142821889D01*
X135500000Y-142750000D01*
X138244723Y-142750000D01*
X138263792Y-142967972D01*
X138263793Y-142967979D01*
X138320424Y-143179328D01*
X138320427Y-143179335D01*
X138412897Y-143377638D01*
X138412899Y-143377642D01*
X138538403Y-143556879D01*
X138693120Y-143711596D01*
X138872357Y-143837100D01*
X138872361Y-143837102D01*
X139070670Y-143929575D01*
X139282023Y-143986207D01*
X139500000Y-144005277D01*
X139717977Y-143986207D01*
X139929330Y-143929575D01*
X140127639Y-143837102D01*
X140306877Y-143711598D01*
X140461598Y-143556877D01*
X140587102Y-143377639D01*
X140679575Y-143179330D01*
X140736207Y-142967977D01*
X140755277Y-142750000D01*
X140736207Y-142532023D01*
X140679575Y-142320670D01*
X140654800Y-142267541D01*
X140587103Y-142122364D01*
X140581349Y-142114147D01*
X140461598Y-141943123D01*
X140306877Y-141788402D01*
X140306876Y-141788401D01*
X140306875Y-141788400D01*
X140127642Y-141662899D01*
X140127638Y-141662897D01*
X139929335Y-141570427D01*
X139929328Y-141570424D01*
X139717979Y-141513793D01*
X139717972Y-141513792D01*
X139500000Y-141494723D01*
X139282027Y-141513792D01*
X139282020Y-141513793D01*
X139070671Y-141570424D01*
X139070665Y-141570426D01*
X138872364Y-141662896D01*
X138693127Y-141788398D01*
X138693119Y-141788405D01*
X138538405Y-141943119D01*
X138538398Y-141943127D01*
X138412896Y-142122364D01*
X138320426Y-142320665D01*
X138320424Y-142320671D01*
X138263793Y-142532020D01*
X138263792Y-142532027D01*
X138244723Y-142750000D01*
X135500000Y-142750000D01*
X135500000Y-142678111D01*
X135462383Y-142550000D01*
X136250000Y-142550000D01*
X136250000Y-142253255D01*
X136247268Y-142212970D01*
X136247267Y-142212966D01*
X136203959Y-142038824D01*
X136124231Y-141878065D01*
X136124225Y-141878055D01*
X136011804Y-141738197D01*
X136011802Y-141738195D01*
X135871944Y-141625774D01*
X135871934Y-141625768D01*
X135711175Y-141546040D01*
X135537033Y-141502732D01*
X135537029Y-141502731D01*
X135496745Y-141500000D01*
X135200000Y-141500000D01*
X135200000Y-142291664D01*
X135142315Y-142265320D01*
X135035763Y-142250000D01*
X134964237Y-142250000D01*
X134857685Y-142265320D01*
X134800000Y-142291664D01*
X134800000Y-141500000D01*
X134503255Y-141500000D01*
X134462970Y-141502731D01*
X134462966Y-141502732D01*
X134288824Y-141546040D01*
X134128065Y-141625768D01*
X134128055Y-141625774D01*
X133988197Y-141738195D01*
X133988195Y-141738197D01*
X133875774Y-141878055D01*
X133875768Y-141878065D01*
X133796040Y-142038824D01*
X133752732Y-142212966D01*
X133752731Y-142212970D01*
X133750000Y-142253255D01*
X133750000Y-142550000D01*
X134537617Y-142550000D01*
X134500000Y-142678111D01*
X134500000Y-142821889D01*
X134537617Y-142950000D01*
X133750000Y-142950000D01*
X133750000Y-143246745D01*
X126908941Y-143246745D01*
X126977641Y-143178045D01*
X127035164Y-143065150D01*
X127035165Y-143065148D01*
X127050000Y-142971480D01*
X127050000Y-142240000D01*
X126154145Y-142240000D01*
X126173625Y-142206260D01*
X126203810Y-142074008D01*
X126193673Y-141938735D01*
X126154922Y-141840000D01*
X127049999Y-141840000D01*
X127049999Y-141108523D01*
X127035164Y-141014850D01*
X127027598Y-141000000D01*
X143244723Y-141000000D01*
X143263792Y-141217972D01*
X143263793Y-141217979D01*
X143320424Y-141429328D01*
X143320427Y-141429335D01*
X143412897Y-141627638D01*
X143412899Y-141627642D01*
X143538403Y-141806879D01*
X143693120Y-141961596D01*
X143872357Y-142087100D01*
X143872361Y-142087102D01*
X144070670Y-142179575D01*
X144282023Y-142236207D01*
X144500000Y-142255277D01*
X144717977Y-142236207D01*
X144929330Y-142179575D01*
X145127639Y-142087102D01*
X145306877Y-141961598D01*
X145461598Y-141806877D01*
X145587102Y-141627639D01*
X145589643Y-141622190D01*
X145643992Y-141552264D01*
X145723298Y-141512844D01*
X145811855Y-141511737D01*
X145892121Y-141549164D01*
X145948200Y-141617710D01*
X145950357Y-141622190D01*
X145952897Y-141627638D01*
X145952899Y-141627642D01*
X146078403Y-141806879D01*
X146233120Y-141961596D01*
X146412357Y-142087100D01*
X146412361Y-142087102D01*
X146610670Y-142179575D01*
X146822023Y-142236207D01*
X147040000Y-142255277D01*
X147257977Y-142236207D01*
X147469330Y-142179575D01*
X147667639Y-142087102D01*
X147846877Y-141961598D01*
X148001598Y-141806877D01*
X148055929Y-141729283D01*
X148121597Y-141669859D01*
X148206544Y-141644812D01*
X148293947Y-141659102D01*
X148366494Y-141709899D01*
X148397217Y-141755004D01*
X148455347Y-141872210D01*
X148505476Y-141934573D01*
X148567840Y-142012159D01*
X148630204Y-142062288D01*
X148707790Y-142124653D01*
X148868651Y-142204433D01*
X149042900Y-142247766D01*
X149080481Y-142250314D01*
X149083215Y-142250500D01*
X149083216Y-142250500D01*
X150076785Y-142250500D01*
X150079345Y-142250326D01*
X150117100Y-142247766D01*
X150291349Y-142204433D01*
X150452210Y-142124653D01*
X150592159Y-142012159D01*
X150704653Y-141872210D01*
X150784433Y-141711349D01*
X150827766Y-141537100D01*
X150830500Y-141496784D01*
X150830500Y-140815692D01*
X156499500Y-140815692D01*
X156502402Y-140852569D01*
X156548256Y-141010399D01*
X156631917Y-141151863D01*
X156748136Y-141268082D01*
X156808967Y-141304057D01*
X156889602Y-141351744D01*
X157047431Y-141397598D01*
X157084306Y-141400500D01*
X157084308Y-141400500D01*
X158415692Y-141400500D01*
X158415694Y-141400500D01*
X158452569Y-141397598D01*
X158610398Y-141351744D01*
X158751865Y-141268081D01*
X158868081Y-141151865D01*
X158951744Y-141010398D01*
X158951746Y-141010390D01*
X158954390Y-141004283D01*
X159006764Y-140932866D01*
X159084939Y-140891246D01*
X159173429Y-140887666D01*
X159254710Y-140922836D01*
X159298020Y-140966338D01*
X159304857Y-140975748D01*
X159467481Y-141131233D01*
X159467496Y-141131245D01*
X159655271Y-141255193D01*
X159655272Y-141255194D01*
X159862163Y-141343623D01*
X160049999Y-141386495D01*
X160050000Y-141386495D01*
X160050000Y-140458335D01*
X160107685Y-140484680D01*
X160214237Y-140500000D01*
X160285763Y-140500000D01*
X160392315Y-140484680D01*
X160450000Y-140458335D01*
X160450000Y-141384323D01*
X160529272Y-141373586D01*
X160529273Y-141373585D01*
X160743263Y-141304057D01*
X160941407Y-141197430D01*
X161117316Y-141057148D01*
X161167240Y-141000005D01*
X166394559Y-141000005D01*
X166414308Y-141376855D01*
X166414309Y-141376869D01*
X166473345Y-141749605D01*
X166473349Y-141749622D01*
X166571019Y-142114136D01*
X166571023Y-142114147D01*
X166706260Y-142466452D01*
X166706270Y-142466473D01*
X166739671Y-142532027D01*
X166877597Y-142802721D01*
X167083137Y-143119225D01*
X167320635Y-143412511D01*
X167587489Y-143679365D01*
X167880775Y-143916863D01*
X168197279Y-144122403D01*
X168533535Y-144293734D01*
X168533542Y-144293736D01*
X168533547Y-144293739D01*
X168885852Y-144428976D01*
X168885863Y-144428980D01*
X169086475Y-144482733D01*
X169250387Y-144526653D01*
X169623129Y-144585690D01*
X169623132Y-144585690D01*
X169623144Y-144585691D01*
X169930004Y-144601773D01*
X169996358Y-144620620D01*
X170069996Y-144601773D01*
X170376855Y-144585691D01*
X170376863Y-144585690D01*
X170376871Y-144585690D01*
X170749613Y-144526653D01*
X171114143Y-144428978D01*
X171466465Y-144293734D01*
X171802721Y-144122403D01*
X172119225Y-143916863D01*
X172412511Y-143679365D01*
X172679365Y-143412511D01*
X172916863Y-143119225D01*
X173122403Y-142802721D01*
X173293734Y-142466465D01*
X173428978Y-142114143D01*
X173526653Y-141749613D01*
X173585690Y-141376871D01*
X173587007Y-141351743D01*
X173601773Y-141069996D01*
X173620620Y-141003641D01*
X173601773Y-140930003D01*
X173585691Y-140623144D01*
X173585690Y-140623130D01*
X173566195Y-140500047D01*
X173526653Y-140250387D01*
X173469851Y-140038398D01*
X173428980Y-139885863D01*
X173428976Y-139885852D01*
X173293739Y-139533547D01*
X173293736Y-139533542D01*
X173293734Y-139533535D01*
X173215282Y-139379566D01*
X173122404Y-139197281D01*
X173122400Y-139197274D01*
X172916861Y-138880772D01*
X172679364Y-138587488D01*
X172412511Y-138320635D01*
X172281278Y-138214365D01*
X172119225Y-138083137D01*
X171802721Y-137877597D01*
X171802718Y-137877595D01*
X171466473Y-137706270D01*
X171466452Y-137706260D01*
X171114147Y-137571023D01*
X171114136Y-137571019D01*
X170749622Y-137473349D01*
X170749605Y-137473345D01*
X170376869Y-137414309D01*
X170376855Y-137414308D01*
X170000005Y-137394559D01*
X169999995Y-137394559D01*
X169623144Y-137414308D01*
X169623130Y-137414309D01*
X169250394Y-137473345D01*
X169250377Y-137473349D01*
X168885863Y-137571019D01*
X168885852Y-137571023D01*
X168533547Y-137706260D01*
X168533526Y-137706270D01*
X168197281Y-137877595D01*
X168197274Y-137877599D01*
X167880772Y-138083138D01*
X167587488Y-138320635D01*
X167320635Y-138587488D01*
X167083138Y-138880772D01*
X166877599Y-139197274D01*
X166877595Y-139197281D01*
X166706270Y-139533526D01*
X166706260Y-139533547D01*
X166571023Y-139885852D01*
X166571019Y-139885863D01*
X166473349Y-140250377D01*
X166473345Y-140250394D01*
X166414309Y-140623130D01*
X166414308Y-140623144D01*
X166394559Y-140999994D01*
X166394559Y-141000005D01*
X161167240Y-141000005D01*
X161265357Y-140887700D01*
X161380761Y-140694548D01*
X161459823Y-140483888D01*
X161500000Y-140262502D01*
X161500000Y-140200000D01*
X160712383Y-140200000D01*
X160750000Y-140071889D01*
X160750000Y-139928111D01*
X160712383Y-139800000D01*
X161500000Y-139800000D01*
X161500000Y-139793870D01*
X161484883Y-139625908D01*
X161484882Y-139625902D01*
X161425022Y-139409004D01*
X161327397Y-139206283D01*
X161195142Y-139024251D01*
X161032518Y-138868766D01*
X161032503Y-138868754D01*
X160844728Y-138744806D01*
X160844727Y-138744805D01*
X160637830Y-138656374D01*
X160450000Y-138613502D01*
X160450000Y-139541664D01*
X160392315Y-139515320D01*
X160285763Y-139500000D01*
X160214237Y-139500000D01*
X160107685Y-139515320D01*
X160050000Y-139541664D01*
X160050000Y-138615676D01*
X159970726Y-138626415D01*
X159970713Y-138626418D01*
X159756736Y-138695942D01*
X159558592Y-138802569D01*
X159382682Y-138942852D01*
X159288298Y-139050884D01*
X159216649Y-139102940D01*
X159129509Y-139118754D01*
X159044137Y-139095192D01*
X158977443Y-139036923D01*
X158955799Y-138998976D01*
X158951745Y-138989608D01*
X158951744Y-138989602D01*
X158924096Y-138942852D01*
X158868082Y-138848136D01*
X158751863Y-138731917D01*
X158610399Y-138648256D01*
X158452569Y-138602402D01*
X158415694Y-138599500D01*
X157084306Y-138599500D01*
X157059722Y-138601434D01*
X157047430Y-138602402D01*
X156889600Y-138648256D01*
X156748136Y-138731917D01*
X156631917Y-138848136D01*
X156548256Y-138989600D01*
X156502402Y-139147430D01*
X156499500Y-139184308D01*
X156499500Y-140815692D01*
X150830500Y-140815692D01*
X150830500Y-140503216D01*
X150827766Y-140462900D01*
X150784433Y-140288651D01*
X150704653Y-140127790D01*
X150642288Y-140050204D01*
X150592159Y-139987840D01*
X150498927Y-139912899D01*
X150452210Y-139875347D01*
X150291349Y-139795567D01*
X150291347Y-139795566D01*
X150291346Y-139795566D01*
X150117100Y-139752234D01*
X150076785Y-139749500D01*
X150076784Y-139749500D01*
X149083216Y-139749500D01*
X149083215Y-139749500D01*
X149042899Y-139752234D01*
X148868653Y-139795566D01*
X148707791Y-139875346D01*
X148707790Y-139875347D01*
X148567840Y-139987840D01*
X148455347Y-140127790D01*
X148455346Y-140127791D01*
X148442976Y-140152733D01*
X148397218Y-140244994D01*
X148341202Y-140313589D01*
X148260968Y-140351086D01*
X148172411Y-140350059D01*
X148093069Y-140310709D01*
X148055929Y-140270716D01*
X148001601Y-140193127D01*
X148001599Y-140193125D01*
X148001598Y-140193123D01*
X147846877Y-140038402D01*
X147846876Y-140038401D01*
X147846875Y-140038400D01*
X147667642Y-139912899D01*
X147667638Y-139912897D01*
X147469335Y-139820427D01*
X147469328Y-139820424D01*
X147257979Y-139763793D01*
X147257972Y-139763792D01*
X147040000Y-139744723D01*
X146822027Y-139763792D01*
X146822020Y-139763793D01*
X146610671Y-139820424D01*
X146610665Y-139820426D01*
X146412364Y-139912896D01*
X146233127Y-140038398D01*
X146233119Y-140038405D01*
X146078405Y-140193119D01*
X146078398Y-140193127D01*
X145952898Y-140372362D01*
X145950355Y-140377816D01*
X145896004Y-140447740D01*
X145816696Y-140487158D01*
X145728140Y-140488261D01*
X145647874Y-140450833D01*
X145591797Y-140382285D01*
X145589645Y-140377816D01*
X145587102Y-140372362D01*
X145461598Y-140193123D01*
X145306877Y-140038402D01*
X145306876Y-140038401D01*
X145306875Y-140038400D01*
X145127642Y-139912899D01*
X145127638Y-139912897D01*
X144929335Y-139820427D01*
X144929328Y-139820424D01*
X144717979Y-139763793D01*
X144717972Y-139763792D01*
X144500000Y-139744723D01*
X144282027Y-139763792D01*
X144282020Y-139763793D01*
X144070671Y-139820424D01*
X144070665Y-139820426D01*
X143872364Y-139912896D01*
X143693127Y-140038398D01*
X143693119Y-140038405D01*
X143538405Y-140193119D01*
X143538398Y-140193127D01*
X143412896Y-140372364D01*
X143320426Y-140570665D01*
X143320424Y-140570671D01*
X143263793Y-140782020D01*
X143263792Y-140782027D01*
X143244723Y-141000000D01*
X127027598Y-141000000D01*
X126977641Y-140901954D01*
X126888045Y-140812358D01*
X126775150Y-140754835D01*
X126760255Y-140749996D01*
X126760945Y-140747870D01*
X126698171Y-140722688D01*
X126638421Y-140657317D01*
X126612952Y-140572495D01*
X126626807Y-140485022D01*
X126670786Y-140418399D01*
X126750047Y-140339139D01*
X126880568Y-140152734D01*
X126976739Y-139946496D01*
X126981666Y-139928111D01*
X127035632Y-139726704D01*
X127035632Y-139726701D01*
X127035635Y-139726692D01*
X127055468Y-139500000D01*
X127035635Y-139273308D01*
X127035632Y-139273295D01*
X126976741Y-139053509D01*
X126963098Y-139024251D01*
X126880568Y-138847266D01*
X126750047Y-138660861D01*
X126589139Y-138499953D01*
X126402734Y-138369432D01*
X126196496Y-138273261D01*
X126196497Y-138273261D01*
X126196490Y-138273258D01*
X125976704Y-138214367D01*
X125976692Y-138214365D01*
X125750000Y-138194532D01*
X125523307Y-138214365D01*
X125523295Y-138214367D01*
X125303509Y-138273258D01*
X125097266Y-138369432D01*
X124910858Y-138499955D01*
X124749955Y-138660858D01*
X124619432Y-138847266D01*
X124523258Y-139053509D01*
X124464367Y-139273295D01*
X124464365Y-139273307D01*
X124444532Y-139500000D01*
X118801968Y-139500000D01*
X118805468Y-139460000D01*
X118785635Y-139233308D01*
X118775982Y-139197281D01*
X118726741Y-139013509D01*
X118693793Y-138942852D01*
X118630568Y-138807266D01*
X118500047Y-138620861D01*
X118339139Y-138459953D01*
X118152734Y-138329432D01*
X117946496Y-138233261D01*
X117946497Y-138233261D01*
X117946490Y-138233258D01*
X117726704Y-138174367D01*
X117726692Y-138174365D01*
X117500000Y-138154532D01*
X117273307Y-138174365D01*
X117273295Y-138174367D01*
X117053509Y-138233258D01*
X116847266Y-138329432D01*
X116660858Y-138459955D01*
X116499955Y-138620858D01*
X116369432Y-138807266D01*
X116273258Y-139013509D01*
X116214367Y-139233295D01*
X116214365Y-139233307D01*
X116194532Y-139460000D01*
X111256266Y-139460000D01*
X111215282Y-139379566D01*
X111122404Y-139197281D01*
X111122400Y-139197274D01*
X110916861Y-138880772D01*
X110679364Y-138587488D01*
X110412511Y-138320635D01*
X110281278Y-138214365D01*
X110119225Y-138083137D01*
X109802721Y-137877597D01*
X109802718Y-137877595D01*
X109466473Y-137706270D01*
X109466452Y-137706260D01*
X109114147Y-137571023D01*
X109114136Y-137571019D01*
X108749622Y-137473349D01*
X108749605Y-137473345D01*
X108376869Y-137414309D01*
X108376855Y-137414308D01*
X108000005Y-137394559D01*
X107999995Y-137394559D01*
X107623144Y-137414308D01*
X107623130Y-137414309D01*
X107250394Y-137473345D01*
X107250377Y-137473349D01*
X106885863Y-137571019D01*
X106885852Y-137571023D01*
X106533547Y-137706260D01*
X106533526Y-137706270D01*
X106197281Y-137877595D01*
X106197274Y-137877599D01*
X105880772Y-138083138D01*
X105587488Y-138320635D01*
X105320635Y-138587488D01*
X105083138Y-138880772D01*
X104877599Y-139197274D01*
X104877595Y-139197281D01*
X104706270Y-139533526D01*
X104706260Y-139533547D01*
X104571023Y-139885852D01*
X104571019Y-139885863D01*
X104473349Y-140250377D01*
X104473345Y-140250394D01*
X104414309Y-140623130D01*
X104414308Y-140623144D01*
X104398227Y-140930003D01*
X104379379Y-140996357D01*
X104015920Y-140996357D01*
X104000500Y-140919588D01*
X104000500Y-132310001D01*
X117794357Y-132310001D01*
X117803297Y-132406484D01*
X117812135Y-132501863D01*
X117814885Y-132531535D01*
X117814885Y-132531539D01*
X117856638Y-132678283D01*
X117875771Y-132745528D01*
X117930621Y-132855681D01*
X117974941Y-132944687D01*
X117974945Y-132944694D01*
X118086594Y-133092541D01*
X118109019Y-133122236D01*
X118273438Y-133272124D01*
X118462599Y-133389247D01*
X118670060Y-133469618D01*
X118888757Y-133510500D01*
X118888759Y-133510500D01*
X119111241Y-133510500D01*
X119111243Y-133510500D01*
X119329940Y-133469618D01*
X119537401Y-133389247D01*
X119726562Y-133272124D01*
X119890981Y-133122236D01*
X120025058Y-132944689D01*
X120124229Y-132745528D01*
X120185115Y-132531536D01*
X120205643Y-132310001D01*
X124794357Y-132310001D01*
X124803297Y-132406484D01*
X124812135Y-132501863D01*
X124814885Y-132531535D01*
X124814885Y-132531539D01*
X124856638Y-132678283D01*
X124875771Y-132745528D01*
X124930621Y-132855681D01*
X124974941Y-132944687D01*
X124974945Y-132944694D01*
X125086594Y-133092541D01*
X125109019Y-133122236D01*
X125273438Y-133272124D01*
X125462599Y-133389247D01*
X125670060Y-133469618D01*
X125888757Y-133510500D01*
X125888759Y-133510500D01*
X126111241Y-133510500D01*
X126111243Y-133510500D01*
X126329940Y-133469618D01*
X126537401Y-133389247D01*
X126726562Y-133272124D01*
X126890981Y-133122236D01*
X127025058Y-132944689D01*
X127124229Y-132745528D01*
X127185115Y-132531536D01*
X127205643Y-132310001D01*
X131544357Y-132310001D01*
X131553297Y-132406484D01*
X131562135Y-132501863D01*
X131564885Y-132531535D01*
X131564885Y-132531539D01*
X131606638Y-132678283D01*
X131625771Y-132745528D01*
X131680621Y-132855681D01*
X131724941Y-132944687D01*
X131724945Y-132944694D01*
X131836594Y-133092541D01*
X131859019Y-133122236D01*
X132023438Y-133272124D01*
X132130260Y-133338265D01*
X132193295Y-133400473D01*
X132223097Y-133483872D01*
X132224500Y-133507458D01*
X132224500Y-133991016D01*
X132222339Y-134054242D01*
X132222340Y-134054245D01*
X132231852Y-134093282D01*
X132233755Y-134103294D01*
X132239228Y-134143108D01*
X132239229Y-134143111D01*
X132243310Y-134152508D01*
X132254121Y-134184657D01*
X132256542Y-134194591D01*
X132256545Y-134194598D01*
X132276233Y-134229614D01*
X132280768Y-134238744D01*
X132296781Y-134275609D01*
X132303233Y-134283539D01*
X132322329Y-134311597D01*
X132327342Y-134320512D01*
X132355765Y-134348935D01*
X132362579Y-134356485D01*
X132387946Y-134387665D01*
X132396301Y-134393562D01*
X132422256Y-134415426D01*
X133740678Y-135733847D01*
X133787797Y-135808835D01*
X133797713Y-135896842D01*
X133792184Y-135926064D01*
X133763792Y-136032024D01*
X133763792Y-136032027D01*
X133744723Y-136250000D01*
X133763792Y-136467972D01*
X133763793Y-136467979D01*
X133820424Y-136679328D01*
X133820427Y-136679335D01*
X133912897Y-136877638D01*
X133912899Y-136877642D01*
X134038403Y-137056879D01*
X134193120Y-137211596D01*
X134372357Y-137337100D01*
X134372361Y-137337102D01*
X134570670Y-137429575D01*
X134782023Y-137486207D01*
X135000000Y-137505277D01*
X135217977Y-137486207D01*
X135429330Y-137429575D01*
X135627639Y-137337102D01*
X135806877Y-137211598D01*
X135961598Y-137056877D01*
X136087102Y-136877639D01*
X136179575Y-136679330D01*
X136236207Y-136467977D01*
X136255277Y-136250000D01*
X138244723Y-136250000D01*
X138263792Y-136467972D01*
X138263793Y-136467979D01*
X138320424Y-136679328D01*
X138320427Y-136679335D01*
X138412897Y-136877638D01*
X138412899Y-136877642D01*
X138538403Y-137056879D01*
X138693120Y-137211596D01*
X138872357Y-137337100D01*
X138872361Y-137337102D01*
X139070670Y-137429575D01*
X139282023Y-137486207D01*
X139500000Y-137505277D01*
X139717977Y-137486207D01*
X139929330Y-137429575D01*
X140127639Y-137337102D01*
X140306877Y-137211598D01*
X140461598Y-137056877D01*
X140587102Y-136877639D01*
X140679575Y-136679330D01*
X140736207Y-136467977D01*
X140755277Y-136250000D01*
X140736207Y-136032023D01*
X140679575Y-135820670D01*
X140674056Y-135808835D01*
X140587103Y-135622364D01*
X140461601Y-135443127D01*
X140461599Y-135443125D01*
X140461598Y-135443123D01*
X140306877Y-135288402D01*
X140306876Y-135288401D01*
X140306875Y-135288400D01*
X140127642Y-135162899D01*
X140127638Y-135162897D01*
X139929335Y-135070427D01*
X139929328Y-135070424D01*
X139717979Y-135013793D01*
X139717972Y-135013792D01*
X139500000Y-134994723D01*
X139282027Y-135013792D01*
X139282020Y-135013793D01*
X139070671Y-135070424D01*
X139070665Y-135070426D01*
X138872364Y-135162896D01*
X138693127Y-135288398D01*
X138693119Y-135288405D01*
X138538405Y-135443119D01*
X138538398Y-135443127D01*
X138412896Y-135622364D01*
X138320426Y-135820665D01*
X138320424Y-135820671D01*
X138263793Y-136032020D01*
X138263792Y-136032027D01*
X138244723Y-136250000D01*
X136255277Y-136250000D01*
X136236207Y-136032023D01*
X136179575Y-135820670D01*
X136174056Y-135808835D01*
X136087103Y-135622364D01*
X135961601Y-135443127D01*
X135961599Y-135443125D01*
X135961598Y-135443123D01*
X135806877Y-135288402D01*
X135806876Y-135288401D01*
X135806875Y-135288400D01*
X135627642Y-135162899D01*
X135627638Y-135162897D01*
X135429335Y-135070427D01*
X135429328Y-135070424D01*
X135217979Y-135013793D01*
X135217972Y-135013792D01*
X135000000Y-134994723D01*
X134782027Y-135013792D01*
X134782024Y-135013792D01*
X134676064Y-135042184D01*
X134587563Y-135045494D01*
X134506389Y-135010078D01*
X134483847Y-134990678D01*
X133333786Y-133840617D01*
X133286667Y-133765629D01*
X133275500Y-133699903D01*
X133275500Y-133507458D01*
X133295207Y-133421115D01*
X133350426Y-133351874D01*
X133369735Y-133338267D01*
X133476562Y-133272124D01*
X133640981Y-133122236D01*
X133775058Y-132944689D01*
X133874229Y-132745528D01*
X133935115Y-132531536D01*
X133955643Y-132310000D01*
X133935115Y-132088464D01*
X133874229Y-131874472D01*
X133775058Y-131675311D01*
X133775055Y-131675307D01*
X133775054Y-131675305D01*
X133640984Y-131497768D01*
X133640981Y-131497764D01*
X133476562Y-131347876D01*
X133287401Y-131230753D01*
X133079940Y-131150382D01*
X132861243Y-131109500D01*
X132638757Y-131109500D01*
X132420060Y-131150382D01*
X132212599Y-131230753D01*
X132212598Y-131230753D01*
X132212597Y-131230754D01*
X132212595Y-131230755D01*
X132023442Y-131347873D01*
X132023440Y-131347874D01*
X132023438Y-131347876D01*
X131862290Y-131494782D01*
X131859015Y-131497768D01*
X131724945Y-131675305D01*
X131724941Y-131675312D01*
X131625773Y-131874468D01*
X131625770Y-131874474D01*
X131564885Y-132088460D01*
X131564885Y-132088464D01*
X131544357Y-132309998D01*
X131544357Y-132310001D01*
X127205643Y-132310001D01*
X127205643Y-132310000D01*
X127185115Y-132088464D01*
X127124229Y-131874472D01*
X127025058Y-131675311D01*
X127025055Y-131675307D01*
X127025054Y-131675305D01*
X126890984Y-131497768D01*
X126890981Y-131497764D01*
X126726562Y-131347876D01*
X126537401Y-131230753D01*
X126329940Y-131150382D01*
X126111243Y-131109500D01*
X125888757Y-131109500D01*
X125670060Y-131150382D01*
X125462599Y-131230753D01*
X125462598Y-131230753D01*
X125462597Y-131230754D01*
X125462595Y-131230755D01*
X125273442Y-131347873D01*
X125273440Y-131347874D01*
X125273438Y-131347876D01*
X125112290Y-131494782D01*
X125109015Y-131497768D01*
X124974945Y-131675305D01*
X124974941Y-131675312D01*
X124875773Y-131874468D01*
X124875770Y-131874474D01*
X124814885Y-132088460D01*
X124814885Y-132088464D01*
X124794357Y-132309998D01*
X124794357Y-132310001D01*
X120205643Y-132310001D01*
X120205643Y-132310000D01*
X120185115Y-132088464D01*
X120124229Y-131874472D01*
X120025058Y-131675311D01*
X120025055Y-131675307D01*
X120025054Y-131675305D01*
X119890984Y-131497768D01*
X119890981Y-131497764D01*
X119726562Y-131347876D01*
X119537401Y-131230753D01*
X119329940Y-131150382D01*
X119111243Y-131109500D01*
X118888757Y-131109500D01*
X118670060Y-131150382D01*
X118462599Y-131230753D01*
X118462598Y-131230753D01*
X118462597Y-131230754D01*
X118462595Y-131230755D01*
X118273442Y-131347873D01*
X118273440Y-131347874D01*
X118273438Y-131347876D01*
X118112290Y-131494782D01*
X118109015Y-131497768D01*
X117974945Y-131675305D01*
X117974941Y-131675312D01*
X117875773Y-131874468D01*
X117875770Y-131874474D01*
X117814885Y-132088460D01*
X117814885Y-132088464D01*
X117794357Y-132309998D01*
X117794357Y-132310001D01*
X104000500Y-132310001D01*
X104000500Y-131020000D01*
X112344723Y-131020000D01*
X112363792Y-131237972D01*
X112363793Y-131237979D01*
X112420424Y-131449328D01*
X112420427Y-131449335D01*
X112512897Y-131647638D01*
X112512899Y-131647642D01*
X112638403Y-131826879D01*
X112793120Y-131981596D01*
X112972357Y-132107100D01*
X112972361Y-132107102D01*
X113170670Y-132199575D01*
X113382023Y-132256207D01*
X113600000Y-132275277D01*
X113817977Y-132256207D01*
X114029330Y-132199575D01*
X114227639Y-132107102D01*
X114406877Y-131981598D01*
X114561598Y-131826877D01*
X114687102Y-131647639D01*
X114779575Y-131449330D01*
X114836207Y-131237977D01*
X114855277Y-131020000D01*
X114836207Y-130802023D01*
X114779575Y-130590670D01*
X114768592Y-130567118D01*
X114687103Y-130392364D01*
X114679789Y-130381919D01*
X114589101Y-130252402D01*
X114561601Y-130213127D01*
X114561599Y-130213125D01*
X114561598Y-130213123D01*
X114406877Y-130058402D01*
X114406876Y-130058401D01*
X114406875Y-130058400D01*
X114227642Y-129932899D01*
X114227638Y-129932897D01*
X114222190Y-129930357D01*
X114152264Y-129876008D01*
X114112844Y-129796702D01*
X114111737Y-129708145D01*
X114149164Y-129627879D01*
X114217710Y-129571800D01*
X114222190Y-129569643D01*
X114223069Y-129569232D01*
X114227639Y-129567102D01*
X114406877Y-129441598D01*
X114561598Y-129286877D01*
X114687102Y-129107639D01*
X114779575Y-128909330D01*
X114836207Y-128697977D01*
X114855277Y-128480000D01*
X114836207Y-128262023D01*
X114779575Y-128050670D01*
X114748785Y-127984642D01*
X114687103Y-127852364D01*
X114656263Y-127808320D01*
X114574633Y-127691739D01*
X114561601Y-127673127D01*
X114561599Y-127673125D01*
X114561598Y-127673123D01*
X114406877Y-127518402D01*
X114406876Y-127518401D01*
X114406875Y-127518400D01*
X114227642Y-127392899D01*
X114227638Y-127392897D01*
X114222190Y-127390357D01*
X114152264Y-127336008D01*
X114112844Y-127256702D01*
X114111737Y-127168145D01*
X114149164Y-127087879D01*
X114217710Y-127031800D01*
X114222190Y-127029643D01*
X114223069Y-127029232D01*
X114227639Y-127027102D01*
X114406877Y-126901598D01*
X114561598Y-126746877D01*
X114687102Y-126567639D01*
X114779575Y-126369330D01*
X114836207Y-126157977D01*
X114855277Y-125940000D01*
X114836207Y-125722023D01*
X114779575Y-125510670D01*
X114730426Y-125405271D01*
X114687103Y-125312364D01*
X114684432Y-125308550D01*
X114561598Y-125133123D01*
X114406877Y-124978402D01*
X114406876Y-124978401D01*
X114406875Y-124978400D01*
X114227642Y-124852899D01*
X114227638Y-124852897D01*
X114222190Y-124850357D01*
X114152264Y-124796008D01*
X114112844Y-124716702D01*
X114112510Y-124690001D01*
X117794357Y-124690001D01*
X117802958Y-124782821D01*
X117809451Y-124852898D01*
X117814885Y-124911535D01*
X117814885Y-124911539D01*
X117872895Y-125115421D01*
X117875771Y-125125528D01*
X117921566Y-125217496D01*
X117974941Y-125324687D01*
X117974945Y-125324694D01*
X118095425Y-125484235D01*
X118109019Y-125502236D01*
X118273438Y-125652124D01*
X118462599Y-125769247D01*
X118670060Y-125849618D01*
X118888757Y-125890500D01*
X118888759Y-125890500D01*
X119111241Y-125890500D01*
X119111243Y-125890500D01*
X119329940Y-125849618D01*
X119537401Y-125769247D01*
X119726562Y-125652124D01*
X119890981Y-125502236D01*
X120025058Y-125324689D01*
X120124229Y-125125528D01*
X120185115Y-124911536D01*
X120205487Y-124691681D01*
X120205643Y-124690001D01*
X124794357Y-124690001D01*
X124802958Y-124782821D01*
X124809451Y-124852898D01*
X124814885Y-124911535D01*
X124814885Y-124911539D01*
X124872895Y-125115421D01*
X124875771Y-125125528D01*
X124921566Y-125217496D01*
X124974941Y-125324687D01*
X124974945Y-125324694D01*
X125095425Y-125484235D01*
X125109019Y-125502236D01*
X125273438Y-125652124D01*
X125462599Y-125769247D01*
X125670060Y-125849618D01*
X125888757Y-125890500D01*
X125888759Y-125890500D01*
X126111241Y-125890500D01*
X126111243Y-125890500D01*
X126329940Y-125849618D01*
X126537401Y-125769247D01*
X126726562Y-125652124D01*
X126890981Y-125502236D01*
X127025058Y-125324689D01*
X127124229Y-125125528D01*
X127185115Y-124911536D01*
X127205487Y-124691681D01*
X127205643Y-124690001D01*
X131544357Y-124690001D01*
X131552958Y-124782821D01*
X131559451Y-124852898D01*
X131564885Y-124911535D01*
X131564885Y-124911539D01*
X131622895Y-125115421D01*
X131625771Y-125125528D01*
X131671566Y-125217496D01*
X131724941Y-125324687D01*
X131724945Y-125324694D01*
X131845425Y-125484235D01*
X131859019Y-125502236D01*
X132023438Y-125652124D01*
X132055260Y-125671827D01*
X132118294Y-125734032D01*
X132148097Y-125817430D01*
X132149500Y-125841019D01*
X132149500Y-126704106D01*
X132148648Y-126717106D01*
X132144318Y-126750000D01*
X132148187Y-126779387D01*
X132162484Y-126887987D01*
X132164956Y-126906761D01*
X132164957Y-126906765D01*
X132225463Y-127052840D01*
X132225464Y-127052843D01*
X132310225Y-127163304D01*
X132321718Y-127178282D01*
X132348044Y-127198482D01*
X132357835Y-127207070D01*
X138292939Y-133142174D01*
X138301514Y-133151952D01*
X138321718Y-133178282D01*
X138387117Y-133228464D01*
X138435826Y-133265840D01*
X138447160Y-133274537D01*
X138510867Y-133300925D01*
X138593238Y-133335044D01*
X138750000Y-133355682D01*
X138771384Y-133352866D01*
X138782893Y-133351352D01*
X138795893Y-133350500D01*
X144204107Y-133350500D01*
X144217107Y-133351352D01*
X144229873Y-133353032D01*
X144250000Y-133355682D01*
X144406762Y-133335044D01*
X144552841Y-133274536D01*
X144612883Y-133228464D01*
X144678282Y-133178282D01*
X144698486Y-133151950D01*
X144707053Y-133142180D01*
X144875130Y-132974104D01*
X144950116Y-132926988D01*
X145038123Y-132917072D01*
X145121716Y-132946323D01*
X145184339Y-133008947D01*
X145213590Y-133092541D01*
X145207245Y-133169279D01*
X145190379Y-133228556D01*
X145190378Y-133228560D01*
X145169859Y-133449999D01*
X145169859Y-133450000D01*
X145190378Y-133671439D01*
X145190379Y-133671442D01*
X145251240Y-133885351D01*
X145350365Y-134084421D01*
X145350368Y-134084426D01*
X145396560Y-134145595D01*
X145986713Y-133555442D01*
X145989835Y-133575148D01*
X146047359Y-133688045D01*
X146136955Y-133777641D01*
X146249852Y-133835165D01*
X146269556Y-133838285D01*
X145678001Y-134429840D01*
X145837817Y-134528795D01*
X146045195Y-134609135D01*
X146263807Y-134650000D01*
X146486192Y-134650000D01*
X146704804Y-134609135D01*
X146912180Y-134528796D01*
X147071998Y-134429841D01*
X147071998Y-134429840D01*
X146480443Y-133838285D01*
X146500148Y-133835165D01*
X146613045Y-133777641D01*
X146702641Y-133688045D01*
X146760165Y-133575148D01*
X146763285Y-133555443D01*
X147353437Y-134145595D01*
X147399633Y-134084422D01*
X147498759Y-133885351D01*
X147559620Y-133671442D01*
X147559621Y-133671439D01*
X147580141Y-133450000D01*
X147580141Y-133449999D01*
X147559621Y-133228560D01*
X147559620Y-133228557D01*
X147498761Y-133014653D01*
X147399632Y-132815576D01*
X147353437Y-132754403D01*
X146763285Y-133344555D01*
X146760165Y-133324852D01*
X146702641Y-133211955D01*
X146613045Y-133122359D01*
X146500148Y-133064835D01*
X146480442Y-133061714D01*
X147071998Y-132470158D01*
X147071997Y-132470157D01*
X147069633Y-132468693D01*
X147006597Y-132406484D01*
X146976796Y-132323086D01*
X146986131Y-132235016D01*
X147032753Y-132159718D01*
X147107429Y-132112105D01*
X147174393Y-132100500D01*
X150574659Y-132100500D01*
X150661002Y-132120207D01*
X150730243Y-132175426D01*
X150768670Y-132255218D01*
X150768670Y-132343782D01*
X150730243Y-132423574D01*
X150679420Y-132468692D01*
X150648438Y-132487876D01*
X150484019Y-132637764D01*
X150484015Y-132637768D01*
X150349945Y-132815305D01*
X150349941Y-132815312D01*
X150250773Y-133014468D01*
X150250770Y-133014474D01*
X150189885Y-133228460D01*
X150189885Y-133228463D01*
X150169357Y-133449998D01*
X150169357Y-133450001D01*
X150189885Y-133671535D01*
X150189885Y-133671539D01*
X150250770Y-133885525D01*
X150250771Y-133885528D01*
X150303298Y-133991016D01*
X150349941Y-134084687D01*
X150349945Y-134084694D01*
X150484015Y-134262231D01*
X150484019Y-134262236D01*
X150648438Y-134412124D01*
X150837599Y-134529247D01*
X151045060Y-134609618D01*
X151263757Y-134650500D01*
X151263759Y-134650500D01*
X151486241Y-134650500D01*
X151486243Y-134650500D01*
X151704940Y-134609618D01*
X151912401Y-134529247D01*
X152101562Y-134412124D01*
X152265981Y-134262236D01*
X152400058Y-134084689D01*
X152499229Y-133885528D01*
X152560115Y-133671536D01*
X152580643Y-133450000D01*
X152577966Y-133421115D01*
X152560115Y-133228463D01*
X152560114Y-133228460D01*
X152542672Y-133167157D01*
X152499229Y-133014472D01*
X152400058Y-132815311D01*
X152400055Y-132815307D01*
X152400054Y-132815305D01*
X152265984Y-132637768D01*
X152265981Y-132637764D01*
X152101562Y-132487876D01*
X152070579Y-132468692D01*
X152007545Y-132406484D01*
X151977744Y-132323085D01*
X151987079Y-132235015D01*
X152033702Y-132159717D01*
X152108378Y-132112105D01*
X152175341Y-132100500D01*
X157448335Y-132100500D01*
X157534678Y-132120207D01*
X157603919Y-132175426D01*
X157639433Y-132243980D01*
X157673256Y-132360399D01*
X157756917Y-132501863D01*
X157873136Y-132618082D01*
X157974931Y-132678283D01*
X158014602Y-132701744D01*
X158172431Y-132747598D01*
X158209306Y-132750500D01*
X159352206Y-132750500D01*
X159438549Y-132770207D01*
X159445219Y-132773732D01*
X159447157Y-132774535D01*
X159447159Y-132774536D01*
X159593238Y-132835044D01*
X159750000Y-132855682D01*
X159771384Y-132852866D01*
X159782893Y-132851352D01*
X159795893Y-132850500D01*
X169954107Y-132850500D01*
X169967107Y-132851352D01*
X169979873Y-132853032D01*
X170000000Y-132855682D01*
X170156762Y-132835044D01*
X170302841Y-132774536D01*
X170368426Y-132724211D01*
X170428282Y-132678282D01*
X170448486Y-132651950D01*
X170457060Y-132642173D01*
X172392173Y-130707060D01*
X172401950Y-130698486D01*
X172428282Y-130678282D01*
X172524536Y-130552841D01*
X172585044Y-130406762D01*
X172600500Y-130289361D01*
X172605682Y-130250000D01*
X172601352Y-130217106D01*
X172600500Y-130204106D01*
X172600500Y-116545893D01*
X172601351Y-116532901D01*
X172605683Y-116500000D01*
X172605683Y-116499999D01*
X172605683Y-116499996D01*
X172585044Y-116343240D01*
X172585044Y-116343238D01*
X172524536Y-116197159D01*
X172524535Y-116197156D01*
X172428281Y-116071717D01*
X172423388Y-116067962D01*
X172401952Y-116051514D01*
X172392174Y-116042939D01*
X166957070Y-110607835D01*
X166948482Y-110598044D01*
X166928282Y-110571718D01*
X166802843Y-110475464D01*
X166802840Y-110475463D01*
X166656764Y-110414957D01*
X166656766Y-110414957D01*
X166656762Y-110414956D01*
X166656760Y-110414955D01*
X166656755Y-110414954D01*
X166539362Y-110399500D01*
X166519680Y-110396909D01*
X166500000Y-110394318D01*
X166499999Y-110394318D01*
X166467107Y-110398648D01*
X166454107Y-110399500D01*
X163149967Y-110399500D01*
X163063624Y-110379793D01*
X162994383Y-110324574D01*
X162991162Y-110320425D01*
X162890982Y-110187765D01*
X162890981Y-110187764D01*
X162726562Y-110037876D01*
X162537401Y-109920753D01*
X162329940Y-109840382D01*
X162111243Y-109799500D01*
X161888757Y-109799500D01*
X161670060Y-109840382D01*
X161462599Y-109920753D01*
X161462598Y-109920753D01*
X161462597Y-109920754D01*
X161462595Y-109920755D01*
X161273442Y-110037873D01*
X161273440Y-110037874D01*
X161273438Y-110037876D01*
X161235609Y-110072362D01*
X161109015Y-110187768D01*
X160974945Y-110365305D01*
X160974941Y-110365312D01*
X160875773Y-110564468D01*
X160875770Y-110564474D01*
X160814885Y-110778460D01*
X160814885Y-110778464D01*
X160794357Y-110999998D01*
X160794357Y-111000001D01*
X160815734Y-111230697D01*
X160812981Y-111230952D01*
X160810105Y-111303283D01*
X160768539Y-111381486D01*
X160758721Y-111392042D01*
X156585638Y-115565125D01*
X156510650Y-115612244D01*
X156422643Y-115622160D01*
X156339050Y-115592909D01*
X156276426Y-115530285D01*
X156247175Y-115446692D01*
X156246686Y-115441811D01*
X156236207Y-115322023D01*
X156179575Y-115110670D01*
X156115436Y-114973125D01*
X156087103Y-114912364D01*
X156025914Y-114824977D01*
X155961598Y-114733123D01*
X155806877Y-114578402D01*
X155806876Y-114578401D01*
X155806875Y-114578400D01*
X155627642Y-114452899D01*
X155627638Y-114452897D01*
X155622190Y-114450357D01*
X155552264Y-114396008D01*
X155512844Y-114316702D01*
X155511737Y-114228145D01*
X155549164Y-114147879D01*
X155617710Y-114091800D01*
X155622190Y-114089643D01*
X155623069Y-114089232D01*
X155627639Y-114087102D01*
X155806877Y-113961598D01*
X155961598Y-113806877D01*
X156087102Y-113627639D01*
X156179575Y-113429330D01*
X156236207Y-113217977D01*
X156255277Y-113000000D01*
X156236207Y-112782023D01*
X156179575Y-112570670D01*
X156115436Y-112433125D01*
X156087103Y-112372364D01*
X155961601Y-112193127D01*
X155961599Y-112193125D01*
X155961598Y-112193123D01*
X155806877Y-112038402D01*
X155806876Y-112038401D01*
X155806875Y-112038400D01*
X155627642Y-111912899D01*
X155627638Y-111912897D01*
X155622190Y-111910357D01*
X155552264Y-111856008D01*
X155512844Y-111776702D01*
X155511737Y-111688145D01*
X155549164Y-111607879D01*
X155617710Y-111551800D01*
X155622190Y-111549643D01*
X155623069Y-111549232D01*
X155627639Y-111547102D01*
X155806877Y-111421598D01*
X155961598Y-111266877D01*
X156087102Y-111087639D01*
X156179575Y-110889330D01*
X156236207Y-110677977D01*
X156255277Y-110460000D01*
X156236207Y-110242023D01*
X156179575Y-110030670D01*
X156115436Y-109893125D01*
X156087103Y-109832364D01*
X155961601Y-109653127D01*
X155961599Y-109653125D01*
X155961598Y-109653123D01*
X155806877Y-109498402D01*
X155806876Y-109498401D01*
X155806875Y-109498400D01*
X155627642Y-109372899D01*
X155627638Y-109372897D01*
X155622190Y-109370357D01*
X155552264Y-109316008D01*
X155512844Y-109236702D01*
X155511737Y-109148145D01*
X155549164Y-109067879D01*
X155617710Y-109011800D01*
X155622190Y-109009643D01*
X155623069Y-109009232D01*
X155627639Y-109007102D01*
X155806877Y-108881598D01*
X155961598Y-108726877D01*
X156087102Y-108547639D01*
X156179575Y-108349330D01*
X156236207Y-108137977D01*
X156255277Y-107920000D01*
X156236207Y-107702023D01*
X156179575Y-107490670D01*
X156115436Y-107353125D01*
X156087103Y-107292364D01*
X155961601Y-107113127D01*
X155961599Y-107113125D01*
X155961598Y-107113123D01*
X155806877Y-106958402D01*
X155806876Y-106958401D01*
X155806875Y-106958400D01*
X155627642Y-106832899D01*
X155627638Y-106832897D01*
X155622190Y-106830357D01*
X155552264Y-106776008D01*
X155512844Y-106696702D01*
X155511737Y-106608145D01*
X155549164Y-106527879D01*
X155617710Y-106471800D01*
X155622190Y-106469643D01*
X155623069Y-106469232D01*
X155627639Y-106467102D01*
X155806877Y-106341598D01*
X155961598Y-106186877D01*
X156087102Y-106007639D01*
X156179575Y-105809330D01*
X156236207Y-105597977D01*
X156255277Y-105380000D01*
X156236207Y-105162023D01*
X156179575Y-104950670D01*
X156150344Y-104887985D01*
X156087103Y-104752364D01*
X155961601Y-104573127D01*
X155961599Y-104573125D01*
X155961598Y-104573123D01*
X155944805Y-104556330D01*
X167595710Y-104556330D01*
X167625925Y-104779387D01*
X167625926Y-104779391D01*
X167625927Y-104779394D01*
X167695485Y-104993470D01*
X167795915Y-105180098D01*
X167801604Y-105190671D01*
X167802147Y-105191679D01*
X167802149Y-105191682D01*
X167942489Y-105367663D01*
X167942491Y-105367664D01*
X167942492Y-105367666D01*
X167981813Y-105402020D01*
X168050375Y-105461921D01*
X168102431Y-105533571D01*
X168118245Y-105620711D01*
X168094683Y-105706082D01*
X168036414Y-105772777D01*
X167998476Y-105794416D01*
X167989600Y-105798256D01*
X167848136Y-105881917D01*
X167731917Y-105998136D01*
X167648256Y-106139600D01*
X167602402Y-106297430D01*
X167599500Y-106334308D01*
X167599500Y-107665692D01*
X167602402Y-107702569D01*
X167648256Y-107860399D01*
X167731917Y-108001863D01*
X167848136Y-108118082D01*
X167919016Y-108160000D01*
X167989602Y-108201744D01*
X168147431Y-108247598D01*
X168184306Y-108250500D01*
X168184308Y-108250500D01*
X169815692Y-108250500D01*
X169815694Y-108250500D01*
X169852569Y-108247598D01*
X170010398Y-108201744D01*
X170151865Y-108118081D01*
X170268081Y-108001865D01*
X170351744Y-107860398D01*
X170397598Y-107702569D01*
X170400500Y-107665694D01*
X170400500Y-106334306D01*
X170397598Y-106297431D01*
X170351744Y-106139602D01*
X170330798Y-106104184D01*
X170268082Y-105998136D01*
X170151863Y-105881917D01*
X170010399Y-105798256D01*
X170004810Y-105795838D01*
X169933395Y-105743461D01*
X169891777Y-105665286D01*
X169888200Y-105576794D01*
X169923372Y-105495515D01*
X169966873Y-105452209D01*
X169976078Y-105445522D01*
X170131632Y-105282825D01*
X170255635Y-105094968D01*
X170344103Y-104887988D01*
X170394191Y-104668537D01*
X170404290Y-104443670D01*
X170374075Y-104220613D01*
X170304517Y-104006536D01*
X170304515Y-104006532D01*
X170304514Y-104006529D01*
X170222436Y-103854004D01*
X170197852Y-103808319D01*
X170117561Y-103707638D01*
X170057510Y-103632336D01*
X169887997Y-103484235D01*
X169887992Y-103484232D01*
X169694761Y-103368783D01*
X169694759Y-103368782D01*
X169484026Y-103289693D01*
X169262547Y-103249500D01*
X168793845Y-103249500D01*
X168738855Y-103254449D01*
X168625819Y-103264622D01*
X168625814Y-103264622D01*
X168625812Y-103264623D01*
X168625809Y-103264623D01*
X168625802Y-103264625D01*
X168408831Y-103324506D01*
X168206024Y-103422172D01*
X168023920Y-103554479D01*
X167868373Y-103717168D01*
X167868365Y-103717178D01*
X167744366Y-103905028D01*
X167655896Y-104112014D01*
X167605808Y-104331465D01*
X167597975Y-104505893D01*
X167595710Y-104556330D01*
X155944805Y-104556330D01*
X155806877Y-104418402D01*
X155806876Y-104418401D01*
X155806875Y-104418400D01*
X155627642Y-104292900D01*
X155627641Y-104292899D01*
X155627639Y-104292898D01*
X155621586Y-104290075D01*
X155551664Y-104235723D01*
X155512249Y-104156414D01*
X155511148Y-104067857D01*
X155548579Y-103987593D01*
X155617128Y-103931518D01*
X155621608Y-103929361D01*
X155627393Y-103926663D01*
X155731160Y-103854004D01*
X155731160Y-103854003D01*
X155183176Y-103306018D01*
X155273100Y-103264952D01*
X155381761Y-103170798D01*
X155459493Y-103049844D01*
X155467027Y-103024184D01*
X156014003Y-103571160D01*
X156014004Y-103571160D01*
X156086665Y-103467391D01*
X156086667Y-103467388D01*
X156179104Y-103269153D01*
X156179105Y-103269151D01*
X156235710Y-103057895D01*
X156254774Y-102840000D01*
X156235710Y-102622104D01*
X156179104Y-102410845D01*
X156179104Y-102410844D01*
X156086670Y-102212619D01*
X156086669Y-102212617D01*
X156014002Y-102108839D01*
X155467027Y-102655814D01*
X155459493Y-102630156D01*
X155381761Y-102509202D01*
X155273100Y-102415048D01*
X155183176Y-102373981D01*
X155731161Y-101825996D01*
X155731160Y-101825995D01*
X155627388Y-101753333D01*
X155627387Y-101753332D01*
X155429153Y-101660895D01*
X155429151Y-101660894D01*
X155217895Y-101604289D01*
X155000000Y-101585225D01*
X154782104Y-101604289D01*
X154570845Y-101660895D01*
X154570844Y-101660895D01*
X154372614Y-101753332D01*
X154372613Y-101753332D01*
X154268839Y-101825995D01*
X154268839Y-101825996D01*
X154816823Y-102373980D01*
X154726900Y-102415048D01*
X154618239Y-102509202D01*
X154540507Y-102630156D01*
X154532972Y-102655815D01*
X153985996Y-102108839D01*
X153985995Y-102108839D01*
X153913332Y-102212613D01*
X153913332Y-102212614D01*
X153820895Y-102410844D01*
X153820895Y-102410845D01*
X153764289Y-102622104D01*
X153745225Y-102840000D01*
X153764289Y-103057895D01*
X153820894Y-103269151D01*
X153820895Y-103269153D01*
X153913332Y-103467387D01*
X153913333Y-103467388D01*
X153985995Y-103571160D01*
X153985996Y-103571161D01*
X154532972Y-103024184D01*
X154540507Y-103049844D01*
X154618239Y-103170798D01*
X154726900Y-103264952D01*
X154816823Y-103306019D01*
X154268838Y-103854003D01*
X154268838Y-103854004D01*
X154372607Y-103926663D01*
X154378397Y-103929363D01*
X154448324Y-103983710D01*
X154487747Y-104063015D01*
X154488856Y-104151571D01*
X154451432Y-104231839D01*
X154382888Y-104287920D01*
X154378418Y-104290073D01*
X154372367Y-104292894D01*
X154372364Y-104292896D01*
X154193127Y-104418398D01*
X154193119Y-104418405D01*
X154038405Y-104573119D01*
X154038398Y-104573127D01*
X153912896Y-104752364D01*
X153820426Y-104950665D01*
X153820424Y-104950671D01*
X153763793Y-105162020D01*
X153763792Y-105162027D01*
X153744723Y-105380000D01*
X153763792Y-105597972D01*
X153763793Y-105597979D01*
X153820424Y-105809328D01*
X153820427Y-105809335D01*
X153912897Y-106007638D01*
X153912899Y-106007642D01*
X154038403Y-106186879D01*
X154193120Y-106341596D01*
X154372357Y-106467100D01*
X154372360Y-106467101D01*
X154372361Y-106467102D01*
X154377815Y-106469645D01*
X154447739Y-106523996D01*
X154487157Y-106603304D01*
X154488260Y-106691860D01*
X154450832Y-106772126D01*
X154382284Y-106828203D01*
X154377820Y-106830353D01*
X154372362Y-106832898D01*
X154193127Y-106958398D01*
X154193119Y-106958405D01*
X154038405Y-107113119D01*
X154038398Y-107113127D01*
X153912896Y-107292364D01*
X153820426Y-107490665D01*
X153820424Y-107490671D01*
X153763793Y-107702020D01*
X153763792Y-107702027D01*
X153744723Y-107920000D01*
X153763792Y-108137972D01*
X153763793Y-108137979D01*
X153820424Y-108349328D01*
X153820427Y-108349335D01*
X153912897Y-108547638D01*
X153912899Y-108547642D01*
X154038403Y-108726879D01*
X154193120Y-108881596D01*
X154372357Y-109007100D01*
X154372360Y-109007101D01*
X154372361Y-109007102D01*
X154377815Y-109009645D01*
X154447739Y-109063996D01*
X154487157Y-109143304D01*
X154488260Y-109231860D01*
X154450832Y-109312126D01*
X154382284Y-109368203D01*
X154377820Y-109370353D01*
X154372362Y-109372898D01*
X154193127Y-109498398D01*
X154193119Y-109498405D01*
X154038405Y-109653119D01*
X154038398Y-109653127D01*
X153912896Y-109832364D01*
X153820426Y-110030665D01*
X153820424Y-110030671D01*
X153763793Y-110242020D01*
X153763792Y-110242027D01*
X153744723Y-110460000D01*
X153763792Y-110677972D01*
X153763793Y-110677979D01*
X153820424Y-110889328D01*
X153820427Y-110889335D01*
X153912897Y-111087638D01*
X153912899Y-111087642D01*
X154038403Y-111266879D01*
X154193120Y-111421596D01*
X154372357Y-111547100D01*
X154372360Y-111547101D01*
X154372361Y-111547102D01*
X154377815Y-111549645D01*
X154447739Y-111603996D01*
X154487157Y-111683304D01*
X154488260Y-111771860D01*
X154450832Y-111852126D01*
X154382284Y-111908203D01*
X154377820Y-111910353D01*
X154372362Y-111912898D01*
X154193127Y-112038398D01*
X154193119Y-112038405D01*
X154038405Y-112193119D01*
X154038398Y-112193127D01*
X153912896Y-112372364D01*
X153820426Y-112570665D01*
X153820424Y-112570671D01*
X153763793Y-112782020D01*
X153763792Y-112782027D01*
X153744723Y-113000000D01*
X153763792Y-113217972D01*
X153763793Y-113217979D01*
X153820424Y-113429328D01*
X153820427Y-113429335D01*
X153912897Y-113627638D01*
X153912899Y-113627642D01*
X154038403Y-113806879D01*
X154193120Y-113961596D01*
X154372357Y-114087100D01*
X154372360Y-114087101D01*
X154372361Y-114087102D01*
X154377815Y-114089645D01*
X154447739Y-114143996D01*
X154487157Y-114223304D01*
X154488260Y-114311860D01*
X154450832Y-114392126D01*
X154382284Y-114448203D01*
X154377820Y-114450353D01*
X154372362Y-114452898D01*
X154193127Y-114578398D01*
X154193119Y-114578405D01*
X154038405Y-114733119D01*
X154038398Y-114733127D01*
X153912896Y-114912364D01*
X153820426Y-115110665D01*
X153820424Y-115110671D01*
X153763793Y-115322020D01*
X153763792Y-115322027D01*
X153744723Y-115540000D01*
X153763792Y-115757972D01*
X153763793Y-115757979D01*
X153820424Y-115969328D01*
X153820427Y-115969335D01*
X153889004Y-116116399D01*
X153907634Y-116202981D01*
X153886851Y-116289071D01*
X153830774Y-116357619D01*
X153750509Y-116395048D01*
X153708649Y-116399500D01*
X153331163Y-116399500D01*
X153244820Y-116379793D01*
X153190449Y-116341214D01*
X150658786Y-113809551D01*
X150611667Y-113734563D01*
X150600500Y-113668837D01*
X150600500Y-104505893D01*
X150601352Y-104492893D01*
X150603574Y-104476008D01*
X150605682Y-104460000D01*
X150585044Y-104303238D01*
X150524536Y-104157159D01*
X150499647Y-104124723D01*
X150428282Y-104031718D01*
X150428280Y-104031717D01*
X150428280Y-104031716D01*
X150420028Y-104025385D01*
X150401952Y-104011514D01*
X150392174Y-104002939D01*
X149661735Y-103272500D01*
X149614616Y-103197512D01*
X149604700Y-103109505D01*
X149610228Y-103080290D01*
X149616207Y-103057977D01*
X149635277Y-102840000D01*
X149616207Y-102622023D01*
X149559575Y-102410670D01*
X149495436Y-102273125D01*
X149467103Y-102212364D01*
X149341601Y-102033127D01*
X149341599Y-102033125D01*
X149341598Y-102033123D01*
X149186877Y-101878402D01*
X149186876Y-101878401D01*
X149186875Y-101878400D01*
X149007642Y-101752899D01*
X149007638Y-101752897D01*
X148809335Y-101660427D01*
X148809328Y-101660424D01*
X148597979Y-101603793D01*
X148597972Y-101603792D01*
X148380000Y-101584723D01*
X148162027Y-101603792D01*
X148162020Y-101603793D01*
X147950671Y-101660424D01*
X147950665Y-101660426D01*
X147752364Y-101752896D01*
X147573127Y-101878398D01*
X147573119Y-101878405D01*
X147418405Y-102033119D01*
X147418398Y-102033127D01*
X147292896Y-102212364D01*
X147200426Y-102410665D01*
X147200424Y-102410671D01*
X147143793Y-102622020D01*
X147143792Y-102622027D01*
X147124723Y-102840000D01*
X147143792Y-103057972D01*
X147143793Y-103057979D01*
X147200424Y-103269328D01*
X147200427Y-103269335D01*
X147292897Y-103467638D01*
X147292899Y-103467642D01*
X147418403Y-103646879D01*
X147573120Y-103801596D01*
X147752357Y-103927100D01*
X147752360Y-103927101D01*
X147752361Y-103927102D01*
X147757815Y-103929645D01*
X147827739Y-103983996D01*
X147867157Y-104063304D01*
X147868260Y-104151860D01*
X147830832Y-104232126D01*
X147762284Y-104288203D01*
X147757820Y-104290353D01*
X147752362Y-104292898D01*
X147573127Y-104418398D01*
X147573119Y-104418405D01*
X147418405Y-104573119D01*
X147418398Y-104573127D01*
X147292896Y-104752364D01*
X147200426Y-104950665D01*
X147200424Y-104950671D01*
X147143793Y-105162020D01*
X147143792Y-105162027D01*
X147124723Y-105380000D01*
X147143792Y-105597972D01*
X147143793Y-105597979D01*
X147200424Y-105809328D01*
X147200427Y-105809335D01*
X147292897Y-106007638D01*
X147292899Y-106007642D01*
X147418403Y-106186879D01*
X147573120Y-106341596D01*
X147752357Y-106467100D01*
X147752360Y-106467101D01*
X147752361Y-106467102D01*
X147757815Y-106469645D01*
X147827739Y-106523996D01*
X147867157Y-106603304D01*
X147868260Y-106691860D01*
X147830832Y-106772126D01*
X147762284Y-106828203D01*
X147757820Y-106830353D01*
X147752362Y-106832898D01*
X147573127Y-106958398D01*
X147573119Y-106958405D01*
X147418405Y-107113119D01*
X147418398Y-107113127D01*
X147292896Y-107292364D01*
X147200426Y-107490665D01*
X147200424Y-107490671D01*
X147143793Y-107702020D01*
X147143792Y-107702027D01*
X147124723Y-107920000D01*
X147143792Y-108137972D01*
X147143793Y-108137979D01*
X147200424Y-108349328D01*
X147200427Y-108349335D01*
X147292897Y-108547638D01*
X147292899Y-108547642D01*
X147418403Y-108726879D01*
X147573120Y-108881596D01*
X147752357Y-109007100D01*
X147752360Y-109007101D01*
X147752361Y-109007102D01*
X147757815Y-109009645D01*
X147827739Y-109063996D01*
X147867157Y-109143304D01*
X147868260Y-109231860D01*
X147830832Y-109312126D01*
X147762284Y-109368203D01*
X147757820Y-109370353D01*
X147752362Y-109372898D01*
X147573127Y-109498398D01*
X147573119Y-109498405D01*
X147418405Y-109653119D01*
X147418398Y-109653127D01*
X147292896Y-109832364D01*
X147200426Y-110030665D01*
X147200424Y-110030671D01*
X147143793Y-110242020D01*
X147143792Y-110242027D01*
X147124723Y-110460000D01*
X147143792Y-110677972D01*
X147143793Y-110677979D01*
X147200424Y-110889328D01*
X147200427Y-110889335D01*
X147292897Y-111087638D01*
X147292899Y-111087642D01*
X147418403Y-111266879D01*
X147573120Y-111421596D01*
X147752357Y-111547100D01*
X147752360Y-111547101D01*
X147752361Y-111547102D01*
X147757815Y-111549645D01*
X147827739Y-111603996D01*
X147867157Y-111683304D01*
X147868260Y-111771860D01*
X147830832Y-111852126D01*
X147762284Y-111908203D01*
X147757820Y-111910353D01*
X147752362Y-111912898D01*
X147573127Y-112038398D01*
X147573119Y-112038405D01*
X147418405Y-112193119D01*
X147418398Y-112193127D01*
X147292896Y-112372364D01*
X147200426Y-112570665D01*
X147200424Y-112570671D01*
X147143793Y-112782020D01*
X147143792Y-112782027D01*
X147124723Y-113000000D01*
X147143792Y-113217972D01*
X147143793Y-113217979D01*
X147200424Y-113429328D01*
X147200427Y-113429335D01*
X147292897Y-113627638D01*
X147292899Y-113627642D01*
X147418403Y-113806879D01*
X147573120Y-113961596D01*
X147752357Y-114087100D01*
X147752360Y-114087101D01*
X147752361Y-114087102D01*
X147757815Y-114089645D01*
X147827739Y-114143996D01*
X147867157Y-114223304D01*
X147868260Y-114311860D01*
X147830832Y-114392126D01*
X147762284Y-114448203D01*
X147757820Y-114450353D01*
X147752362Y-114452898D01*
X147573127Y-114578398D01*
X147573119Y-114578405D01*
X147418405Y-114733119D01*
X147418398Y-114733127D01*
X147292896Y-114912364D01*
X147200426Y-115110665D01*
X147200424Y-115110671D01*
X147143793Y-115322020D01*
X147143792Y-115322027D01*
X147124723Y-115540000D01*
X147143792Y-115757972D01*
X147143793Y-115757979D01*
X147200424Y-115969328D01*
X147200427Y-115969335D01*
X147292897Y-116167638D01*
X147292899Y-116167642D01*
X147418403Y-116346879D01*
X147573120Y-116501596D01*
X147752357Y-116627100D01*
X147752361Y-116627102D01*
X147950670Y-116719575D01*
X148162023Y-116776207D01*
X148380000Y-116795277D01*
X148597977Y-116776207D01*
X148809330Y-116719575D01*
X149007639Y-116627102D01*
X149186877Y-116501598D01*
X149341598Y-116346877D01*
X149467102Y-116167639D01*
X149559575Y-115969330D01*
X149616207Y-115757977D01*
X149635277Y-115540000D01*
X149616207Y-115322023D01*
X149559575Y-115110670D01*
X149495436Y-114973125D01*
X149467103Y-114912364D01*
X149405914Y-114824977D01*
X149379646Y-114787462D01*
X149346267Y-114705432D01*
X149350744Y-114633690D01*
X149326059Y-114638841D01*
X149240100Y-114617523D01*
X149193619Y-114583885D01*
X149193534Y-114583987D01*
X149192116Y-114582797D01*
X149189066Y-114580590D01*
X149186879Y-114578403D01*
X149007642Y-114452899D01*
X149007638Y-114452897D01*
X149002190Y-114450357D01*
X148932264Y-114396008D01*
X148892844Y-114316702D01*
X148891737Y-114228145D01*
X148929164Y-114147879D01*
X148997710Y-114091800D01*
X149002190Y-114089643D01*
X149003069Y-114089232D01*
X149007639Y-114087102D01*
X149007641Y-114087100D01*
X149007644Y-114087099D01*
X149075820Y-114039361D01*
X149103545Y-114019947D01*
X149185575Y-113986566D01*
X149273966Y-113992082D01*
X149351211Y-114035403D01*
X149402009Y-114107950D01*
X149412575Y-114147877D01*
X149414955Y-114156758D01*
X149414956Y-114156762D01*
X149428664Y-114189856D01*
X149475463Y-114302840D01*
X149475465Y-114302843D01*
X149487657Y-114318732D01*
X149524585Y-114399229D01*
X149523075Y-114479937D01*
X149555056Y-114474709D01*
X149640003Y-114499756D01*
X149683373Y-114532608D01*
X152542939Y-117392174D01*
X152551514Y-117401952D01*
X152571718Y-117428282D01*
X152682285Y-117513123D01*
X152697159Y-117524536D01*
X152843238Y-117585044D01*
X153000000Y-117605682D01*
X153021384Y-117602866D01*
X153032893Y-117601352D01*
X153045893Y-117600500D01*
X155954107Y-117600500D01*
X155967107Y-117601352D01*
X155979873Y-117603032D01*
X156000000Y-117605682D01*
X156156762Y-117585044D01*
X156302841Y-117524536D01*
X156306303Y-117521879D01*
X156317716Y-117513123D01*
X156428277Y-117428286D01*
X156428277Y-117428285D01*
X156428282Y-117428282D01*
X156448486Y-117401950D01*
X156457060Y-117392173D01*
X161612365Y-112236868D01*
X161687351Y-112189751D01*
X161775358Y-112179835D01*
X161789637Y-112181971D01*
X161888757Y-112200500D01*
X161888759Y-112200500D01*
X162111241Y-112200500D01*
X162111243Y-112200500D01*
X162329940Y-112159618D01*
X162537401Y-112079247D01*
X162726562Y-111962124D01*
X162890981Y-111812236D01*
X162991162Y-111679575D01*
X163058922Y-111622549D01*
X163144714Y-111600569D01*
X163149967Y-111600500D01*
X166168837Y-111600500D01*
X166255180Y-111620207D01*
X166309551Y-111658786D01*
X169159668Y-114508903D01*
X169206787Y-114583891D01*
X169216703Y-114671898D01*
X169200000Y-114719631D01*
X169200000Y-115541664D01*
X169142315Y-115515320D01*
X169035763Y-115500000D01*
X168964237Y-115500000D01*
X168857685Y-115515320D01*
X168800000Y-115541664D01*
X168800000Y-114750000D01*
X168793870Y-114750000D01*
X168625908Y-114765116D01*
X168625902Y-114765117D01*
X168409004Y-114824977D01*
X168206283Y-114922602D01*
X168024251Y-115054857D01*
X167868766Y-115217481D01*
X167868754Y-115217496D01*
X167744806Y-115405271D01*
X167744805Y-115405272D01*
X167656376Y-115612163D01*
X167613504Y-115799999D01*
X167613505Y-115800000D01*
X168537617Y-115800000D01*
X168500000Y-115928111D01*
X168500000Y-116071889D01*
X168537617Y-116200000D01*
X167615676Y-116200000D01*
X167626415Y-116279273D01*
X167626418Y-116279286D01*
X167695942Y-116493263D01*
X167802569Y-116691407D01*
X167942851Y-116867316D01*
X168050883Y-116961700D01*
X168102940Y-117033349D01*
X168118754Y-117120489D01*
X168095193Y-117205861D01*
X168036924Y-117272556D01*
X167998983Y-117294197D01*
X167989599Y-117298257D01*
X167848136Y-117381917D01*
X167731917Y-117498136D01*
X167648256Y-117639600D01*
X167602401Y-117797432D01*
X167600574Y-117807438D01*
X167597949Y-117806958D01*
X167576466Y-117875663D01*
X167515978Y-117940352D01*
X167433413Y-117972390D01*
X167404512Y-117974500D01*
X163115984Y-117974500D01*
X163029641Y-117954793D01*
X162960400Y-117899574D01*
X162957202Y-117895455D01*
X162890981Y-117807764D01*
X162726562Y-117657876D01*
X162537401Y-117540753D01*
X162329940Y-117460382D01*
X162111243Y-117419500D01*
X161888757Y-117419500D01*
X161670060Y-117460382D01*
X161462599Y-117540753D01*
X161462598Y-117540753D01*
X161462597Y-117540754D01*
X161462595Y-117540755D01*
X161273442Y-117657873D01*
X161273440Y-117657874D01*
X161273438Y-117657876D01*
X161109377Y-117807438D01*
X161109015Y-117807768D01*
X160974945Y-117985305D01*
X160970101Y-117993130D01*
X160968826Y-117992341D01*
X160919364Y-118052711D01*
X160839070Y-118090079D01*
X160797357Y-118094500D01*
X156888984Y-118094500D01*
X156887082Y-118094435D01*
X156825758Y-118092339D01*
X156825755Y-118092340D01*
X156786719Y-118101852D01*
X156776706Y-118103755D01*
X156736891Y-118109228D01*
X156736888Y-118109229D01*
X156727494Y-118113309D01*
X156695347Y-118124119D01*
X156685414Y-118126540D01*
X156685401Y-118126544D01*
X156650383Y-118146234D01*
X156641255Y-118150768D01*
X156604395Y-118166778D01*
X156604391Y-118166781D01*
X156596449Y-118173242D01*
X156568416Y-118192321D01*
X156559489Y-118197341D01*
X156559486Y-118197342D01*
X156531069Y-118225760D01*
X156523505Y-118232586D01*
X156492338Y-118257943D01*
X156492331Y-118257950D01*
X156486430Y-118266310D01*
X156464575Y-118292253D01*
X152899576Y-121857253D01*
X152824588Y-121904372D01*
X152736581Y-121914288D01*
X152652988Y-121885037D01*
X152590364Y-121822413D01*
X152561113Y-121738820D01*
X152560711Y-121734897D01*
X152560115Y-121728465D01*
X152560114Y-121728460D01*
X152542672Y-121667157D01*
X152499229Y-121514472D01*
X152400058Y-121315311D01*
X152400055Y-121315307D01*
X152400054Y-121315305D01*
X152265984Y-121137768D01*
X152265981Y-121137764D01*
X152101562Y-120987876D01*
X151912401Y-120870753D01*
X151704940Y-120790382D01*
X151486243Y-120749500D01*
X151263757Y-120749500D01*
X151045060Y-120790382D01*
X150837599Y-120870753D01*
X150837598Y-120870753D01*
X150837597Y-120870754D01*
X150837595Y-120870755D01*
X150648442Y-120987873D01*
X150648440Y-120987874D01*
X150648438Y-120987876D01*
X150549600Y-121077979D01*
X150484015Y-121137768D01*
X150349945Y-121315305D01*
X150349941Y-121315312D01*
X150250773Y-121514468D01*
X150250770Y-121514474D01*
X150189885Y-121728460D01*
X150189885Y-121728464D01*
X150169626Y-121947102D01*
X150169357Y-121950000D01*
X150187400Y-122144723D01*
X150189885Y-122171535D01*
X150189885Y-122171539D01*
X150250770Y-122385525D01*
X150250773Y-122385532D01*
X150350992Y-122586798D01*
X150371838Y-122672873D01*
X150353272Y-122759468D01*
X150298973Y-122829433D01*
X150219694Y-122868909D01*
X150172855Y-122874500D01*
X147576588Y-122874500D01*
X147490245Y-122854793D01*
X147421004Y-122799574D01*
X147382577Y-122719782D01*
X147382577Y-122631218D01*
X147398451Y-122586798D01*
X147498759Y-122385351D01*
X147559620Y-122171442D01*
X147559621Y-122171439D01*
X147580141Y-121950000D01*
X147580141Y-121949999D01*
X147559621Y-121728560D01*
X147559620Y-121728557D01*
X147498761Y-121514653D01*
X147399632Y-121315576D01*
X147353437Y-121254403D01*
X146763285Y-121844555D01*
X146760165Y-121824852D01*
X146702641Y-121711955D01*
X146613045Y-121622359D01*
X146500148Y-121564835D01*
X146480443Y-121561714D01*
X147071998Y-120970158D01*
X147071997Y-120970157D01*
X146912184Y-120871205D01*
X146912185Y-120871205D01*
X146704804Y-120790864D01*
X146486193Y-120750000D01*
X146263807Y-120750000D01*
X146045195Y-120790864D01*
X145837819Y-120871203D01*
X145678001Y-120970158D01*
X146269557Y-121561714D01*
X146249852Y-121564835D01*
X146136955Y-121622359D01*
X146047359Y-121711955D01*
X145989835Y-121824852D01*
X145986714Y-121844557D01*
X145396561Y-121254404D01*
X145350365Y-121315578D01*
X145251240Y-121514648D01*
X145190379Y-121728557D01*
X145190378Y-121728560D01*
X145169859Y-121949999D01*
X145169859Y-121950000D01*
X145190378Y-122171439D01*
X145190379Y-122171442D01*
X145251240Y-122385351D01*
X145351549Y-122586798D01*
X145372395Y-122672873D01*
X145353829Y-122759469D01*
X145299529Y-122829433D01*
X145220251Y-122868909D01*
X145173412Y-122874500D01*
X140260964Y-122874500D01*
X140174621Y-122854793D01*
X140105380Y-122799574D01*
X140088625Y-122775000D01*
X140087103Y-122772364D01*
X140081684Y-122764625D01*
X139961598Y-122593123D01*
X139806877Y-122438402D01*
X139806876Y-122438401D01*
X139806875Y-122438400D01*
X139627642Y-122312899D01*
X139627638Y-122312897D01*
X139622190Y-122310357D01*
X139552264Y-122256008D01*
X139512844Y-122176702D01*
X139511737Y-122088145D01*
X139549164Y-122007879D01*
X139617710Y-121951800D01*
X139622190Y-121949643D01*
X139623069Y-121949232D01*
X139627639Y-121947102D01*
X139806877Y-121821598D01*
X139961598Y-121666877D01*
X140087102Y-121487639D01*
X140179575Y-121289330D01*
X140236207Y-121077977D01*
X140255277Y-120860000D01*
X140236207Y-120642023D01*
X140179575Y-120430670D01*
X140087102Y-120232362D01*
X139961598Y-120053123D01*
X139806877Y-119898402D01*
X139806876Y-119898401D01*
X139806875Y-119898400D01*
X139627642Y-119772899D01*
X139627638Y-119772897D01*
X139622190Y-119770357D01*
X139552264Y-119716008D01*
X139512844Y-119636702D01*
X139511737Y-119548145D01*
X139549164Y-119467879D01*
X139617710Y-119411800D01*
X139622190Y-119409643D01*
X139623069Y-119409232D01*
X139627639Y-119407102D01*
X139806877Y-119281598D01*
X139961598Y-119126877D01*
X140087102Y-118947639D01*
X140179575Y-118749330D01*
X140236207Y-118537977D01*
X140255277Y-118320000D01*
X140236207Y-118102023D01*
X140179575Y-117890670D01*
X140087102Y-117692362D01*
X139980945Y-117540753D01*
X139961601Y-117513127D01*
X139961600Y-117513126D01*
X139961598Y-117513123D01*
X139806877Y-117358402D01*
X139806876Y-117358401D01*
X139806875Y-117358400D01*
X139627642Y-117232899D01*
X139627638Y-117232897D01*
X139622190Y-117230357D01*
X139552264Y-117176008D01*
X139512844Y-117096702D01*
X139511737Y-117008145D01*
X139549164Y-116927879D01*
X139617710Y-116871800D01*
X139622190Y-116869643D01*
X139623069Y-116869232D01*
X139627639Y-116867102D01*
X139806877Y-116741598D01*
X139961598Y-116586877D01*
X140087102Y-116407639D01*
X140179575Y-116209330D01*
X140236207Y-115997977D01*
X140255277Y-115780000D01*
X140236207Y-115562023D01*
X140179575Y-115350670D01*
X140166218Y-115322027D01*
X140087103Y-115152364D01*
X140057905Y-115110665D01*
X139961598Y-114973123D01*
X139806877Y-114818402D01*
X139806876Y-114818401D01*
X139806875Y-114818400D01*
X139627642Y-114692899D01*
X139627638Y-114692897D01*
X139622190Y-114690357D01*
X139552264Y-114636008D01*
X139512844Y-114556702D01*
X139511737Y-114468145D01*
X139549164Y-114387879D01*
X139617710Y-114331800D01*
X139622190Y-114329643D01*
X139623069Y-114329232D01*
X139627639Y-114327102D01*
X139806877Y-114201598D01*
X139961598Y-114046877D01*
X140087102Y-113867639D01*
X140179575Y-113669330D01*
X140236207Y-113457977D01*
X140255277Y-113240000D01*
X140236207Y-113022023D01*
X140179575Y-112810670D01*
X140166218Y-112782027D01*
X140087103Y-112612364D01*
X140057905Y-112570665D01*
X139961598Y-112433123D01*
X139806877Y-112278402D01*
X139806876Y-112278401D01*
X139806875Y-112278400D01*
X139627642Y-112152899D01*
X139627638Y-112152897D01*
X139622190Y-112150357D01*
X139552264Y-112096008D01*
X139512844Y-112016702D01*
X139511737Y-111928145D01*
X139549164Y-111847879D01*
X139617710Y-111791800D01*
X139622190Y-111789643D01*
X139623069Y-111789232D01*
X139627639Y-111787102D01*
X139806877Y-111661598D01*
X139961598Y-111506877D01*
X140087102Y-111327639D01*
X140179575Y-111129330D01*
X140236207Y-110917977D01*
X140255277Y-110700000D01*
X140236207Y-110482023D01*
X140179575Y-110270670D01*
X140166218Y-110242027D01*
X140087103Y-110072364D01*
X140062954Y-110037876D01*
X139961598Y-109893123D01*
X139806877Y-109738402D01*
X139806876Y-109738401D01*
X139806875Y-109738400D01*
X139627642Y-109612899D01*
X139627638Y-109612897D01*
X139622190Y-109610357D01*
X139552264Y-109556008D01*
X139512844Y-109476702D01*
X139511737Y-109388145D01*
X139549164Y-109307879D01*
X139617710Y-109251800D01*
X139622190Y-109249643D01*
X139623069Y-109249232D01*
X139627639Y-109247102D01*
X139806877Y-109121598D01*
X139961598Y-108966877D01*
X140087102Y-108787639D01*
X140179575Y-108589330D01*
X140236207Y-108377977D01*
X140255277Y-108160000D01*
X140236207Y-107942023D01*
X140179575Y-107730670D01*
X140166471Y-107702569D01*
X140087103Y-107532364D01*
X140057905Y-107490665D01*
X139961598Y-107353123D01*
X139806877Y-107198402D01*
X139806876Y-107198401D01*
X139806875Y-107198400D01*
X139627642Y-107072899D01*
X139627638Y-107072897D01*
X139622190Y-107070357D01*
X139552264Y-107016008D01*
X139512844Y-106936702D01*
X139511737Y-106848145D01*
X139549164Y-106767879D01*
X139617710Y-106711800D01*
X139622190Y-106709643D01*
X139623069Y-106709232D01*
X139627639Y-106707102D01*
X139806877Y-106581598D01*
X139961598Y-106426877D01*
X140087102Y-106247639D01*
X140179575Y-106049330D01*
X140236207Y-105837977D01*
X140255277Y-105620000D01*
X140236207Y-105402023D01*
X140179575Y-105190670D01*
X140166218Y-105162027D01*
X140087103Y-104992364D01*
X140057905Y-104950665D01*
X139961598Y-104813123D01*
X139806877Y-104658402D01*
X139806876Y-104658401D01*
X139806875Y-104658400D01*
X139627642Y-104532899D01*
X139627638Y-104532897D01*
X139622190Y-104530357D01*
X139552264Y-104476008D01*
X139512844Y-104396702D01*
X139511737Y-104308145D01*
X139549164Y-104227879D01*
X139617710Y-104171800D01*
X139622190Y-104169643D01*
X139623069Y-104169232D01*
X139627639Y-104167102D01*
X139806877Y-104041598D01*
X139961598Y-103886877D01*
X140087102Y-103707639D01*
X140179575Y-103509330D01*
X140236207Y-103297977D01*
X140255277Y-103080000D01*
X140236207Y-102862023D01*
X140179575Y-102650670D01*
X140166254Y-102622104D01*
X140087103Y-102452364D01*
X140060974Y-102415048D01*
X139961598Y-102273123D01*
X139806877Y-102118402D01*
X139806876Y-102118401D01*
X139806875Y-102118400D01*
X139627642Y-101992900D01*
X139627641Y-101992899D01*
X139627639Y-101992898D01*
X139621586Y-101990075D01*
X139551664Y-101935723D01*
X139512249Y-101856414D01*
X139511148Y-101767857D01*
X139548579Y-101687593D01*
X139617128Y-101631518D01*
X139621608Y-101629361D01*
X139627393Y-101626663D01*
X139806555Y-101501212D01*
X139961212Y-101346555D01*
X140086665Y-101167391D01*
X140086667Y-101167388D01*
X140179104Y-100969153D01*
X140179105Y-100969151D01*
X140235710Y-100757894D01*
X140235712Y-100757883D01*
X140237277Y-100740000D01*
X139462383Y-100740000D01*
X139500000Y-100611889D01*
X139500000Y-100468111D01*
X139462383Y-100340000D01*
X140237277Y-100340000D01*
X140237277Y-100339999D01*
X140235712Y-100322116D01*
X140235710Y-100322105D01*
X140179104Y-100110845D01*
X140179104Y-100110844D01*
X140086667Y-99912614D01*
X140086663Y-99912607D01*
X139961215Y-99733447D01*
X139806555Y-99578787D01*
X139627391Y-99453334D01*
X139627387Y-99453332D01*
X139621598Y-99450633D01*
X139551672Y-99396284D01*
X139512252Y-99316978D01*
X139511145Y-99228421D01*
X139548572Y-99148155D01*
X139617118Y-99092076D01*
X139621535Y-99089948D01*
X139627639Y-99087102D01*
X139806877Y-98961598D01*
X139961598Y-98806877D01*
X140087102Y-98627639D01*
X140179575Y-98429330D01*
X140236207Y-98217977D01*
X140255277Y-98000000D01*
X140236207Y-97782023D01*
X140179575Y-97570670D01*
X140087102Y-97372362D01*
X139961598Y-97193123D01*
X139806877Y-97038402D01*
X139806876Y-97038401D01*
X139806875Y-97038400D01*
X139627642Y-96912899D01*
X139627638Y-96912897D01*
X139622190Y-96910357D01*
X139552264Y-96856008D01*
X139512844Y-96776702D01*
X139511737Y-96688145D01*
X139549164Y-96607879D01*
X139617710Y-96551800D01*
X139622190Y-96549643D01*
X139623069Y-96549232D01*
X139627639Y-96547102D01*
X139806877Y-96421598D01*
X139961598Y-96266877D01*
X140087102Y-96087639D01*
X140179575Y-95889330D01*
X140236207Y-95677977D01*
X140255277Y-95460000D01*
X140236207Y-95242023D01*
X140179575Y-95030670D01*
X140088009Y-94834308D01*
X140087103Y-94832364D01*
X139961601Y-94653127D01*
X139961599Y-94653125D01*
X139961598Y-94653123D01*
X139806877Y-94498402D01*
X139806876Y-94498401D01*
X139806875Y-94498400D01*
X139627642Y-94372899D01*
X139627638Y-94372897D01*
X139622190Y-94370357D01*
X139552264Y-94316008D01*
X139512844Y-94236702D01*
X139511737Y-94148145D01*
X139549164Y-94067879D01*
X139617710Y-94011800D01*
X139622190Y-94009643D01*
X139623069Y-94009232D01*
X139627639Y-94007102D01*
X139806877Y-93881598D01*
X139961598Y-93726877D01*
X140087102Y-93547639D01*
X140179575Y-93349330D01*
X140236207Y-93137977D01*
X140243350Y-93056330D01*
X167595710Y-93056330D01*
X167625925Y-93279387D01*
X167625926Y-93279391D01*
X167625927Y-93279394D01*
X167695485Y-93493470D01*
X167802147Y-93691679D01*
X167802149Y-93691682D01*
X167942489Y-93867663D01*
X167942491Y-93867664D01*
X167942492Y-93867666D01*
X168031600Y-93945518D01*
X168050375Y-93961921D01*
X168102431Y-94033571D01*
X168118245Y-94120711D01*
X168094683Y-94206082D01*
X168036414Y-94272777D01*
X167998476Y-94294416D01*
X167989600Y-94298256D01*
X167848136Y-94381917D01*
X167731917Y-94498136D01*
X167648256Y-94639600D01*
X167602402Y-94797430D01*
X167599500Y-94834308D01*
X167599500Y-96165692D01*
X167602402Y-96202569D01*
X167648256Y-96360399D01*
X167731917Y-96501863D01*
X167848136Y-96618082D01*
X167966607Y-96688145D01*
X167989602Y-96701744D01*
X168147431Y-96747598D01*
X168184306Y-96750500D01*
X168184308Y-96750500D01*
X169815692Y-96750500D01*
X169815694Y-96750500D01*
X169852569Y-96747598D01*
X170010398Y-96701744D01*
X170151865Y-96618081D01*
X170268081Y-96501865D01*
X170351744Y-96360398D01*
X170397598Y-96202569D01*
X170400500Y-96165694D01*
X170400500Y-94834306D01*
X170397598Y-94797431D01*
X170351744Y-94639602D01*
X170268081Y-94498135D01*
X170151865Y-94381919D01*
X170151863Y-94381917D01*
X170010399Y-94298256D01*
X170004810Y-94295838D01*
X169933395Y-94243461D01*
X169891777Y-94165286D01*
X169888200Y-94076794D01*
X169923372Y-93995515D01*
X169966873Y-93952209D01*
X169976078Y-93945522D01*
X170131632Y-93782825D01*
X170255635Y-93594968D01*
X170344103Y-93387988D01*
X170394191Y-93168537D01*
X170404290Y-92943670D01*
X170374075Y-92720613D01*
X170304517Y-92506536D01*
X170304515Y-92506532D01*
X170304514Y-92506529D01*
X170241835Y-92390053D01*
X170197852Y-92308319D01*
X170057508Y-92132334D01*
X170019486Y-92099115D01*
X169887997Y-91984235D01*
X169887992Y-91984232D01*
X169694761Y-91868783D01*
X169694759Y-91868782D01*
X169484026Y-91789693D01*
X169262547Y-91749500D01*
X168793845Y-91749500D01*
X168738855Y-91754449D01*
X168625819Y-91764622D01*
X168625814Y-91764622D01*
X168625812Y-91764623D01*
X168625809Y-91764623D01*
X168625802Y-91764625D01*
X168408831Y-91824506D01*
X168206024Y-91922172D01*
X168023920Y-92054479D01*
X167868373Y-92217168D01*
X167868365Y-92217178D01*
X167744366Y-92405028D01*
X167655896Y-92612014D01*
X167605808Y-92831465D01*
X167595710Y-93056329D01*
X167595710Y-93056330D01*
X140243350Y-93056330D01*
X140255277Y-92920000D01*
X140236207Y-92702023D01*
X140179575Y-92490670D01*
X140087102Y-92292362D01*
X139961598Y-92113123D01*
X139806877Y-91958402D01*
X139806876Y-91958401D01*
X139806875Y-91958400D01*
X139627642Y-91832899D01*
X139627638Y-91832897D01*
X139622190Y-91830357D01*
X139552264Y-91776008D01*
X139512844Y-91696702D01*
X139511737Y-91608145D01*
X139549164Y-91527879D01*
X139617710Y-91471800D01*
X139622190Y-91469643D01*
X139623069Y-91469232D01*
X139627639Y-91467102D01*
X139806877Y-91341598D01*
X139961598Y-91186877D01*
X140087102Y-91007639D01*
X140179575Y-90809330D01*
X140236207Y-90597977D01*
X140255277Y-90380000D01*
X140236207Y-90162023D01*
X140179575Y-89950670D01*
X140087102Y-89752362D01*
X139961598Y-89573123D01*
X139806877Y-89418402D01*
X139806876Y-89418401D01*
X139806875Y-89418400D01*
X139627642Y-89292899D01*
X139627638Y-89292897D01*
X139622190Y-89290357D01*
X139552264Y-89236008D01*
X139512844Y-89156702D01*
X139511737Y-89068145D01*
X139549164Y-88987879D01*
X139617710Y-88931800D01*
X139622190Y-88929643D01*
X139623069Y-88929232D01*
X139627639Y-88927102D01*
X139806877Y-88801598D01*
X139961598Y-88646877D01*
X140087102Y-88467639D01*
X140179575Y-88269330D01*
X140236207Y-88057977D01*
X140255277Y-87840000D01*
X140236207Y-87622023D01*
X140203511Y-87500000D01*
X147744723Y-87500000D01*
X147763792Y-87717972D01*
X147763793Y-87717979D01*
X147820424Y-87929328D01*
X147820427Y-87929335D01*
X147912897Y-88127638D01*
X147912899Y-88127642D01*
X148038403Y-88306879D01*
X148193120Y-88461596D01*
X148372357Y-88587100D01*
X148372361Y-88587102D01*
X148570670Y-88679575D01*
X148782023Y-88736207D01*
X149000000Y-88755277D01*
X149217977Y-88736207D01*
X149429330Y-88679575D01*
X149627639Y-88587102D01*
X149806877Y-88461598D01*
X149961598Y-88306877D01*
X150087102Y-88127639D01*
X150179575Y-87929330D01*
X150236207Y-87717977D01*
X150255277Y-87500000D01*
X157745225Y-87500000D01*
X157764289Y-87717895D01*
X157820894Y-87929151D01*
X157820895Y-87929153D01*
X157913332Y-88127387D01*
X157913333Y-88127388D01*
X157985995Y-88231160D01*
X157985996Y-88231161D01*
X158532972Y-87684184D01*
X158540507Y-87709844D01*
X158618239Y-87830798D01*
X158726900Y-87924952D01*
X158816823Y-87966019D01*
X158268838Y-88514003D01*
X158268838Y-88514004D01*
X158372609Y-88586665D01*
X158372612Y-88586667D01*
X158570846Y-88679104D01*
X158570848Y-88679105D01*
X158782104Y-88735710D01*
X159000000Y-88754774D01*
X159217895Y-88735710D01*
X159429151Y-88679105D01*
X159429153Y-88679104D01*
X159627388Y-88586667D01*
X159627391Y-88586665D01*
X159731160Y-88514004D01*
X159731160Y-88514003D01*
X159183176Y-87966018D01*
X159273100Y-87924952D01*
X159381761Y-87830798D01*
X159459493Y-87709844D01*
X159467027Y-87684184D01*
X160014003Y-88231160D01*
X160014004Y-88231160D01*
X160086665Y-88127391D01*
X160086667Y-88127388D01*
X160179104Y-87929153D01*
X160179105Y-87929151D01*
X160235710Y-87717895D01*
X160254774Y-87500000D01*
X160235710Y-87282104D01*
X160179104Y-87070845D01*
X160179104Y-87070844D01*
X160086670Y-86872619D01*
X160086669Y-86872617D01*
X160014002Y-86768839D01*
X159467027Y-87315814D01*
X159459493Y-87290156D01*
X159381761Y-87169202D01*
X159273100Y-87075048D01*
X159183176Y-87033981D01*
X159731161Y-86485996D01*
X159731160Y-86485995D01*
X159627388Y-86413333D01*
X159627387Y-86413332D01*
X159429153Y-86320895D01*
X159429151Y-86320894D01*
X159217895Y-86264289D01*
X159000000Y-86245225D01*
X158782104Y-86264289D01*
X158570845Y-86320895D01*
X158570844Y-86320895D01*
X158372614Y-86413332D01*
X158372613Y-86413332D01*
X158268839Y-86485995D01*
X158268839Y-86485996D01*
X158816823Y-87033980D01*
X158726900Y-87075048D01*
X158618239Y-87169202D01*
X158540507Y-87290156D01*
X158532972Y-87315815D01*
X157985996Y-86768839D01*
X157985995Y-86768839D01*
X157913332Y-86872613D01*
X157913332Y-86872614D01*
X157820895Y-87070844D01*
X157820895Y-87070845D01*
X157764289Y-87282104D01*
X157745225Y-87500000D01*
X150255277Y-87500000D01*
X150236207Y-87282023D01*
X150179575Y-87070670D01*
X150162068Y-87033127D01*
X150087103Y-86872364D01*
X149961601Y-86693127D01*
X149961599Y-86693125D01*
X149961598Y-86693123D01*
X149806877Y-86538402D01*
X149806876Y-86538401D01*
X149806875Y-86538400D01*
X149627642Y-86412899D01*
X149627638Y-86412897D01*
X149429335Y-86320427D01*
X149429328Y-86320424D01*
X149217979Y-86263793D01*
X149217972Y-86263792D01*
X149000000Y-86244723D01*
X148782027Y-86263792D01*
X148782020Y-86263793D01*
X148570671Y-86320424D01*
X148570665Y-86320426D01*
X148372364Y-86412896D01*
X148193127Y-86538398D01*
X148193119Y-86538405D01*
X148038405Y-86693119D01*
X148038398Y-86693127D01*
X147912896Y-86872364D01*
X147820426Y-87070665D01*
X147820424Y-87070671D01*
X147763793Y-87282020D01*
X147763792Y-87282027D01*
X147744723Y-87500000D01*
X140203511Y-87500000D01*
X140179575Y-87410670D01*
X140119623Y-87282104D01*
X140087103Y-87212364D01*
X139961601Y-87033127D01*
X139961599Y-87033125D01*
X139961598Y-87033123D01*
X139806877Y-86878402D01*
X139806876Y-86878401D01*
X139806875Y-86878400D01*
X139627642Y-86752900D01*
X139627641Y-86752899D01*
X139627639Y-86752898D01*
X139621586Y-86750075D01*
X139551664Y-86695723D01*
X139512249Y-86616414D01*
X139511148Y-86527857D01*
X139548579Y-86447593D01*
X139617128Y-86391518D01*
X139621608Y-86389361D01*
X139627393Y-86386663D01*
X139806555Y-86261212D01*
X139961212Y-86106555D01*
X140086665Y-85927391D01*
X140086667Y-85927388D01*
X140179104Y-85729153D01*
X140179105Y-85729151D01*
X140235710Y-85517894D01*
X140235712Y-85517883D01*
X140237277Y-85500000D01*
X139462383Y-85500000D01*
X139500000Y-85371889D01*
X139500000Y-85228111D01*
X139462383Y-85100000D01*
X140237277Y-85100000D01*
X140237277Y-85099999D01*
X140235712Y-85082116D01*
X140235710Y-85082105D01*
X140179104Y-84870845D01*
X140179104Y-84870844D01*
X140086667Y-84672614D01*
X140086663Y-84672607D01*
X139961215Y-84493447D01*
X139806555Y-84338787D01*
X139627391Y-84213334D01*
X139627388Y-84213332D01*
X139429153Y-84120895D01*
X139429151Y-84120894D01*
X139217894Y-84064289D01*
X139217891Y-84064288D01*
X139200000Y-84062722D01*
X139200000Y-84841664D01*
X139142315Y-84815320D01*
X139035763Y-84800000D01*
X138964237Y-84800000D01*
X138857685Y-84815320D01*
X138800000Y-84841664D01*
X138800000Y-84062722D01*
X138782108Y-84064288D01*
X138782105Y-84064289D01*
X138570845Y-84120895D01*
X138570844Y-84120895D01*
X138372614Y-84213332D01*
X138372607Y-84213336D01*
X138193447Y-84338784D01*
X138193445Y-84338787D01*
X138038787Y-84493445D01*
X138038784Y-84493447D01*
X137913336Y-84672607D01*
X137913332Y-84672614D01*
X137820895Y-84870844D01*
X137820895Y-84870845D01*
X137764289Y-85082105D01*
X137764287Y-85082116D01*
X137762722Y-85099999D01*
X137762723Y-85100000D01*
X138537617Y-85100000D01*
X138500000Y-85228111D01*
X138500000Y-85371889D01*
X138537617Y-85500000D01*
X137762723Y-85500000D01*
X137764287Y-85517883D01*
X137764289Y-85517894D01*
X137820894Y-85729151D01*
X137820895Y-85729153D01*
X137913332Y-85927388D01*
X137913334Y-85927391D01*
X138038787Y-86106555D01*
X138193444Y-86261212D01*
X138372608Y-86386665D01*
X138372612Y-86386667D01*
X138378406Y-86389369D01*
X138448331Y-86443720D01*
X138487749Y-86523028D01*
X138488853Y-86611584D01*
X138451424Y-86691850D01*
X138382876Y-86747927D01*
X138378411Y-86750077D01*
X138372363Y-86752897D01*
X138193127Y-86878398D01*
X138193119Y-86878405D01*
X138038405Y-87033119D01*
X138038398Y-87033127D01*
X137912896Y-87212364D01*
X137820426Y-87410665D01*
X137820424Y-87410671D01*
X137763793Y-87622020D01*
X137763792Y-87622027D01*
X137744723Y-87840000D01*
X137763792Y-88057972D01*
X137763793Y-88057979D01*
X137820424Y-88269328D01*
X137820427Y-88269335D01*
X137912897Y-88467638D01*
X137912899Y-88467642D01*
X138038403Y-88646879D01*
X138193120Y-88801596D01*
X138372357Y-88927100D01*
X138372360Y-88927101D01*
X138372361Y-88927102D01*
X138377815Y-88929645D01*
X138447739Y-88983996D01*
X138487157Y-89063304D01*
X138488260Y-89151860D01*
X138450832Y-89232126D01*
X138382284Y-89288203D01*
X138377820Y-89290353D01*
X138372362Y-89292898D01*
X138193127Y-89418398D01*
X138193119Y-89418405D01*
X138038405Y-89573119D01*
X138038398Y-89573127D01*
X137912896Y-89752364D01*
X137820426Y-89950665D01*
X137820424Y-89950671D01*
X137763793Y-90162020D01*
X137763792Y-90162027D01*
X137744723Y-90380000D01*
X137763792Y-90597972D01*
X137763793Y-90597979D01*
X137820424Y-90809328D01*
X137820427Y-90809335D01*
X137912897Y-91007638D01*
X137912899Y-91007642D01*
X138038403Y-91186879D01*
X138193120Y-91341596D01*
X138372357Y-91467100D01*
X138372360Y-91467101D01*
X138372361Y-91467102D01*
X138377815Y-91469645D01*
X138447739Y-91523996D01*
X138487157Y-91603304D01*
X138488260Y-91691860D01*
X138450832Y-91772126D01*
X138382284Y-91828203D01*
X138377820Y-91830353D01*
X138372362Y-91832898D01*
X138193127Y-91958398D01*
X138193119Y-91958405D01*
X138038405Y-92113119D01*
X138038398Y-92113127D01*
X137912896Y-92292364D01*
X137820426Y-92490665D01*
X137820424Y-92490671D01*
X137763793Y-92702020D01*
X137763792Y-92702027D01*
X137744723Y-92920000D01*
X137763792Y-93137972D01*
X137763793Y-93137979D01*
X137820424Y-93349328D01*
X137820427Y-93349335D01*
X137912897Y-93547638D01*
X137912899Y-93547642D01*
X138038403Y-93726879D01*
X138193120Y-93881596D01*
X138372357Y-94007100D01*
X138372360Y-94007101D01*
X138372361Y-94007102D01*
X138377815Y-94009645D01*
X138447739Y-94063996D01*
X138487157Y-94143304D01*
X138488260Y-94231860D01*
X138450832Y-94312126D01*
X138382284Y-94368203D01*
X138377820Y-94370353D01*
X138372362Y-94372898D01*
X138193127Y-94498398D01*
X138193119Y-94498405D01*
X138038405Y-94653119D01*
X138038398Y-94653127D01*
X137912896Y-94832364D01*
X137820426Y-95030665D01*
X137820424Y-95030671D01*
X137763793Y-95242020D01*
X137763792Y-95242027D01*
X137744723Y-95460000D01*
X137763792Y-95677972D01*
X137763793Y-95677979D01*
X137820424Y-95889328D01*
X137820427Y-95889335D01*
X137912897Y-96087638D01*
X137912899Y-96087642D01*
X138038403Y-96266879D01*
X138193120Y-96421596D01*
X138372357Y-96547100D01*
X138372360Y-96547101D01*
X138372361Y-96547102D01*
X138377815Y-96549645D01*
X138447739Y-96603996D01*
X138487157Y-96683304D01*
X138488260Y-96771860D01*
X138450832Y-96852126D01*
X138382284Y-96908203D01*
X138377820Y-96910353D01*
X138372362Y-96912898D01*
X138193127Y-97038398D01*
X138193119Y-97038405D01*
X138038405Y-97193119D01*
X138038398Y-97193127D01*
X137912896Y-97372364D01*
X137820426Y-97570665D01*
X137820424Y-97570671D01*
X137763793Y-97782020D01*
X137763792Y-97782027D01*
X137744723Y-98000000D01*
X137763792Y-98217972D01*
X137763793Y-98217979D01*
X137820424Y-98429328D01*
X137820427Y-98429335D01*
X137912897Y-98627638D01*
X137912899Y-98627642D01*
X138038403Y-98806879D01*
X138193120Y-98961596D01*
X138372357Y-99087100D01*
X138372360Y-99087102D01*
X138378406Y-99089921D01*
X138448331Y-99144272D01*
X138487749Y-99223579D01*
X138488853Y-99312136D01*
X138451424Y-99392401D01*
X138382876Y-99448478D01*
X138378412Y-99450629D01*
X138372609Y-99453334D01*
X138372607Y-99453336D01*
X138193447Y-99578784D01*
X138193445Y-99578787D01*
X138038787Y-99733445D01*
X138038784Y-99733447D01*
X137913336Y-99912607D01*
X137913332Y-99912614D01*
X137820895Y-100110844D01*
X137820895Y-100110845D01*
X137764289Y-100322105D01*
X137764287Y-100322116D01*
X137762722Y-100339999D01*
X137762723Y-100340000D01*
X138537617Y-100340000D01*
X138500000Y-100468111D01*
X138500000Y-100611889D01*
X138537617Y-100740000D01*
X137762723Y-100740000D01*
X137764287Y-100757883D01*
X137764289Y-100757894D01*
X137820894Y-100969151D01*
X137820895Y-100969153D01*
X137913332Y-101167388D01*
X137913334Y-101167391D01*
X138038787Y-101346555D01*
X138193444Y-101501212D01*
X138372608Y-101626665D01*
X138372612Y-101626667D01*
X138378406Y-101629369D01*
X138448331Y-101683720D01*
X138487749Y-101763028D01*
X138488853Y-101851584D01*
X138451424Y-101931850D01*
X138382876Y-101987927D01*
X138378411Y-101990077D01*
X138372363Y-101992897D01*
X138193127Y-102118398D01*
X138193119Y-102118405D01*
X138038405Y-102273119D01*
X138038398Y-102273127D01*
X137912896Y-102452364D01*
X137820426Y-102650665D01*
X137820424Y-102650671D01*
X137763793Y-102862020D01*
X137763792Y-102862027D01*
X137744723Y-103080000D01*
X137763792Y-103297972D01*
X137763793Y-103297979D01*
X137820424Y-103509328D01*
X137820427Y-103509335D01*
X137912897Y-103707638D01*
X137912899Y-103707642D01*
X138038403Y-103886879D01*
X138193120Y-104041596D01*
X138372357Y-104167100D01*
X138372360Y-104167101D01*
X138372361Y-104167102D01*
X138377815Y-104169645D01*
X138447739Y-104223996D01*
X138487157Y-104303304D01*
X138488260Y-104391860D01*
X138450832Y-104472126D01*
X138382284Y-104528203D01*
X138377820Y-104530353D01*
X138372362Y-104532898D01*
X138193127Y-104658398D01*
X138193119Y-104658405D01*
X138038405Y-104813119D01*
X138038398Y-104813127D01*
X137912896Y-104992364D01*
X137820426Y-105190665D01*
X137820424Y-105190671D01*
X137763793Y-105402020D01*
X137763792Y-105402027D01*
X137744723Y-105620000D01*
X137763792Y-105837972D01*
X137763793Y-105837979D01*
X137820424Y-106049328D01*
X137820427Y-106049335D01*
X137912897Y-106247638D01*
X137912899Y-106247642D01*
X138038403Y-106426879D01*
X138193120Y-106581596D01*
X138372357Y-106707100D01*
X138372360Y-106707101D01*
X138372361Y-106707102D01*
X138377815Y-106709645D01*
X138447739Y-106763996D01*
X138487157Y-106843304D01*
X138488260Y-106931860D01*
X138450832Y-107012126D01*
X138382284Y-107068203D01*
X138377820Y-107070353D01*
X138372362Y-107072898D01*
X138193127Y-107198398D01*
X138193119Y-107198405D01*
X138038405Y-107353119D01*
X138038398Y-107353127D01*
X137912896Y-107532364D01*
X137820426Y-107730665D01*
X137820424Y-107730671D01*
X137763793Y-107942020D01*
X137763792Y-107942027D01*
X137744723Y-108160000D01*
X137763792Y-108377972D01*
X137763793Y-108377979D01*
X137820424Y-108589328D01*
X137820427Y-108589335D01*
X137912897Y-108787638D01*
X137912899Y-108787642D01*
X138038403Y-108966879D01*
X138193120Y-109121596D01*
X138372357Y-109247100D01*
X138372360Y-109247101D01*
X138372361Y-109247102D01*
X138377815Y-109249645D01*
X138447739Y-109303996D01*
X138487157Y-109383304D01*
X138488260Y-109471860D01*
X138450832Y-109552126D01*
X138382284Y-109608203D01*
X138377820Y-109610353D01*
X138372362Y-109612898D01*
X138193127Y-109738398D01*
X138193119Y-109738405D01*
X138038405Y-109893119D01*
X138038398Y-109893127D01*
X137912896Y-110072364D01*
X137820426Y-110270665D01*
X137820424Y-110270671D01*
X137763793Y-110482020D01*
X137763792Y-110482027D01*
X137744723Y-110700000D01*
X137763792Y-110917972D01*
X137763793Y-110917979D01*
X137820424Y-111129328D01*
X137820427Y-111129335D01*
X137912897Y-111327638D01*
X137912899Y-111327642D01*
X138038403Y-111506879D01*
X138193120Y-111661596D01*
X138372357Y-111787100D01*
X138372360Y-111787101D01*
X138372361Y-111787102D01*
X138377815Y-111789645D01*
X138447739Y-111843996D01*
X138487157Y-111923304D01*
X138488260Y-112011860D01*
X138450832Y-112092126D01*
X138382284Y-112148203D01*
X138377820Y-112150353D01*
X138372362Y-112152898D01*
X138193127Y-112278398D01*
X138193119Y-112278405D01*
X138038405Y-112433119D01*
X138038398Y-112433127D01*
X137912896Y-112612364D01*
X137820426Y-112810665D01*
X137820424Y-112810671D01*
X137763793Y-113022020D01*
X137763792Y-113022027D01*
X137744723Y-113240000D01*
X137763792Y-113457972D01*
X137763793Y-113457979D01*
X137820424Y-113669328D01*
X137820427Y-113669335D01*
X137912897Y-113867638D01*
X137912899Y-113867642D01*
X138038403Y-114046879D01*
X138193120Y-114201596D01*
X138372357Y-114327100D01*
X138372360Y-114327101D01*
X138372361Y-114327102D01*
X138377815Y-114329645D01*
X138447739Y-114383996D01*
X138487157Y-114463304D01*
X138488260Y-114551860D01*
X138450832Y-114632126D01*
X138382284Y-114688203D01*
X138377820Y-114690353D01*
X138372362Y-114692898D01*
X138193127Y-114818398D01*
X138193119Y-114818405D01*
X138038405Y-114973119D01*
X138038398Y-114973127D01*
X137912896Y-115152364D01*
X137820426Y-115350665D01*
X137820424Y-115350671D01*
X137763793Y-115562020D01*
X137763792Y-115562027D01*
X137744723Y-115780000D01*
X137763792Y-115997972D01*
X137763793Y-115997979D01*
X137820424Y-116209328D01*
X137820427Y-116209335D01*
X137912897Y-116407638D01*
X137912899Y-116407642D01*
X138038403Y-116586879D01*
X138193120Y-116741596D01*
X138372357Y-116867100D01*
X138372360Y-116867101D01*
X138372361Y-116867102D01*
X138377815Y-116869645D01*
X138447739Y-116923996D01*
X138487157Y-117003304D01*
X138488260Y-117091860D01*
X138450832Y-117172126D01*
X138382284Y-117228203D01*
X138377827Y-117230349D01*
X138372364Y-117232897D01*
X138372362Y-117232898D01*
X138193127Y-117358398D01*
X138193119Y-117358405D01*
X138038405Y-117513119D01*
X138038398Y-117513127D01*
X137912896Y-117692364D01*
X137820426Y-117890665D01*
X137820424Y-117890671D01*
X137763793Y-118102020D01*
X137763792Y-118102027D01*
X137744723Y-118320000D01*
X137763792Y-118537972D01*
X137763793Y-118537979D01*
X137820424Y-118749328D01*
X137820427Y-118749335D01*
X137912897Y-118947638D01*
X137912899Y-118947642D01*
X138038403Y-119126879D01*
X138193120Y-119281596D01*
X138372357Y-119407100D01*
X138372360Y-119407101D01*
X138372361Y-119407102D01*
X138377815Y-119409645D01*
X138447739Y-119463996D01*
X138487157Y-119543304D01*
X138488260Y-119631860D01*
X138450832Y-119712126D01*
X138382284Y-119768203D01*
X138377820Y-119770353D01*
X138372362Y-119772898D01*
X138193127Y-119898398D01*
X138193119Y-119898405D01*
X138038405Y-120053119D01*
X138038398Y-120053127D01*
X137912896Y-120232364D01*
X137820426Y-120430665D01*
X137820424Y-120430671D01*
X137763793Y-120642020D01*
X137763792Y-120642027D01*
X137744723Y-120860000D01*
X137763792Y-121077972D01*
X137763793Y-121077979D01*
X137820424Y-121289328D01*
X137820427Y-121289335D01*
X137912897Y-121487638D01*
X137912899Y-121487642D01*
X138038403Y-121666879D01*
X138193120Y-121821596D01*
X138372357Y-121947100D01*
X138372360Y-121947101D01*
X138372361Y-121947102D01*
X138377815Y-121949645D01*
X138447739Y-122003996D01*
X138487157Y-122083304D01*
X138488260Y-122171860D01*
X138450832Y-122252126D01*
X138382284Y-122308203D01*
X138377820Y-122310353D01*
X138372362Y-122312898D01*
X138193127Y-122438398D01*
X138193119Y-122438405D01*
X138038405Y-122593119D01*
X138038398Y-122593127D01*
X137912896Y-122772364D01*
X137820426Y-122970665D01*
X137820424Y-122970671D01*
X137763793Y-123182020D01*
X137763792Y-123182027D01*
X137744723Y-123400000D01*
X137763792Y-123617972D01*
X137763793Y-123617979D01*
X137820424Y-123829328D01*
X137820427Y-123829335D01*
X137912897Y-124027638D01*
X137912899Y-124027642D01*
X138038403Y-124206879D01*
X138193120Y-124361596D01*
X138372357Y-124487100D01*
X138372360Y-124487101D01*
X138372361Y-124487102D01*
X138377815Y-124489645D01*
X138447739Y-124543996D01*
X138487157Y-124623304D01*
X138488260Y-124711860D01*
X138450832Y-124792126D01*
X138382284Y-124848203D01*
X138377820Y-124850353D01*
X138372362Y-124852898D01*
X138193127Y-124978398D01*
X138193119Y-124978405D01*
X138038405Y-125133119D01*
X138038398Y-125133127D01*
X137912896Y-125312364D01*
X137820426Y-125510665D01*
X137820424Y-125510671D01*
X137763793Y-125722020D01*
X137763792Y-125722027D01*
X137744723Y-125940000D01*
X137763792Y-126157972D01*
X137763793Y-126157979D01*
X137820424Y-126369328D01*
X137820427Y-126369335D01*
X137912897Y-126567638D01*
X137912899Y-126567642D01*
X138038403Y-126746879D01*
X138193120Y-126901596D01*
X138372357Y-127027100D01*
X138372360Y-127027101D01*
X138372361Y-127027102D01*
X138377815Y-127029645D01*
X138447739Y-127083996D01*
X138487157Y-127163304D01*
X138488260Y-127251860D01*
X138450832Y-127332126D01*
X138382284Y-127388203D01*
X138377820Y-127390353D01*
X138372362Y-127392898D01*
X138193127Y-127518398D01*
X138193119Y-127518405D01*
X138038405Y-127673119D01*
X138038398Y-127673127D01*
X137912896Y-127852364D01*
X137820426Y-128050665D01*
X137820424Y-128050671D01*
X137763793Y-128262020D01*
X137763792Y-128262027D01*
X137744723Y-128480000D01*
X137763792Y-128697972D01*
X137763793Y-128697979D01*
X137820424Y-128909328D01*
X137820427Y-128909335D01*
X137912897Y-129107638D01*
X137912899Y-129107642D01*
X138038403Y-129286879D01*
X138193120Y-129441596D01*
X138372357Y-129567100D01*
X138372360Y-129567101D01*
X138372361Y-129567102D01*
X138377815Y-129569645D01*
X138447739Y-129623996D01*
X138487157Y-129703304D01*
X138488260Y-129791860D01*
X138450832Y-129872126D01*
X138382284Y-129928203D01*
X138377820Y-129930353D01*
X138372362Y-129932898D01*
X138193127Y-130058398D01*
X138193119Y-130058405D01*
X138038405Y-130213119D01*
X138038398Y-130213127D01*
X137912898Y-130392362D01*
X137819522Y-130592606D01*
X137765171Y-130662530D01*
X137685863Y-130701948D01*
X137597307Y-130703051D01*
X137517041Y-130665623D01*
X137498453Y-130649218D01*
X133408786Y-126559551D01*
X133361667Y-126484563D01*
X133350500Y-126418837D01*
X133350500Y-125841019D01*
X133370207Y-125754676D01*
X133425426Y-125685435D01*
X133444729Y-125671833D01*
X133476562Y-125652124D01*
X133640981Y-125502236D01*
X133775058Y-125324689D01*
X133874229Y-125125528D01*
X133935115Y-124911536D01*
X133955487Y-124691681D01*
X133955643Y-124690001D01*
X133955643Y-124689998D01*
X133946837Y-124594968D01*
X133935115Y-124468464D01*
X133874229Y-124254472D01*
X133775058Y-124055311D01*
X133775055Y-124055307D01*
X133775054Y-124055305D01*
X133640984Y-123877768D01*
X133640981Y-123877764D01*
X133476562Y-123727876D01*
X133287401Y-123610753D01*
X133079940Y-123530382D01*
X132861243Y-123489500D01*
X132638757Y-123489500D01*
X132420060Y-123530382D01*
X132212599Y-123610753D01*
X132212598Y-123610753D01*
X132212597Y-123610754D01*
X132212595Y-123610755D01*
X132023442Y-123727873D01*
X132023440Y-123727874D01*
X132023438Y-123727876D01*
X131859019Y-123877764D01*
X131859015Y-123877768D01*
X131724945Y-124055305D01*
X131724941Y-124055312D01*
X131625773Y-124254468D01*
X131625770Y-124254474D01*
X131564885Y-124468460D01*
X131564885Y-124468464D01*
X131544357Y-124689998D01*
X131544357Y-124690001D01*
X127205643Y-124690001D01*
X127205643Y-124689998D01*
X127196837Y-124594968D01*
X127185115Y-124468464D01*
X127124229Y-124254472D01*
X127025058Y-124055311D01*
X127025055Y-124055307D01*
X127025054Y-124055305D01*
X126890984Y-123877768D01*
X126890981Y-123877764D01*
X126726562Y-123727876D01*
X126537401Y-123610753D01*
X126329940Y-123530382D01*
X126111243Y-123489500D01*
X125888757Y-123489500D01*
X125670060Y-123530382D01*
X125462599Y-123610753D01*
X125462598Y-123610753D01*
X125462597Y-123610754D01*
X125462595Y-123610755D01*
X125273442Y-123727873D01*
X125273440Y-123727874D01*
X125273438Y-123727876D01*
X125109019Y-123877764D01*
X125109015Y-123877768D01*
X124974945Y-124055305D01*
X124974941Y-124055312D01*
X124875773Y-124254468D01*
X124875770Y-124254474D01*
X124814885Y-124468460D01*
X124814885Y-124468464D01*
X124794357Y-124689998D01*
X124794357Y-124690001D01*
X120205643Y-124690001D01*
X120205643Y-124689998D01*
X120196837Y-124594968D01*
X120185115Y-124468464D01*
X120124229Y-124254472D01*
X120025058Y-124055311D01*
X120025055Y-124055307D01*
X120025054Y-124055305D01*
X119890984Y-123877768D01*
X119890981Y-123877764D01*
X119726562Y-123727876D01*
X119537401Y-123610753D01*
X119329940Y-123530382D01*
X119111243Y-123489500D01*
X118888757Y-123489500D01*
X118670060Y-123530382D01*
X118462599Y-123610753D01*
X118462598Y-123610753D01*
X118462597Y-123610754D01*
X118462595Y-123610755D01*
X118273442Y-123727873D01*
X118273440Y-123727874D01*
X118273438Y-123727876D01*
X118109019Y-123877764D01*
X118109015Y-123877768D01*
X117974945Y-124055305D01*
X117974941Y-124055312D01*
X117875773Y-124254468D01*
X117875770Y-124254474D01*
X117814885Y-124468460D01*
X117814885Y-124468464D01*
X117794357Y-124689998D01*
X117794357Y-124690001D01*
X114112510Y-124690001D01*
X114111737Y-124628145D01*
X114149164Y-124547879D01*
X114217710Y-124491800D01*
X114222190Y-124489643D01*
X114223069Y-124489232D01*
X114227639Y-124487102D01*
X114406877Y-124361598D01*
X114561598Y-124206877D01*
X114687102Y-124027639D01*
X114779575Y-123829330D01*
X114836207Y-123617977D01*
X114855277Y-123400000D01*
X114836207Y-123182023D01*
X114779575Y-122970670D01*
X114756959Y-122922171D01*
X114687103Y-122772364D01*
X114681684Y-122764625D01*
X114561598Y-122593123D01*
X114406877Y-122438402D01*
X114406876Y-122438401D01*
X114406875Y-122438400D01*
X114227642Y-122312899D01*
X114227638Y-122312897D01*
X114222190Y-122310357D01*
X114152264Y-122256008D01*
X114112844Y-122176702D01*
X114111737Y-122088145D01*
X114149164Y-122007879D01*
X114217710Y-121951800D01*
X114222190Y-121949643D01*
X114223069Y-121949232D01*
X114227639Y-121947102D01*
X114406877Y-121821598D01*
X114561598Y-121666877D01*
X114687102Y-121487639D01*
X114779575Y-121289330D01*
X114836207Y-121077977D01*
X114855277Y-120860000D01*
X114836207Y-120642023D01*
X114779575Y-120430670D01*
X114687102Y-120232362D01*
X114561598Y-120053123D01*
X114406877Y-119898402D01*
X114406876Y-119898401D01*
X114406875Y-119898400D01*
X114227642Y-119772900D01*
X114227641Y-119772899D01*
X114227639Y-119772898D01*
X114221586Y-119770075D01*
X114151664Y-119715723D01*
X114112249Y-119636414D01*
X114111148Y-119547857D01*
X114148579Y-119467593D01*
X114217128Y-119411518D01*
X114221608Y-119409361D01*
X114227393Y-119406663D01*
X114406555Y-119281212D01*
X114561212Y-119126555D01*
X114686665Y-118947391D01*
X114686667Y-118947388D01*
X114779104Y-118749153D01*
X114779105Y-118749151D01*
X114835710Y-118537894D01*
X114835712Y-118537883D01*
X114837277Y-118520000D01*
X114062383Y-118520000D01*
X114100000Y-118391889D01*
X114100000Y-118248111D01*
X114062383Y-118120000D01*
X114837277Y-118120000D01*
X114837277Y-118119999D01*
X114835712Y-118102116D01*
X114835710Y-118102105D01*
X114779104Y-117890845D01*
X114779104Y-117890844D01*
X114686667Y-117692614D01*
X114686663Y-117692607D01*
X114561215Y-117513447D01*
X114406555Y-117358787D01*
X114227391Y-117233334D01*
X114227387Y-117233332D01*
X114221598Y-117230633D01*
X114151672Y-117176284D01*
X114112252Y-117096978D01*
X114111145Y-117008421D01*
X114148572Y-116928155D01*
X114217118Y-116872076D01*
X114221535Y-116869948D01*
X114227639Y-116867102D01*
X114406877Y-116741598D01*
X114561598Y-116586877D01*
X114687102Y-116407639D01*
X114779575Y-116209330D01*
X114836207Y-115997977D01*
X114855277Y-115780000D01*
X114836207Y-115562023D01*
X114779575Y-115350670D01*
X114766218Y-115322027D01*
X114687103Y-115152364D01*
X114657905Y-115110665D01*
X114561598Y-114973123D01*
X114406877Y-114818402D01*
X114406876Y-114818401D01*
X114406875Y-114818400D01*
X114227642Y-114692899D01*
X114227638Y-114692897D01*
X114222190Y-114690357D01*
X114152264Y-114636008D01*
X114112844Y-114556702D01*
X114111737Y-114468145D01*
X114149164Y-114387879D01*
X114217710Y-114331800D01*
X114222190Y-114329643D01*
X114223069Y-114329232D01*
X114227639Y-114327102D01*
X114406877Y-114201598D01*
X114561598Y-114046877D01*
X114687102Y-113867639D01*
X114779575Y-113669330D01*
X114836207Y-113457977D01*
X114855277Y-113240000D01*
X114836207Y-113022023D01*
X114779575Y-112810670D01*
X114766218Y-112782027D01*
X114687103Y-112612364D01*
X114657905Y-112570665D01*
X114561598Y-112433123D01*
X114406877Y-112278402D01*
X114406876Y-112278401D01*
X114406875Y-112278400D01*
X114227642Y-112152899D01*
X114227638Y-112152897D01*
X114222190Y-112150357D01*
X114152264Y-112096008D01*
X114112844Y-112016702D01*
X114111737Y-111928145D01*
X114149164Y-111847879D01*
X114217710Y-111791800D01*
X114222190Y-111789643D01*
X114223069Y-111789232D01*
X114227639Y-111787102D01*
X114406877Y-111661598D01*
X114561598Y-111506877D01*
X114687102Y-111327639D01*
X114779575Y-111129330D01*
X114836207Y-110917977D01*
X114855277Y-110700000D01*
X114836207Y-110482023D01*
X114779575Y-110270670D01*
X114766218Y-110242027D01*
X114687103Y-110072364D01*
X114662954Y-110037876D01*
X114561598Y-109893123D01*
X114406877Y-109738402D01*
X114406876Y-109738401D01*
X114406875Y-109738400D01*
X114227642Y-109612899D01*
X114227638Y-109612897D01*
X114222190Y-109610357D01*
X114152264Y-109556008D01*
X114112844Y-109476702D01*
X114111737Y-109388145D01*
X114149164Y-109307879D01*
X114217710Y-109251800D01*
X114222190Y-109249643D01*
X114223069Y-109249232D01*
X114227639Y-109247102D01*
X114406877Y-109121598D01*
X114561598Y-108966877D01*
X114687102Y-108787639D01*
X114779575Y-108589330D01*
X114836207Y-108377977D01*
X114855277Y-108160000D01*
X114836207Y-107942023D01*
X114779575Y-107730670D01*
X114766471Y-107702569D01*
X114687103Y-107532364D01*
X114657905Y-107490665D01*
X114561598Y-107353123D01*
X114406877Y-107198402D01*
X114406876Y-107198401D01*
X114406875Y-107198400D01*
X114227642Y-107072899D01*
X114227638Y-107072897D01*
X114222190Y-107070357D01*
X114152264Y-107016008D01*
X114112844Y-106936702D01*
X114111737Y-106848145D01*
X114149164Y-106767879D01*
X114217710Y-106711800D01*
X114222190Y-106709643D01*
X114223069Y-106709232D01*
X114227639Y-106707102D01*
X114406877Y-106581598D01*
X114561598Y-106426877D01*
X114687102Y-106247639D01*
X114779575Y-106049330D01*
X114836207Y-105837977D01*
X114855277Y-105620000D01*
X114836207Y-105402023D01*
X114779575Y-105190670D01*
X114766218Y-105162027D01*
X114687103Y-104992364D01*
X114657905Y-104950665D01*
X114561598Y-104813123D01*
X114406877Y-104658402D01*
X114406876Y-104658401D01*
X114406875Y-104658400D01*
X114227642Y-104532899D01*
X114227638Y-104532897D01*
X114222190Y-104530357D01*
X114152264Y-104476008D01*
X114112844Y-104396702D01*
X114111737Y-104308145D01*
X114149164Y-104227879D01*
X114217710Y-104171800D01*
X114222190Y-104169643D01*
X114223069Y-104169232D01*
X114227639Y-104167102D01*
X114406877Y-104041598D01*
X114561598Y-103886877D01*
X114687102Y-103707639D01*
X114779575Y-103509330D01*
X114836207Y-103297977D01*
X114855277Y-103080000D01*
X114836207Y-102862023D01*
X114779575Y-102650670D01*
X114766254Y-102622104D01*
X114687103Y-102452364D01*
X114660974Y-102415048D01*
X114561598Y-102273123D01*
X114406877Y-102118402D01*
X114406876Y-102118401D01*
X114406875Y-102118400D01*
X114227642Y-101992899D01*
X114227638Y-101992897D01*
X114222190Y-101990357D01*
X114152264Y-101936008D01*
X114112844Y-101856702D01*
X114111737Y-101768145D01*
X114149164Y-101687879D01*
X114217710Y-101631800D01*
X114222190Y-101629643D01*
X114223069Y-101629232D01*
X114227639Y-101627102D01*
X114406877Y-101501598D01*
X114561598Y-101346877D01*
X114687102Y-101167639D01*
X114779575Y-100969330D01*
X114836207Y-100757977D01*
X114855277Y-100540000D01*
X114836207Y-100322023D01*
X114779575Y-100110670D01*
X114687102Y-99912362D01*
X114561825Y-99733447D01*
X114561601Y-99733127D01*
X114561599Y-99733125D01*
X114561598Y-99733123D01*
X114406877Y-99578402D01*
X114406876Y-99578401D01*
X114406875Y-99578400D01*
X114227642Y-99452899D01*
X114227638Y-99452897D01*
X114222190Y-99450357D01*
X114152264Y-99396008D01*
X114112844Y-99316702D01*
X114111737Y-99228145D01*
X114149164Y-99147879D01*
X114217710Y-99091800D01*
X114222190Y-99089643D01*
X114223069Y-99089232D01*
X114227639Y-99087102D01*
X114406877Y-98961598D01*
X114561598Y-98806877D01*
X114687102Y-98627639D01*
X114779575Y-98429330D01*
X114836207Y-98217977D01*
X114855277Y-98000000D01*
X114836207Y-97782023D01*
X114779575Y-97570670D01*
X114687102Y-97372362D01*
X114561598Y-97193123D01*
X114406877Y-97038402D01*
X114406876Y-97038401D01*
X114406875Y-97038400D01*
X114227642Y-96912899D01*
X114227638Y-96912897D01*
X114222190Y-96910357D01*
X114152264Y-96856008D01*
X114112844Y-96776702D01*
X114111737Y-96688145D01*
X114149164Y-96607879D01*
X114217710Y-96551800D01*
X114222190Y-96549643D01*
X114223069Y-96549232D01*
X114227639Y-96547102D01*
X114406877Y-96421598D01*
X114561598Y-96266877D01*
X114687102Y-96087639D01*
X114779575Y-95889330D01*
X114836207Y-95677977D01*
X114855277Y-95460000D01*
X114836207Y-95242023D01*
X114779575Y-95030670D01*
X114688009Y-94834308D01*
X114687103Y-94832364D01*
X114561601Y-94653127D01*
X114561599Y-94653125D01*
X114561598Y-94653123D01*
X114406877Y-94498402D01*
X114406876Y-94498401D01*
X114406875Y-94498400D01*
X114227642Y-94372899D01*
X114227638Y-94372897D01*
X114222190Y-94370357D01*
X114152264Y-94316008D01*
X114112844Y-94236702D01*
X114111737Y-94148145D01*
X114149164Y-94067879D01*
X114217710Y-94011800D01*
X114222190Y-94009643D01*
X114223069Y-94009232D01*
X114227639Y-94007102D01*
X114406877Y-93881598D01*
X114561598Y-93726877D01*
X114687102Y-93547639D01*
X114779575Y-93349330D01*
X114836207Y-93137977D01*
X114855277Y-92920000D01*
X114836207Y-92702023D01*
X114779575Y-92490670D01*
X114687102Y-92292362D01*
X114561598Y-92113123D01*
X114406877Y-91958402D01*
X114406876Y-91958401D01*
X114406875Y-91958400D01*
X114227642Y-91832899D01*
X114227638Y-91832897D01*
X114222190Y-91830357D01*
X114152264Y-91776008D01*
X114112844Y-91696702D01*
X114111737Y-91608145D01*
X114149164Y-91527879D01*
X114217710Y-91471800D01*
X114222190Y-91469643D01*
X114223069Y-91469232D01*
X114227639Y-91467102D01*
X114406877Y-91341598D01*
X114561598Y-91186877D01*
X114687102Y-91007639D01*
X114779575Y-90809330D01*
X114836207Y-90597977D01*
X114855277Y-90380000D01*
X114836207Y-90162023D01*
X114779575Y-89950670D01*
X114687102Y-89752362D01*
X114561598Y-89573123D01*
X114406877Y-89418402D01*
X114406876Y-89418401D01*
X114406875Y-89418400D01*
X114227642Y-89292899D01*
X114227638Y-89292897D01*
X114222190Y-89290357D01*
X114152264Y-89236008D01*
X114112844Y-89156702D01*
X114111737Y-89068145D01*
X114149164Y-88987879D01*
X114217710Y-88931800D01*
X114222190Y-88929643D01*
X114223069Y-88929232D01*
X114227639Y-88927102D01*
X114406877Y-88801598D01*
X114561598Y-88646877D01*
X114687102Y-88467639D01*
X114779575Y-88269330D01*
X114836207Y-88057977D01*
X114855277Y-87840000D01*
X114836207Y-87622023D01*
X114779575Y-87410670D01*
X114719623Y-87282104D01*
X114687103Y-87212364D01*
X114561601Y-87033127D01*
X114561599Y-87033125D01*
X114561598Y-87033123D01*
X114406877Y-86878402D01*
X114406876Y-86878401D01*
X114406875Y-86878400D01*
X114227642Y-86752899D01*
X114227638Y-86752897D01*
X114222190Y-86750357D01*
X114152264Y-86696008D01*
X114112844Y-86616702D01*
X114111737Y-86528145D01*
X114149164Y-86447879D01*
X114217710Y-86391800D01*
X114222190Y-86389643D01*
X114223069Y-86389232D01*
X114227639Y-86387102D01*
X114406877Y-86261598D01*
X114561598Y-86106877D01*
X114687102Y-85927639D01*
X114779575Y-85729330D01*
X114836207Y-85517977D01*
X114855277Y-85300000D01*
X114836207Y-85082023D01*
X114779575Y-84870670D01*
X114687102Y-84672362D01*
X114561825Y-84493447D01*
X114561601Y-84493127D01*
X114561599Y-84493125D01*
X114561598Y-84493123D01*
X114406877Y-84338402D01*
X114406876Y-84338401D01*
X114406875Y-84338400D01*
X114227642Y-84212899D01*
X114227638Y-84212897D01*
X114029335Y-84120427D01*
X114029328Y-84120424D01*
X113817979Y-84063793D01*
X113817972Y-84063792D01*
X113600000Y-84044723D01*
X113382027Y-84063792D01*
X113382020Y-84063793D01*
X113170671Y-84120424D01*
X113170665Y-84120426D01*
X112972364Y-84212896D01*
X112793127Y-84338398D01*
X112793119Y-84338405D01*
X112638405Y-84493119D01*
X112638398Y-84493127D01*
X112512896Y-84672364D01*
X112420426Y-84870665D01*
X112420424Y-84870671D01*
X112363793Y-85082020D01*
X112363792Y-85082027D01*
X112344723Y-85300000D01*
X112363792Y-85517972D01*
X112363793Y-85517979D01*
X112420424Y-85729328D01*
X112420427Y-85729335D01*
X112512897Y-85927638D01*
X112512899Y-85927642D01*
X112638403Y-86106879D01*
X112793120Y-86261596D01*
X112972357Y-86387100D01*
X112972360Y-86387101D01*
X112972361Y-86387102D01*
X112977815Y-86389645D01*
X113047739Y-86443996D01*
X113087157Y-86523304D01*
X113088260Y-86611860D01*
X113050832Y-86692126D01*
X112982284Y-86748203D01*
X112977820Y-86750353D01*
X112972362Y-86752898D01*
X112793127Y-86878398D01*
X112793119Y-86878405D01*
X112638405Y-87033119D01*
X112638398Y-87033127D01*
X112512896Y-87212364D01*
X112420426Y-87410665D01*
X112420424Y-87410671D01*
X112363793Y-87622020D01*
X112363792Y-87622027D01*
X112344723Y-87840000D01*
X112363792Y-88057972D01*
X112363793Y-88057979D01*
X112420424Y-88269328D01*
X112420427Y-88269335D01*
X112512897Y-88467638D01*
X112512899Y-88467642D01*
X112638403Y-88646879D01*
X112793120Y-88801596D01*
X112972357Y-88927100D01*
X112972360Y-88927101D01*
X112972361Y-88927102D01*
X112977815Y-88929645D01*
X113047739Y-88983996D01*
X113087157Y-89063304D01*
X113088260Y-89151860D01*
X113050832Y-89232126D01*
X112982284Y-89288203D01*
X112977820Y-89290353D01*
X112972362Y-89292898D01*
X112793127Y-89418398D01*
X112793119Y-89418405D01*
X112638405Y-89573119D01*
X112638398Y-89573127D01*
X112512896Y-89752364D01*
X112420426Y-89950665D01*
X112420424Y-89950671D01*
X112363793Y-90162020D01*
X112363792Y-90162027D01*
X112344723Y-90380000D01*
X112363792Y-90597972D01*
X112363793Y-90597979D01*
X112420424Y-90809328D01*
X112420427Y-90809335D01*
X112512897Y-91007638D01*
X112512899Y-91007642D01*
X112638403Y-91186879D01*
X112793120Y-91341596D01*
X112972357Y-91467100D01*
X112972360Y-91467101D01*
X112972361Y-91467102D01*
X112977815Y-91469645D01*
X113047739Y-91523996D01*
X113087157Y-91603304D01*
X113088260Y-91691860D01*
X113050832Y-91772126D01*
X112982284Y-91828203D01*
X112977820Y-91830353D01*
X112972362Y-91832898D01*
X112793127Y-91958398D01*
X112793119Y-91958405D01*
X112638405Y-92113119D01*
X112638398Y-92113127D01*
X112512896Y-92292364D01*
X112420426Y-92490665D01*
X112420424Y-92490671D01*
X112363793Y-92702020D01*
X112363792Y-92702027D01*
X112344723Y-92920000D01*
X112363792Y-93137972D01*
X112363793Y-93137979D01*
X112420424Y-93349328D01*
X112420427Y-93349335D01*
X112512897Y-93547638D01*
X112512899Y-93547642D01*
X112638403Y-93726879D01*
X112793120Y-93881596D01*
X112972357Y-94007100D01*
X112972360Y-94007101D01*
X112972361Y-94007102D01*
X112977815Y-94009645D01*
X113047739Y-94063996D01*
X113087157Y-94143304D01*
X113088260Y-94231860D01*
X113050832Y-94312126D01*
X112982284Y-94368203D01*
X112977820Y-94370353D01*
X112972362Y-94372898D01*
X112793127Y-94498398D01*
X112793119Y-94498405D01*
X112638405Y-94653119D01*
X112638398Y-94653127D01*
X112512896Y-94832364D01*
X112420426Y-95030665D01*
X112420424Y-95030671D01*
X112363793Y-95242020D01*
X112363792Y-95242027D01*
X112344723Y-95460000D01*
X112363792Y-95677972D01*
X112363793Y-95677979D01*
X112420424Y-95889328D01*
X112420427Y-95889335D01*
X112512897Y-96087638D01*
X112512899Y-96087642D01*
X112638403Y-96266879D01*
X112793120Y-96421596D01*
X112972357Y-96547100D01*
X112972360Y-96547101D01*
X112972361Y-96547102D01*
X112977815Y-96549645D01*
X113047739Y-96603996D01*
X113087157Y-96683304D01*
X113088260Y-96771860D01*
X113050832Y-96852126D01*
X112982284Y-96908203D01*
X112977820Y-96910353D01*
X112972362Y-96912898D01*
X112793127Y-97038398D01*
X112793119Y-97038405D01*
X112638405Y-97193119D01*
X112638398Y-97193127D01*
X112512896Y-97372364D01*
X112420426Y-97570665D01*
X112420424Y-97570671D01*
X112363793Y-97782020D01*
X112363792Y-97782027D01*
X112344723Y-98000000D01*
X112363792Y-98217972D01*
X112363793Y-98217979D01*
X112420424Y-98429328D01*
X112420427Y-98429335D01*
X112512897Y-98627638D01*
X112512899Y-98627642D01*
X112638403Y-98806879D01*
X112793120Y-98961596D01*
X112972357Y-99087100D01*
X112972360Y-99087101D01*
X112972361Y-99087102D01*
X112977815Y-99089645D01*
X113047739Y-99143996D01*
X113087157Y-99223304D01*
X113088260Y-99311860D01*
X113050832Y-99392126D01*
X112982284Y-99448203D01*
X112977827Y-99450349D01*
X112972364Y-99452897D01*
X112972362Y-99452898D01*
X112793127Y-99578398D01*
X112793119Y-99578405D01*
X112638405Y-99733119D01*
X112638398Y-99733127D01*
X112512896Y-99912364D01*
X112420426Y-100110665D01*
X112420424Y-100110671D01*
X112363793Y-100322020D01*
X112363792Y-100322027D01*
X112344723Y-100540000D01*
X112363792Y-100757972D01*
X112363793Y-100757979D01*
X112420424Y-100969328D01*
X112420427Y-100969335D01*
X112512897Y-101167638D01*
X112512899Y-101167642D01*
X112638403Y-101346879D01*
X112793120Y-101501596D01*
X112972357Y-101627100D01*
X112972360Y-101627101D01*
X112972361Y-101627102D01*
X112977815Y-101629645D01*
X113047739Y-101683996D01*
X113087157Y-101763304D01*
X113088260Y-101851860D01*
X113050832Y-101932126D01*
X112982284Y-101988203D01*
X112977820Y-101990353D01*
X112972362Y-101992898D01*
X112793127Y-102118398D01*
X112793119Y-102118405D01*
X112638405Y-102273119D01*
X112638398Y-102273127D01*
X112512896Y-102452364D01*
X112420426Y-102650665D01*
X112420424Y-102650671D01*
X112363793Y-102862020D01*
X112363792Y-102862027D01*
X112344723Y-103080000D01*
X112363792Y-103297972D01*
X112363793Y-103297979D01*
X112420424Y-103509328D01*
X112420427Y-103509335D01*
X112512897Y-103707638D01*
X112512899Y-103707642D01*
X112638403Y-103886879D01*
X112793120Y-104041596D01*
X112972357Y-104167100D01*
X112972360Y-104167101D01*
X112972361Y-104167102D01*
X112977815Y-104169645D01*
X113047739Y-104223996D01*
X113087157Y-104303304D01*
X113088260Y-104391860D01*
X113050832Y-104472126D01*
X112982284Y-104528203D01*
X112977820Y-104530353D01*
X112972362Y-104532898D01*
X112793127Y-104658398D01*
X112793119Y-104658405D01*
X112638405Y-104813119D01*
X112638398Y-104813127D01*
X112512896Y-104992364D01*
X112420426Y-105190665D01*
X112420424Y-105190671D01*
X112363793Y-105402020D01*
X112363792Y-105402027D01*
X112344723Y-105620000D01*
X112363792Y-105837972D01*
X112363793Y-105837979D01*
X112420424Y-106049328D01*
X112420427Y-106049335D01*
X112512897Y-106247638D01*
X112512899Y-106247642D01*
X112638403Y-106426879D01*
X112793120Y-106581596D01*
X112972357Y-106707100D01*
X112972360Y-106707101D01*
X112972361Y-106707102D01*
X112977815Y-106709645D01*
X113047739Y-106763996D01*
X113087157Y-106843304D01*
X113088260Y-106931860D01*
X113050832Y-107012126D01*
X112982284Y-107068203D01*
X112977820Y-107070353D01*
X112972362Y-107072898D01*
X112793127Y-107198398D01*
X112793119Y-107198405D01*
X112638405Y-107353119D01*
X112638398Y-107353127D01*
X112512896Y-107532364D01*
X112420426Y-107730665D01*
X112420424Y-107730671D01*
X112363793Y-107942020D01*
X112363792Y-107942027D01*
X112344723Y-108160000D01*
X112363792Y-108377972D01*
X112363793Y-108377979D01*
X112420424Y-108589328D01*
X112420427Y-108589335D01*
X112512897Y-108787638D01*
X112512899Y-108787642D01*
X112638403Y-108966879D01*
X112793120Y-109121596D01*
X112972357Y-109247100D01*
X112972360Y-109247101D01*
X112972361Y-109247102D01*
X112977815Y-109249645D01*
X113047739Y-109303996D01*
X113087157Y-109383304D01*
X113088260Y-109471860D01*
X113050832Y-109552126D01*
X112982284Y-109608203D01*
X112977820Y-109610353D01*
X112972362Y-109612898D01*
X112793127Y-109738398D01*
X112793119Y-109738405D01*
X112638405Y-109893119D01*
X112638398Y-109893127D01*
X112512896Y-110072364D01*
X112420426Y-110270665D01*
X112420424Y-110270671D01*
X112363793Y-110482020D01*
X112363792Y-110482027D01*
X112344723Y-110700000D01*
X112363792Y-110917972D01*
X112363793Y-110917979D01*
X112420424Y-111129328D01*
X112420427Y-111129335D01*
X112512897Y-111327638D01*
X112512899Y-111327642D01*
X112638403Y-111506879D01*
X112793120Y-111661596D01*
X112972357Y-111787100D01*
X112972360Y-111787101D01*
X112972361Y-111787102D01*
X112977815Y-111789645D01*
X113047739Y-111843996D01*
X113087157Y-111923304D01*
X113088260Y-112011860D01*
X113050832Y-112092126D01*
X112982284Y-112148203D01*
X112977820Y-112150353D01*
X112972362Y-112152898D01*
X112793127Y-112278398D01*
X112793119Y-112278405D01*
X112638405Y-112433119D01*
X112638398Y-112433127D01*
X112512896Y-112612364D01*
X112420426Y-112810665D01*
X112420424Y-112810671D01*
X112363793Y-113022020D01*
X112363792Y-113022027D01*
X112344723Y-113240000D01*
X112363792Y-113457972D01*
X112363793Y-113457979D01*
X112420424Y-113669328D01*
X112420427Y-113669335D01*
X112512897Y-113867638D01*
X112512899Y-113867642D01*
X112638403Y-114046879D01*
X112793120Y-114201596D01*
X112972357Y-114327100D01*
X112972360Y-114327101D01*
X112972361Y-114327102D01*
X112977815Y-114329645D01*
X113047739Y-114383996D01*
X113087157Y-114463304D01*
X113088260Y-114551860D01*
X113050832Y-114632126D01*
X112982284Y-114688203D01*
X112977820Y-114690353D01*
X112972362Y-114692898D01*
X112793127Y-114818398D01*
X112793119Y-114818405D01*
X112638405Y-114973119D01*
X112638398Y-114973127D01*
X112512896Y-115152364D01*
X112420426Y-115350665D01*
X112420424Y-115350671D01*
X112363793Y-115562020D01*
X112363792Y-115562027D01*
X112344723Y-115780000D01*
X112363792Y-115997972D01*
X112363793Y-115997979D01*
X112420424Y-116209328D01*
X112420427Y-116209335D01*
X112512897Y-116407638D01*
X112512899Y-116407642D01*
X112638403Y-116586879D01*
X112793120Y-116741596D01*
X112972357Y-116867100D01*
X112972360Y-116867102D01*
X112978406Y-116869921D01*
X113048331Y-116924272D01*
X113087749Y-117003579D01*
X113088853Y-117092136D01*
X113051424Y-117172401D01*
X112982876Y-117228478D01*
X112978412Y-117230629D01*
X112972609Y-117233334D01*
X112972607Y-117233336D01*
X112793447Y-117358784D01*
X112793445Y-117358787D01*
X112638787Y-117513445D01*
X112638784Y-117513447D01*
X112513336Y-117692607D01*
X112513332Y-117692614D01*
X112420895Y-117890844D01*
X112420895Y-117890845D01*
X112364289Y-118102105D01*
X112364287Y-118102116D01*
X112362722Y-118119999D01*
X112362723Y-118120000D01*
X113137617Y-118120000D01*
X113100000Y-118248111D01*
X113100000Y-118391889D01*
X113137617Y-118520000D01*
X112362723Y-118520000D01*
X112364287Y-118537883D01*
X112364289Y-118537894D01*
X112420894Y-118749151D01*
X112420895Y-118749153D01*
X112513332Y-118947388D01*
X112513334Y-118947391D01*
X112638787Y-119126555D01*
X112793444Y-119281212D01*
X112972608Y-119406665D01*
X112972612Y-119406667D01*
X112978406Y-119409369D01*
X113048331Y-119463720D01*
X113087749Y-119543028D01*
X113088853Y-119631584D01*
X113051424Y-119711850D01*
X112982876Y-119767927D01*
X112978411Y-119770077D01*
X112972363Y-119772897D01*
X112793127Y-119898398D01*
X112793119Y-119898405D01*
X112638405Y-120053119D01*
X112638398Y-120053127D01*
X112512896Y-120232364D01*
X112420426Y-120430665D01*
X112420424Y-120430671D01*
X112363793Y-120642020D01*
X112363792Y-120642027D01*
X112344723Y-120860000D01*
X112363792Y-121077972D01*
X112363793Y-121077979D01*
X112420424Y-121289328D01*
X112420427Y-121289335D01*
X112512897Y-121487638D01*
X112512899Y-121487642D01*
X112638403Y-121666879D01*
X112793120Y-121821596D01*
X112972357Y-121947100D01*
X112972360Y-121947101D01*
X112972361Y-121947102D01*
X112977815Y-121949645D01*
X113047739Y-122003996D01*
X113087157Y-122083304D01*
X113088260Y-122171860D01*
X113050832Y-122252126D01*
X112982284Y-122308203D01*
X112977820Y-122310353D01*
X112972362Y-122312898D01*
X112793127Y-122438398D01*
X112793119Y-122438405D01*
X112638405Y-122593119D01*
X112638398Y-122593127D01*
X112512896Y-122772364D01*
X112420426Y-122970665D01*
X112420424Y-122970671D01*
X112363793Y-123182020D01*
X112363792Y-123182027D01*
X112344723Y-123400000D01*
X112363792Y-123617972D01*
X112363793Y-123617979D01*
X112420424Y-123829328D01*
X112420427Y-123829335D01*
X112512897Y-124027638D01*
X112512899Y-124027642D01*
X112638403Y-124206879D01*
X112793120Y-124361596D01*
X112972357Y-124487100D01*
X112972360Y-124487101D01*
X112972361Y-124487102D01*
X112977815Y-124489645D01*
X113047739Y-124543996D01*
X113087157Y-124623304D01*
X113088260Y-124711860D01*
X113050832Y-124792126D01*
X112982284Y-124848203D01*
X112977820Y-124850353D01*
X112972362Y-124852898D01*
X112793127Y-124978398D01*
X112793119Y-124978405D01*
X112638405Y-125133119D01*
X112638398Y-125133127D01*
X112512896Y-125312364D01*
X112420426Y-125510665D01*
X112420424Y-125510671D01*
X112363793Y-125722020D01*
X112363792Y-125722027D01*
X112344723Y-125940000D01*
X112363792Y-126157972D01*
X112363793Y-126157979D01*
X112420424Y-126369328D01*
X112420427Y-126369335D01*
X112512897Y-126567638D01*
X112512899Y-126567642D01*
X112638403Y-126746879D01*
X112793120Y-126901596D01*
X112972357Y-127027100D01*
X112972360Y-127027101D01*
X112972361Y-127027102D01*
X112977815Y-127029645D01*
X113047739Y-127083996D01*
X113087157Y-127163304D01*
X113088260Y-127251860D01*
X113050832Y-127332126D01*
X112982284Y-127388203D01*
X112977820Y-127390353D01*
X112972362Y-127392898D01*
X112793127Y-127518398D01*
X112793119Y-127518405D01*
X112638405Y-127673119D01*
X112638398Y-127673127D01*
X112512896Y-127852364D01*
X112420426Y-128050665D01*
X112420424Y-128050671D01*
X112363793Y-128262020D01*
X112363792Y-128262027D01*
X112344723Y-128480000D01*
X112363792Y-128697972D01*
X112363793Y-128697979D01*
X112420424Y-128909328D01*
X112420427Y-128909335D01*
X112512897Y-129107638D01*
X112512899Y-129107642D01*
X112638403Y-129286879D01*
X112793120Y-129441596D01*
X112972357Y-129567100D01*
X112972360Y-129567101D01*
X112972361Y-129567102D01*
X112977815Y-129569645D01*
X113047739Y-129623996D01*
X113087157Y-129703304D01*
X113088260Y-129791860D01*
X113050832Y-129872126D01*
X112982284Y-129928203D01*
X112977820Y-129930353D01*
X112972362Y-129932898D01*
X112793127Y-130058398D01*
X112793119Y-130058405D01*
X112638405Y-130213119D01*
X112638398Y-130213127D01*
X112512896Y-130392364D01*
X112420426Y-130590665D01*
X112420424Y-130590671D01*
X112363793Y-130802020D01*
X112363792Y-130802027D01*
X112344723Y-131020000D01*
X104000500Y-131020000D01*
X104000500Y-79080411D01*
X104018764Y-79000387D01*
X104015934Y-78996429D01*
X104015920Y-78996357D01*
X104379379Y-78996357D01*
X104398227Y-79069996D01*
X104414308Y-79376855D01*
X104414309Y-79376869D01*
X104473345Y-79749605D01*
X104473349Y-79749622D01*
X104571019Y-80114136D01*
X104571023Y-80114147D01*
X104706260Y-80466452D01*
X104706265Y-80466462D01*
X104706266Y-80466465D01*
X104877597Y-80802721D01*
X105083137Y-81119225D01*
X105320635Y-81412511D01*
X105587489Y-81679365D01*
X105880775Y-81916863D01*
X106197279Y-82122403D01*
X106533535Y-82293734D01*
X106533542Y-82293736D01*
X106533547Y-82293739D01*
X106885852Y-82428976D01*
X106885863Y-82428980D01*
X107086475Y-82482733D01*
X107250387Y-82526653D01*
X107623129Y-82585690D01*
X107623132Y-82585690D01*
X107623144Y-82585691D01*
X107999995Y-82605441D01*
X108000000Y-82605441D01*
X108000005Y-82605441D01*
X108376855Y-82585691D01*
X108376863Y-82585690D01*
X108376871Y-82585690D01*
X108749613Y-82526653D01*
X109114143Y-82428978D01*
X109466465Y-82293734D01*
X109802721Y-82122403D01*
X110119225Y-81916863D01*
X110412511Y-81679365D01*
X110679365Y-81412511D01*
X110916863Y-81119225D01*
X111122403Y-80802721D01*
X111293734Y-80466465D01*
X111428978Y-80114143D01*
X111526653Y-79749613D01*
X111585690Y-79376871D01*
X111605441Y-79000005D01*
X166394559Y-79000005D01*
X166414308Y-79376855D01*
X166414309Y-79376869D01*
X166473345Y-79749605D01*
X166473349Y-79749622D01*
X166571019Y-80114136D01*
X166571023Y-80114147D01*
X166706260Y-80466452D01*
X166706265Y-80466462D01*
X166706266Y-80466465D01*
X166877597Y-80802721D01*
X167083137Y-81119225D01*
X167320635Y-81412511D01*
X167587489Y-81679365D01*
X167880775Y-81916863D01*
X168197279Y-82122403D01*
X168533535Y-82293734D01*
X168533542Y-82293736D01*
X168533547Y-82293739D01*
X168885852Y-82428976D01*
X168885863Y-82428980D01*
X169086475Y-82482733D01*
X169250387Y-82526653D01*
X169623129Y-82585690D01*
X169623132Y-82585690D01*
X169623144Y-82585691D01*
X169999995Y-82605441D01*
X170000000Y-82605441D01*
X170000005Y-82605441D01*
X170376855Y-82585691D01*
X170376863Y-82585690D01*
X170376871Y-82585690D01*
X170749613Y-82526653D01*
X171114143Y-82428978D01*
X171466465Y-82293734D01*
X171802721Y-82122403D01*
X172119225Y-81916863D01*
X172412511Y-81679365D01*
X172679365Y-81412511D01*
X172916863Y-81119225D01*
X173122403Y-80802721D01*
X173293734Y-80466465D01*
X173428978Y-80114143D01*
X173526653Y-79749613D01*
X173585690Y-79376871D01*
X173601773Y-79069996D01*
X173620620Y-79003641D01*
X173601773Y-78930003D01*
X173585691Y-78623144D01*
X173585690Y-78623130D01*
X173526654Y-78250394D01*
X173526653Y-78250387D01*
X173428978Y-77885857D01*
X173293734Y-77533535D01*
X173122403Y-77197280D01*
X173122400Y-77197274D01*
X172916861Y-76880772D01*
X172679364Y-76587488D01*
X172412511Y-76320635D01*
X172119231Y-76083142D01*
X172119225Y-76083137D01*
X171802721Y-75877597D01*
X171802718Y-75877595D01*
X171466473Y-75706270D01*
X171466452Y-75706260D01*
X171114147Y-75571023D01*
X171114136Y-75571019D01*
X170749622Y-75473349D01*
X170749605Y-75473345D01*
X170376869Y-75414309D01*
X170376855Y-75414308D01*
X170069996Y-75398227D01*
X170003641Y-75379379D01*
X169930004Y-75398227D01*
X169623144Y-75414308D01*
X169623130Y-75414309D01*
X169250394Y-75473345D01*
X169250377Y-75473349D01*
X168885863Y-75571019D01*
X168885852Y-75571023D01*
X168533547Y-75706260D01*
X168533526Y-75706270D01*
X168197281Y-75877595D01*
X168197274Y-75877599D01*
X167880772Y-76083138D01*
X167587488Y-76320635D01*
X167320635Y-76587488D01*
X167083138Y-76880772D01*
X166877599Y-77197274D01*
X166877595Y-77197281D01*
X166706270Y-77533526D01*
X166706260Y-77533547D01*
X166571023Y-77885852D01*
X166571019Y-77885863D01*
X166473349Y-78250377D01*
X166473345Y-78250394D01*
X166414309Y-78623130D01*
X166414308Y-78623144D01*
X166394559Y-78999994D01*
X166394559Y-79000005D01*
X111605441Y-79000005D01*
X111605441Y-79000000D01*
X111585690Y-78623129D01*
X111526653Y-78250387D01*
X111428978Y-77885857D01*
X111293734Y-77533535D01*
X111122403Y-77197280D01*
X111122400Y-77197274D01*
X110916861Y-76880772D01*
X110679364Y-76587488D01*
X110412511Y-76320635D01*
X110119231Y-76083142D01*
X110119225Y-76083137D01*
X109802721Y-75877597D01*
X109802718Y-75877595D01*
X109466473Y-75706270D01*
X109466452Y-75706260D01*
X109114147Y-75571023D01*
X109114136Y-75571019D01*
X108749622Y-75473349D01*
X108749605Y-75473345D01*
X108376869Y-75414309D01*
X108376855Y-75414308D01*
X108069996Y-75398227D01*
X108003641Y-75379379D01*
X107930004Y-75398227D01*
X107623144Y-75414308D01*
X107623130Y-75414309D01*
X107250394Y-75473345D01*
X107250377Y-75473349D01*
X106885863Y-75571019D01*
X106885852Y-75571023D01*
X106533547Y-75706260D01*
X106533526Y-75706270D01*
X106197281Y-75877595D01*
X106197274Y-75877599D01*
X105880772Y-76083138D01*
X105587488Y-76320635D01*
X105320635Y-76587488D01*
X105083138Y-76880772D01*
X104877599Y-77197274D01*
X104877595Y-77197281D01*
X104706270Y-77533526D01*
X104706260Y-77533547D01*
X104571023Y-77885852D01*
X104571019Y-77885863D01*
X104473349Y-78250377D01*
X104473345Y-78250394D01*
X104414309Y-78623130D01*
X104414308Y-78623144D01*
X104398227Y-78930003D01*
X104379379Y-78996357D01*
X104015920Y-78996357D01*
X104000500Y-78919588D01*
X104000500Y-75199500D01*
X104020207Y-75113157D01*
X104075426Y-75043916D01*
X104155218Y-75005489D01*
X104199500Y-75000500D01*
X107919589Y-75000500D01*
X107999612Y-75018764D01*
G37*
G04 #@! TD.AperFunction*
M02*
